<svg width="210" height="32" viewBox="0 0 210 32" fill="none" xmlns="http://www.w3.org/2000/svg">
<path d="M28.9083 6.2168C29.6749 7.19943 30.3239 8.26698 30.8421 9.39801L16.1419 20.1416L9.99829 16.3234V11.7299L16.1419 15.5481L28.9083 6.2168Z" fill="white"/>
<path d="M3.72827 15.9994C3.72827 15.7933 3.73334 15.5886 3.74348 15.385L0.0202772 15.2041C0.00760464 15.4679 4.49931e-06 15.7343 4.49931e-06 16.0032C-0.00157962 18.1037 0.415154 20.1838 1.22631 22.1242C2.03746 24.0647 3.22706 25.8273 4.72687 27.3108L7.36783 24.6937C6.21333 23.5537 5.29746 22.1987 4.67286 20.7067C4.04826 19.2146 3.72725 17.6149 3.72827 15.9994Z" fill="white"/>
<path d="M16.1385 3.69595C16.3463 3.69595 16.5528 3.7035 16.7581 3.71354L16.9444 0.0208111C16.6775 0.00824652 16.4088 0.00196499 16.1385 0.00196499C14.0188 -0.000597879 11.9196 0.411989 9.96126 1.21603C8.00291 2.02008 6.22405 3.19975 4.72681 4.68731L7.36777 7.30577C8.51766 6.16073 9.8845 5.25233 11.3897 4.63284C12.8949 4.01334 14.5087 3.69494 16.1385 3.69595Z" fill="white"/>
<path d="M16.1385 28.3048C15.9307 28.3048 15.7241 28.3048 15.5176 28.2885L15.3313 31.9799C15.5991 31.9933 15.8682 32.0001 16.1385 32.0001C18.2573 32.0022 20.3555 31.5894 22.3128 30.7851C24.2701 29.9809 26.0478 28.801 27.5439 27.3135L24.908 24.6963C23.7579 25.8407 22.3912 26.7486 20.8863 27.3679C19.3814 27.9871 17.7679 28.3056 16.1385 28.3048Z" fill="white"/>
<path d="M23.1339 5.8418L26.2716 3.54905C23.4037 1.24684 19.8238 -0.00639069 16.1335 2.45071e-05V3.69478C18.6324 3.69171 21.0733 4.44036 23.1339 5.8418Z" fill="white"/>
<path d="M32.2759 15.9999C32.2779 15.0387 32.1931 14.0791 32.0224 13.1328L28.5489 15.6707C28.5489 15.7801 28.5489 15.8894 28.5489 15.9999C28.5498 17.719 28.1863 19.4192 27.4821 20.9901C26.7778 22.561 25.7484 23.9677 24.4607 25.1189L26.9661 27.8642C28.6402 26.3658 29.978 24.5353 30.8927 22.4915C31.8075 20.4476 32.2787 18.236 32.2759 15.9999Z" fill="white"/>
<path d="M16.1386 28.3053C14.4045 28.3059 12.6896 27.9454 11.1049 27.2472C9.52028 26.5489 8.10119 25.5285 6.93956 24.252L4.17188 26.7347C5.68303 28.3948 7.52923 29.7214 9.59076 30.6286C11.6523 31.5357 13.8831 32.0031 16.1386 32.0005V28.3053Z" fill="white"/>
<path d="M7.81645 6.88001L5.31235 4.13477C3.63776 5.63287 2.29948 7.46322 1.3843 9.5071C0.469132 11.551 -0.00249507 13.7627 9.92661e-06 15.999H3.72828C3.72751 14.28 4.09104 12.5798 4.79529 11.0089C5.49955 9.43804 6.52883 8.03135 7.81645 6.88001Z" fill="white"/>
<mask id="mask0_1975_496" style="mask-type:luminance" maskUnits="userSpaceOnUse" x="40" y="5" width="170" height="22">
<path d="M209.38 5.56543H40.9656V26.7163H209.38V5.56543Z" fill="white"/>
</mask>
<g mask="url(#mask0_1975_496)">
<path d="M93.1298 9.149L97.7473 5.81445H82.2935V25.8522H97.7473V22.5176H86.7031V17.3849H96.1243V14.0504H86.7031V9.149H93.1298Z" fill="white"/>
<path d="M71.8952 13.6202H66.53V9.14742H75.0927L79.7074 5.80273H62.123V25.8405H71.3277C76.4883 25.8405 79.45 23.5478 79.45 19.5494C79.45 15.7243 76.7674 13.6202 71.8952 13.6202ZM71.1292 22.5049H66.53V16.9527H71.1292C73.9204 16.9527 75.2291 17.8831 75.2291 19.7288C75.2291 21.5744 73.8366 22.5049 71.1292 22.5049Z" fill="white"/>
<path d="M109.107 5.81152H100.695V25.8492H105.104V20.1729H109.107C114.474 20.1729 117.794 17.4046 117.794 12.9815C117.794 8.55846 114.474 5.81152 109.107 5.81152ZM109.014 16.8358H105.104V9.14861H109.014C111.837 9.14861 113.395 10.5145 113.395 12.9937C113.395 15.473 111.837 16.8358 109.014 16.8358Z" fill="white"/>
<path d="M55.5064 21.1206C54.3674 21.7251 53.0913 22.0382 51.7962 22.0307C47.9198 22.0307 45.1077 19.3181 45.1077 15.5828C45.1077 11.8473 47.9198 9.1288 51.7962 9.1288C53.1941 9.10553 54.563 9.52103 55.7029 10.3147L58.7871 8.08823L58.5785 7.94296C56.7794 6.39248 54.3755 5.57129 51.6239 5.57129C48.6394 5.57129 45.9332 6.55553 44.001 8.34615C43.024 9.26811 42.2514 10.3776 41.7311 11.6053C41.2109 12.833 40.9542 14.1526 40.9773 15.4819C40.9566 16.8247 41.2121 18.1578 41.7285 19.4016C42.2449 20.6455 43.0116 21.7745 43.9829 22.7215C45.9241 24.5833 48.6243 25.609 51.5876 25.609C54.6839 25.609 57.3902 24.5506 59.2226 22.6237L56.4619 20.6078L55.5064 21.1206Z" fill="white"/>
<path d="M135.277 13.6202H129.914V9.14742H141.439V5.80273H125.504V25.8405H134.697C139.857 25.8405 142.819 23.5478 142.819 19.5494C142.831 15.7243 140.149 13.6202 135.277 13.6202ZM134.511 22.5049H129.914V16.9527H134.511C137.302 16.9527 138.61 17.8831 138.61 19.7288C138.61 21.5744 137.23 22.5049 134.511 22.5049Z" fill="white"/>
<path d="M192.947 25.8122H188.477V5.77441H192.947V14.1904H195.38L201.95 5.77441H207.016L199.223 15.3066L208.272 25.8122H202.341L195.69 17.9315H192.947V25.8122Z" fill="white"/>
<path d="M159.059 22.005H149.603L148 25.8961H143.243L152.112 5.8584H156.868L165.593 25.8961H160.662L159.059 22.005ZM157.578 18.3743L154.359 10.5921L151.122 18.3743H157.578Z" fill="white"/>
<path d="M171.611 5.8584V14.2258H180.861V5.8584H185.47V25.8961H180.861V18.0005H171.611V25.8961H167.002V5.8584H171.611Z" fill="white"/>
</g>
</svg>
