<svg width="627" height="595" viewBox="0 0 627 595" fill="none" xmlns="http://www.w3.org/2000/svg">
<g clip-path="url(#clip0_1226_2917)">
<path d="M266.87 294.159C267.781 294.159 268.692 291.428 269.603 291.428C270.514 291.428 273.11 292.338 274.995 292.793C276.88 293.249 275.906 291.428 277.728 292.793C279.549 294.159 280.278 292.793 280.278 292.793V289.844C280.278 289.844 278.219 289.944 280.278 288.869C282.336 287.795 280.952 285.874 280.278 284.554C279.604 283.234 275.979 283.234 275.979 282.324C275.979 281.413 274.157 277.298 274.157 277.298V271.216L275.068 265.936L277.8 263.205L276.89 258.652C276.89 258.652 276.826 255.011 274.157 255.921C271.488 256.832 271.425 259.563 271.425 256.832V251.369C271.425 248.638 270.514 247.727 272.335 247.727C274.157 247.727 273.374 245.906 275.587 247.727C277.8 249.548 280.405 250.513 281.38 248.638C282.354 246.762 281.444 246.817 282.354 245.906C283.265 244.996 283.265 244.996 285.998 244.086C288.73 243.175 285.087 246.817 289.641 243.175C294.195 239.533 295.106 238.623 296.017 238.623C296.928 238.623 298.749 239.533 300.571 239.533H306.036C306.036 239.533 310.59 237.713 313.322 240.444C316.055 243.175 315.144 243.175 318.787 244.086C322.431 244.996 321.52 244.086 324.252 245.906C326.985 247.727 332.45 254.1 332.45 254.1L334.271 259.563C333.79 261.805 333.649 264.107 333.852 266.391C334.271 269.578 333.36 269.578 333.36 275.04C333.36 280.503 336.093 275.04 337.004 275.04C337.915 275.04 335.182 277.771 337.915 278.682C340.647 279.592 341.558 280.503 342.469 279.592C343.379 278.682 347.023 277.771 348.844 279.592C350.666 281.413 356.131 283.234 350.666 283.234H344.29C342.469 283.234 340.647 280.503 338.825 282.324C337.004 284.144 337.004 283.234 335.182 285.965C333.36 288.697 334.271 285.965 333.36 289.607C332.45 293.249 334.271 293.249 332.45 295.98C330.628 298.711 332.45 296.89 328.806 301.442C325.163 305.995 325.163 306.905 322.431 308.726C320.37 310.049 318.242 311.265 316.055 312.368C316.055 312.368 309.679 313.278 306.947 312.368C304.214 311.457 305.125 311.457 303.303 314.188C301.482 316.92 303.303 315.099 302.393 317.83C301.482 320.561 302.393 325.114 302.393 326.024C302.393 326.934 308.768 326.024 308.768 326.934C308.768 327.845 299.505 332.989 299.505 332.989C299.02 334.337 298.464 335.659 297.838 336.949C296.928 338.77 293.284 341.501 292.374 341.501C291.463 341.501 288.73 336.949 288.73 336.949C288.73 336.949 284.176 329.666 281.444 331.487C278.711 333.307 277.8 334.218 276.89 336.039C275.979 337.86 272.335 336.949 275.979 339.68C279.622 342.412 284.176 347.874 285.998 348.785C287.819 349.695 289.641 350.605 288.73 352.426C287.819 354.247 285.087 355.158 284.176 355.158C283.265 355.158 284.176 355.158 283.265 356.978C282.777 357.817 282.467 358.746 282.354 359.71C281.991 359.823 281.654 360.008 281.365 360.254C281.075 360.5 280.837 360.802 280.667 361.143C280.497 361.483 280.398 361.854 280.374 362.233C280.351 362.613 280.405 362.993 280.533 363.351C281.444 366.083 282.354 366.083 282.354 367.904C282.354 368.387 282.163 368.85 281.821 369.191C281.479 369.533 281.016 369.724 280.533 369.724L276.89 366.993C276.89 366.993 275.068 371.545 277.8 373.366C280.533 375.187 280.533 377.008 280.533 377.008C280.533 377.008 278.711 378.829 278.711 380.65C278.711 382.47 279.622 382.47 276.89 383.381C274.157 384.291 273.246 383.381 270.514 386.112C267.781 388.843 266.871 388.843 265.96 387.933C264.639 386.185 263.422 384.361 262.316 382.47C262.316 382.47 261.406 385.202 259.584 385.202C257.762 385.202 254.119 383.381 254.119 383.381C254.119 383.381 255.941 383.381 253.208 385.202C250.476 387.023 249.565 387.023 249.565 387.023C249.565 387.023 252.297 399.769 250.476 401.589C249.222 402.717 247.608 403.362 245.922 403.41C245.445 403.156 244.913 403.023 244.373 403.023C243.833 403.023 243.301 403.156 242.825 403.41C241.368 404.321 241.368 405.231 238.635 405.231C235.903 405.231 234.081 406.141 234.081 408.873C234.081 411.604 234.081 412.514 235.903 413.425C237.724 414.335 239.546 412.514 241.368 414.335C243.189 416.156 243.189 416.156 243.189 418.887C243.167 420.452 243.477 422.004 244.1 423.44C244.1 423.44 239.546 424.35 240.457 426.171C241.368 427.992 240.457 427.992 243.189 430.723C245.922 433.454 248.654 437.096 248.654 439.827C248.654 442.559 248.654 448.932 250.476 448.932C252.297 448.932 254.119 450.752 253.208 452.573C252.297 454.394 252.297 454.394 251.387 458.946C250.476 463.498 252.297 466.23 255.941 468.051C259.584 469.871 263.227 468.051 265.049 468.961C266.871 469.871 265.96 469.871 269.603 469.871C273.246 469.871 283.265 471.692 283.265 471.692C283.265 471.692 282.354 464.409 286.909 472.603C291.463 480.796 292.92 478.976 293.558 482.617C294.195 486.259 298.43 485.421 299.505 489.482C300.08 491.396 300.437 493.369 300.571 495.363C302.971 494.834 305.457 494.834 307.857 495.363C311.501 496.274 310.59 499.915 315.144 498.095C319.698 496.274 325.163 492.632 325.163 490.811C325.163 488.99 327.896 487.169 326.985 481.707C326.074 476.244 316.055 476.244 325.163 474.424C334.271 472.603 340.647 470.782 340.647 470.782C342.736 470.226 344.934 470.226 347.023 470.782C350.666 471.692 350.666 470.782 351.577 473.513C352.488 476.244 354.491 475.807 353.034 478.302C351.577 480.796 347.934 481.707 348.844 483.528C349.755 485.349 351.877 486.259 353.544 486.732C355.211 487.206 355.22 481.707 357.953 485.349C359.472 487.284 360.699 489.431 361.596 491.722V498.595C363.394 498.355 365.217 498.355 367.015 498.595L376.169 499.915C376.169 499.915 370.704 503.557 377.991 504.468C385.277 505.378 386.188 500.826 389.831 504.468C393.475 508.109 391.653 508.109 395.296 509.93C398.94 511.751 398.029 512.661 401.672 512.661C405.315 512.661 405.315 510.84 408.959 512.661C412.602 514.482 414.423 512.661 414.423 515.393C414.423 518.124 416.245 518.124 417.156 520.855C417.673 522.782 417.673 524.81 417.156 526.737H411.154C411.154 526.737 411.691 530.87 409.869 531.78C408.048 532.691 408.048 529.959 405.315 533.601C403.959 535.323 402.741 537.15 401.672 539.064C401.13 540.038 400.845 541.135 400.845 542.25C400.845 543.365 401.13 544.462 401.672 545.437C403.494 549.078 401.672 553.631 401.672 553.631L405.315 554.541L409.869 559.093C409.869 559.093 411.691 557.272 411.691 560.914C411.691 564.556 412.602 566.377 414.423 566.377C416.245 566.377 418.067 565.466 418.978 566.377C419.888 567.287 417.156 575.481 417.156 575.481C417.156 575.481 416.245 583.165 418.978 584.785C421.71 586.406 422.621 586.406 424.443 587.316C426.264 588.227 427.175 586.406 428.997 589.137C430.818 591.868 430.818 591.868 431.729 592.779C432.163 593.334 432.715 593.786 433.345 594.101C433.975 594.416 434.668 594.586 435.372 594.6C437.194 594.6 439.016 595.51 439.926 594.6C440.837 593.689 440.837 590.958 440.837 590.958C440.837 590.958 439.926 589.137 440.837 583.675C441.748 578.212 439.926 576.391 443.57 576.391C447.213 576.391 448.124 579.122 450.856 575.481C452.257 573.565 453.778 571.74 455.41 570.018L459.054 568.197C459.054 568.197 460.875 566.377 460.875 568.197C460.875 570.018 459.965 572.749 461.786 570.929C463.608 569.108 464.519 567.287 464.519 566.377C464.519 565.466 462.697 564.556 466.34 564.556C469.984 564.556 472.716 564.556 472.716 563.645C472.716 562.735 469.984 557.272 469.073 557.272H461.786C461.786 557.272 459.054 552.72 457.232 551.81C455.41 550.899 456.321 550.899 454.5 549.078C452.678 547.258 449.945 547.258 453.589 544.526C457.232 541.795 458.143 545.437 459.054 540.885C459.965 536.332 461.786 537.243 459.054 535.422C456.321 533.601 456.321 535.422 455.41 533.601C454.5 531.78 452.678 536.332 454.5 531.78C456.321 527.228 457.232 524.497 457.232 524.497C457.752 522.946 458.36 521.426 459.054 519.945C459.965 518.124 461.786 518.124 463.608 518.124C465.429 518.124 464.519 517.213 466.34 517.213C468.162 517.213 469.984 520.855 470.894 521.766C471.805 522.676 469.984 524.497 473.627 522.676C477.27 520.855 480.913 521.766 481.824 519.034C482.333 517.48 482.942 515.959 483.646 514.482C484.787 515.027 486.026 515.337 487.289 515.393C489.111 515.393 489.111 516.303 490.932 514.482L492.754 512.661H497.308C500.041 512.661 504.595 518.124 506.416 515.393C508.238 512.661 509.149 515.393 508.238 510.84C507.327 506.288 504.595 508.109 505.506 503.557C506.156 500.573 507.194 497.687 508.593 494.972C510.276 494.636 511.987 494.462 513.703 494.453C516.435 494.453 520.99 496.274 521.9 495.363C522.811 494.453 526.454 492.632 523.722 490.811C520.99 488.99 519.168 488.99 519.168 488.08C519.168 487.169 520.079 480.796 521.9 480.796C523.722 480.796 526.454 476.244 526.454 476.244L531.009 469.871C531.009 469.871 525.544 469.871 526.454 468.051C527.839 465.82 529.36 463.676 531.009 461.632L537.384 457.125C537.384 457.125 539.206 452.573 538.295 451.663C537.384 450.752 535.563 448.021 539.206 445.29C540.929 443.934 542.756 442.716 544.671 441.648L553.779 439.827L554.69 431.633L559.244 433.454C559.244 433.454 561.066 435.275 562.887 435.275C564.709 435.275 567.441 437.096 569.263 434.365C570.258 432.9 571.171 431.38 571.995 429.813C571.995 429.813 574.728 429.813 575.639 431.633C576.55 433.454 575.639 433.454 577.46 433.454C579.282 433.454 582.015 427.081 582.015 427.081C582.015 427.081 584.747 419.798 584.747 416.156C584.747 412.514 585.658 410.694 582.925 409.783C580.193 408.873 581.104 406.141 579.282 406.141C577.593 406.176 575.975 406.823 574.728 407.962C573.817 408.873 574.728 409.783 572.906 409.783H570.174C569.263 409.783 566.531 407.052 568.352 406.141C570.174 405.231 568.352 407.052 571.995 402.5C575.639 397.948 574.728 397.948 577.46 396.127C580.193 394.306 582.015 394.306 582.925 393.396C583.528 392.807 584.187 392.28 584.893 391.82C587.906 391.675 590.903 391.288 593.855 390.664C597.498 389.754 600.231 390.664 602.053 390.664C603.874 390.664 607.518 384.291 607.518 384.291C607.518 384.291 610.25 381.56 612.072 381.56C613.893 381.56 620.269 380.65 620.269 380.65C620.269 380.65 622.091 381.56 622.091 378.829C622.181 376.679 622.486 374.544 623.001 372.456C623.001 372.456 623.001 367.904 624.823 367.904C626.645 367.904 627.556 364.262 626.645 362.441C625.734 360.62 625.734 358.799 626.645 357.889C627.556 356.978 624.823 350.605 623.001 347.874C621.18 345.143 621.18 344.232 620.269 343.322C619.358 342.412 619.358 339.68 619.358 339.68C620.322 339.568 621.252 339.258 622.091 338.77C623.912 337.86 622.091 340.591 623.912 337.86C625.734 335.128 625.734 333.307 625.734 333.307L623.001 326.934L622.091 326.024C622.091 326.024 623.912 321.472 622.091 321.472C620.269 321.472 613.893 322.382 613.893 322.382L610.25 323.293C610.25 323.293 606.607 324.203 607.518 321.472C608.428 318.741 607.518 316.92 608.428 314.188C609.012 312.497 609.942 310.947 611.161 309.636C611.161 309.636 615.715 310.547 612.982 305.995C610.25 301.442 608.911 299.467 608.911 299.467C608.911 299.467 606.607 295.069 606.607 293.249C606.607 291.428 603.874 286.876 603.874 286.876C603.874 286.876 603.874 287.786 600.231 283.234C598.412 280.824 596.266 278.679 593.855 276.861C593.855 276.861 588.39 275.04 588.39 273.219C588.39 271.398 587.479 271.398 588.39 268.667C589.301 265.936 591.123 263.205 590.212 260.473C589.301 257.742 586.569 255.011 584.747 255.011H578.371C576.55 255.011 573.817 254.1 572.906 253.19C571.995 252.279 570.174 250.459 568.352 253.19C566.531 255.921 565.62 257.742 564.709 258.652C563.798 259.563 564.709 256.832 562.887 261.384C561.066 265.936 560.155 266.846 559.244 265.025C558.501 263.694 557.582 262.47 556.512 261.384L554.69 262.294C552.006 263.345 549.27 264.257 546.492 265.025C546.492 265.025 544.671 264.115 543.76 265.025C542.849 265.936 543.76 265.025 542.849 268.667C541.938 272.309 542.849 275.04 541.028 275.04C539.206 275.04 538.295 278.682 537.384 274.13C536.474 269.578 538.295 271.398 536.474 269.578C534.652 267.757 530.098 265.025 528.276 266.846C527.201 267.929 525.973 268.849 524.633 269.578C524.633 269.578 519.168 267.757 519.168 266.846C519.168 265.936 519.168 268.667 517.346 262.294C515.525 255.921 514.614 256.832 515.525 255.921L519.168 252.279C519.168 252.279 520.079 247.727 516.435 248.638C512.792 249.548 510.97 251.369 510.06 251.369C509.149 251.369 510.06 249.548 505.506 250.459C500.951 251.369 497.308 252.279 495.487 252.279C493.798 252.245 492.179 251.598 490.932 250.459C490.022 249.548 488.2 249.548 488.2 248.638C488.042 247.685 487.735 246.763 487.289 245.906L482.963 238.623C482.963 238.623 482.735 237.713 484.557 236.802C486.378 235.892 485.468 231.34 485.468 231.34L480.003 234.071C480.003 234.071 476.359 229.519 478.181 229.519C480.003 229.519 473.627 225.877 472.716 227.698C471.805 229.519 473.627 232.25 470.894 232.25C468.162 232.25 466.34 229.519 465.429 229.519C464.519 229.519 463.608 229.519 461.786 232.25C460.98 233.539 460.066 234.757 459.054 235.892L454.5 233.16C454.5 233.16 445.391 227.698 443.57 224.056C441.748 220.415 444.481 218.594 441.748 219.504C439.016 220.415 431.729 223.146 431.729 223.146C431.729 223.146 426.264 221.325 426.264 220.415C426.264 219.504 428.997 215.862 428.997 215.862L425.353 212.221L428.086 210.4L425.353 205.848C425.353 205.848 420.799 207.669 420.799 204.027C420.885 202.162 420.574 200.3 419.888 198.564V194.012C419.888 194.012 418.067 191.281 418.067 190.37C418.067 189.46 416.245 190.37 417.156 187.639C417.68 186.174 417.987 184.641 418.067 183.087C417.296 181.49 416.382 179.966 415.334 178.535C414.423 177.624 413.513 177.624 415.334 175.804C416.417 174.729 417.338 173.502 418.067 172.162C416.297 171.605 414.457 171.298 412.602 171.252C409.869 171.252 410.07 173.983 408.603 171.252C407.137 168.52 408.048 170.341 407.137 167.61L405.315 162.147C404.404 159.416 404.404 160.326 404.404 159.416C404.404 158.506 403.494 157.595 405.315 155.774C407.137 153.953 408.048 149.401 407.137 148.491L404.404 145.76C405.011 145.376 405.501 144.834 405.822 144.192C406.143 143.55 406.283 142.833 406.226 142.118C406.09 140.172 405.464 138.293 404.404 136.655C404.404 136.655 402.583 134.834 403.494 134.834H407.137C407.137 134.834 408.959 130.282 408.048 129.372C407.489 128.728 406.784 128.226 405.991 127.91C405.199 127.593 404.343 127.47 403.494 127.551C400.761 127.551 395.296 130.282 398.94 125.73C402.583 121.178 402.583 122.088 403.494 121.178C404.404 120.268 403.494 117.536 401.672 116.626C399.85 115.716 398.94 114.805 398.029 114.805C397.118 114.805 396.207 114.805 395.296 112.984C394.194 111.091 392.977 109.267 391.653 107.522C391.653 107.522 396.207 105.701 396.207 104.79C396.207 103.88 398.029 102.059 395.296 102.059C392.564 102.059 389.831 103.88 387.099 102.059C384.366 100.238 383.456 100.238 386.188 98.4174C388.921 96.5966 398.029 89.3132 398.029 88.4027C398.029 87.4923 397.118 82.9402 397.118 82.9402C397.118 82.9402 392.564 83.8506 393.475 82.0297L395.296 78.388L392.564 72.9255L391.653 63.8212L389.831 60.1795L392.564 58.3587L389.831 52.8961L388.01 43.7918C388.01 43.7918 386.188 37.4188 385.277 39.2397C384.366 41.0606 383.456 46.5231 383.456 46.5231H369.793C369.793 46.5231 364.328 49.2544 362.507 48.344C360.685 47.4335 355.22 47.4335 355.22 47.4335L350.666 44.7023L351.313 38.912L349.755 31.0459C349.755 31.0459 347.934 24.6729 348.844 24.6729C349.755 24.6729 347.934 20.1208 347.934 20.1208L345.201 19.2103C345.201 19.2103 344.29 22.852 342.469 21.9416C340.647 21.0312 338.033 21.9416 337.978 19.2103L337.915 16.479L335.182 14.6582C335.182 14.6582 330.628 12.8373 329.717 11.9269C328.806 11.0165 328.806 12.8373 326.985 10.1061C325.163 7.37479 325.163 5.55393 324.252 5.55393C323.341 5.55393 316.966 -0.819049 316.966 0.0913769C316.966 1.0018 312.412 5.55393 312.412 5.55393L308.768 6.46436C308.768 6.46436 300.252 10.3155 299.505 11.5719C298.758 12.8282 296.928 11.0165 296.017 13.7478C295.106 16.479 291.463 17.3895 295.106 18.2999C297.127 18.741 299.005 19.6799 300.571 21.0312L297.838 25.5833C297.838 25.5833 296.928 18.2999 296.017 25.5833C295.106 32.8667 294.195 33.7771 294.195 33.7771C294.195 33.7771 289.641 32.8667 289.641 35.598C289.641 38.3293 289.641 41.0606 288.73 42.8814C288.137 44.3264 287.828 45.8718 287.819 47.4335L281.444 40.1501L275.068 43.7918L272.335 44.7023L266.87 45.6127C266.87 45.6127 263.227 43.7918 262.316 45.6127C261.265 48.2952 260.353 51.0301 259.584 53.8065V42.8814C259.584 42.8814 261.406 36.5084 256.852 40.1501C252.297 43.7918 250.476 45.6127 250.476 45.6127C250.476 45.6127 248.654 43.7918 246.832 43.7918C245.011 43.7918 243.189 46.5231 240.457 47.4335C237.724 48.344 235.903 50.1648 237.724 52.8961C239.546 55.6274 245.011 56.5378 245.922 58.3587C246.832 60.1795 246.832 65.6421 246.832 65.6421C246.832 65.6421 245.011 69.2838 245.922 70.1942C246.832 71.1046 249.565 67.4629 248.654 71.1046C247.743 74.7463 245.922 75.6568 245.922 75.6568C245.922 75.6568 244.1 80.2089 245.011 82.0297C245.754 83.3607 246.673 84.5856 247.743 85.6714C247.743 85.6714 248.654 87.4923 245.011 91.134L239.546 96.5966C236.813 99.3278 234.992 99.3278 234.992 99.3278C234.992 99.3278 233.17 100.238 229.527 97.507C225.884 94.7757 225.884 92.0444 224.062 91.134C222.24 90.2236 220.419 91.134 218.597 90.2236C216.775 89.3132 216.775 88.4027 214.043 87.4923C211.31 86.5819 207.667 83.8506 206.756 84.761C205.846 85.6714 203.113 86.5819 202.202 89.3132C201.291 92.0444 197.648 93.8653 194.005 95.6861C190.362 97.507 189.451 98.4174 189.451 98.4174C188.906 99.5579 188.596 100.796 188.54 102.059C188.54 103.88 189.451 106.611 187.629 106.611C185.807 106.611 184.897 102.059 183.075 102.059C181.253 102.059 175.788 104.79 174.878 105.701C173.967 106.611 173.967 111.163 172.145 111.163C170.28 111.087 168.42 111.397 166.68 112.074C163.948 112.984 164.859 112.984 162.126 112.984C159.394 112.984 159.394 111.163 156.661 112.074C153.929 112.984 153.929 112.074 152.107 113.895C150.285 115.716 153.018 114.805 149.375 116.626C145.731 118.447 143.91 118.447 143.91 118.447C143.91 118.447 139.356 119.357 139.356 121.178C139.356 122.999 134.801 126.641 134.801 126.641C134.801 126.641 136.623 127.551 132.98 126.641C129.337 125.73 124.782 124.82 122.961 124.82C121.139 124.82 120.228 123.909 119.318 127.551C118.407 131.193 116.585 132.103 116.585 133.014C116.585 133.924 117.496 136.091 116.585 138.649C116.123 140.097 115.152 141.329 113.853 142.118L112.031 137.566C112.031 137.566 111.12 133.924 108.388 133.924C105.655 133.924 107.477 133.014 103.834 133.924C100.19 134.834 97.4578 135.745 95.6362 135.745C93.8146 135.745 92.9037 134.834 89.2604 134.834C85.6172 134.834 81.9739 133.014 82.8847 132.103C83.7955 131.193 81.063 128.461 81.063 128.461L75.5981 130.282C75.5981 130.282 72.8657 130.282 71.9548 128.461C71.044 126.641 71.044 123.909 69.2224 122.999C67.4007 122.088 65.5791 118.447 65.5791 118.447C65.5791 118.447 64.6683 114.805 63.7575 114.805C62.8466 114.805 60.1142 112.984 60.1142 112.984L57.3817 112.074C57.3817 112.074 49.1843 114.805 48.2735 115.716C46.9528 117.463 45.7363 119.287 44.6302 121.178C44.6302 121.178 40.9869 120.268 40.9869 119.357C40.9869 118.447 42.8086 114.914 40.9869 115.315C39.1653 115.716 30.9679 116.626 30.9679 116.626L33.7004 121.178L32.7896 125.73C32.7896 125.73 30.0571 127.014 30.9679 128.653C31.8787 130.291 32.7896 132.103 33.7004 132.103C35.235 132.317 36.7556 132.621 38.2545 133.014L40.9869 129.372C40.9869 129.372 43.7194 129.372 44.6302 130.282C45.541 131.193 44.6302 133.924 43.7194 134.834C42.8086 135.745 40.9869 140.297 40.9869 140.297C40.9869 140.297 40.0761 138.476 40.0761 143.939C40.0761 149.401 39.1653 152.133 40.9869 155.774C42.8086 159.416 44.6302 161.237 43.7194 163.058C42.8086 164.879 38.2545 166.699 38.2545 166.699L30.0571 162.147C30.0571 162.147 29.1463 164.879 27.3246 164.879C25.503 164.879 24.5922 163.058 20.9489 164.879C17.3056 166.699 12.7515 165.789 15.484 168.52C18.2164 171.252 24.5922 173.072 23.6813 174.893C22.7705 176.714 26.4138 179.445 22.7705 181.266L19.1272 183.087C19.1272 183.087 14.5731 185.818 15.484 186.729C16.3948 187.639 18.2164 188.55 18.2164 190.37C18.2164 192.191 17.3056 192.191 16.3948 194.012C15.484 195.833 15.484 196.743 18.2164 196.743C20.0717 196.79 21.9112 197.097 23.6813 197.654C22.3408 198.383 21.1135 199.303 20.0381 200.385C18.2164 202.206 26.4138 198.564 17.3056 204.027C8.19739 209.489 8.19739 204.937 6.37575 210.4C5.35508 213.588 3.462 216.426 0.910821 218.594L0 224.967L3.64328 231.34C3.64328 231.34 9.10821 234.981 7.28657 237.713C5.46493 240.444 3.64328 241.354 8.19739 244.996C12.7515 248.638 13.6623 249.548 14.5731 253.19C15.484 256.832 17.3056 255.921 17.3056 259.563C17.3056 263.205 16.3948 264.115 19.1272 265.025C21.8597 265.936 22.7705 268.667 21.8597 269.578C20.9489 270.488 20.0381 276.861 20.0381 276.861C20.0381 276.861 18.2164 273.219 18.2164 277.771C18.2164 282.324 19.1272 285.055 20.9489 285.965C22.7705 286.876 22.7705 286.876 21.8597 290.517C21.5734 291.505 21.5943 292.557 21.9197 293.532C22.245 294.508 22.8594 295.361 23.6813 295.98L27.3246 300.532C27.3246 300.532 30.9679 299.622 30.0571 305.084C29.1463 310.547 26.4138 312.368 26.4138 312.368C26.4138 312.368 20.0381 310.547 19.1272 310.547C18.2164 310.547 16.3948 309.636 15.484 312.368C14.5731 315.099 17.3056 317.83 17.3056 317.83L21.8597 320.561C21.8597 320.561 23.6813 322.382 21.8597 323.293C20.0381 324.203 20.0381 330.576 20.0381 330.576C19.5478 331.559 18.9358 332.477 18.2164 333.307C17.3056 334.218 15.484 334.218 16.3948 336.039C17.3056 337.86 17.3056 342.412 18.2164 342.412C19.1272 342.412 18.2164 346.053 18.2164 346.964C18.2164 347.874 13.6623 350.605 14.5731 353.337C15.5154 355.605 16.7394 357.747 18.2164 359.71C18.2164 359.71 15.484 361.531 15.484 363.351C15.484 365.172 16.3948 366.083 19.1272 368.814C20.9617 370.788 21.9435 373.405 21.8597 376.097C21.8199 377.372 22.1352 378.633 22.7705 379.739C23.6813 381.56 26.4138 382.47 25.503 383.381C24.5922 384.291 22.7705 387.023 26.4138 387.023H31.8787C32.7896 387.023 35.522 385.202 37.3437 385.202C39.1653 385.202 40.9869 382.47 44.6302 382.47C48.2735 382.47 50.0951 377.918 50.0951 377.918C51.9627 377.459 53.7903 376.85 55.5601 376.097C57.3817 375.187 54.6493 370.635 62.8466 373.366C71.044 376.097 69.2224 377.008 71.044 376.097C72.8657 375.187 73.7765 373.366 76.5089 377.008C78.3611 379.389 80.5029 381.529 82.8847 383.381L91.9929 385.202C94.7014 384.69 97.4818 384.69 100.19 385.202C103.834 386.112 102.923 386.112 107.477 388.843C112.031 391.575 112.031 391.575 115.674 391.575C119.318 391.575 116.585 398.858 120.228 399.769C123.872 400.679 128.426 400.679 129.337 398.858C130.247 397.037 133.891 397.037 135.712 397.948C137.534 398.858 135.712 401.589 138.445 397.948C141.177 394.306 140.266 394.306 142.999 391.575C145.731 388.843 145.731 387.023 148.464 385.202C151.196 383.381 147.553 383.381 151.196 379.739C154.84 376.097 151.196 377.008 154.84 373.366C158.483 369.724 156.661 366.993 160.304 369.724C163.948 372.456 163.948 374.277 167.591 371.545C171.234 368.814 169.413 369.724 172.145 366.993C174.878 364.262 175.788 361.531 177.61 361.531C179.432 361.531 180.343 356.068 182.164 360.62C183.986 365.172 184.897 364.262 183.075 367.904C181.253 371.545 173.967 368.814 180.343 374.277C186.718 379.739 185.807 381.56 190.362 379.739C194.916 377.918 204.935 381.56 204.935 381.56C204.935 381.56 203.113 381.56 204.024 386.112C204.935 390.664 204.024 393.396 205.846 394.306C207.667 395.216 208.578 396.127 212.221 391.575C215.865 387.023 219.508 383.381 219.508 383.381C219.508 383.381 221.329 389.754 224.973 383.381C228.616 377.008 229.527 367.904 226.794 366.993C224.062 366.083 223.151 366.993 220.419 363.351C217.686 359.71 214.043 355.158 214.043 355.158C214.043 355.158 210.4 346.053 208.578 344.232C206.756 342.412 203.113 344.232 204.024 340.591C204.935 336.949 205.846 337.86 207.667 332.397C209.489 326.934 206.756 326.024 209.489 325.114C212.221 324.203 213.132 323.293 216.775 325.114C220.419 326.934 224.973 328.755 224.973 331.487C224.973 334.218 221.329 336.039 224.062 336.949C226.794 337.86 227.705 338.77 229.527 338.77C231.392 338.846 233.252 338.536 234.992 337.86C237.724 336.949 235.903 331.487 239.546 335.128C243.189 338.77 244.1 338.77 244.1 338.77C244.1 338.77 246.832 330.576 246.832 327.845C246.832 325.114 244.1 319.651 244.1 319.651C244.1 319.651 247.743 316.009 243.189 314.188C238.635 312.368 238.635 313.278 236.813 312.368C234.992 311.457 232.259 308.726 235.903 307.815C239.546 306.905 237.724 307.815 244.1 305.995C250.476 304.174 254.119 305.084 256.852 303.263C259.584 301.442 259.693 299.312 261.46 299.467C263.227 299.622 266.87 294.159 266.87 294.159Z" fill="#ECECEC"/>
<path d="M32.3703 163.431C32.7893 163.057 34.611 172.162 34.611 172.162H40.9321C40.9321 172.162 42.8084 169.43 43.7192 171.251C44.4624 172.582 45.3815 173.807 46.4516 174.893C46.4516 174.893 42.8084 180.355 44.63 180.355C46.4516 180.355 50.0949 180.355 50.0949 181.266C50.0949 182.176 47.3625 183.997 51.9166 184.908C56.4707 185.818 60.1139 183.997 60.1139 185.818C60.1139 187.639 56.4707 189.46 60.1139 189.46C63.7572 189.46 65.9159 187.639 67.109 189.46C68.3022 191.281 67.4005 194.012 69.2222 194.012C71.0438 194.012 71.0438 192.546 69.2222 195.55C67.4005 198.555 67.4005 198.564 66.4897 203.116C65.5789 207.668 64.668 208.579 66.4897 209.489C68.3113 210.4 71.0438 211.501 70.5884 213.222C70.133 214.943 71.0438 216.782 70.5884 218.593C70.133 220.405 71.9546 220.414 72.8654 223.145C73.7763 225.877 75.5979 224.056 73.7763 227.698C71.9546 231.339 71.0438 230.784 70.5884 234.699C70.133 238.614 70.133 235.891 69.2222 238.623C68.3113 241.354 65.5789 241.354 62.8464 244.996C60.1139 248.637 61.0248 250.458 61.0248 250.458C61.0248 250.458 63.7572 250.458 62.8464 254.1C61.9356 257.742 64.668 256.831 61.0248 258.652C57.3815 260.473 52.8274 259.563 51.9166 260.473C51.0057 261.383 52.8274 262.294 48.2733 265.025C43.7192 267.756 42.8084 267.756 41.8975 267.756H39.584C38.7339 268.875 37.6608 269.805 36.4326 270.488C34.611 271.398 31.2136 271.398 30.6307 270.488C30.0478 269.577 27.3244 269.577 27.3244 268.667C27.3244 267.756 30.0569 264.333 27.3244 264.679C24.5919 265.025 20.6025 265.844 20.6025 265.844" stroke="white" stroke-miterlimit="10"/>
<path d="M114.682 141.526L121.139 147.58C121.139 147.58 118.407 149.401 122.05 151.222C125.693 153.043 122.05 154.864 126.604 156.684C131.158 158.505 135.712 153.953 133.891 159.416C132.069 164.878 128.426 166.699 131.158 170.341C133.891 173.982 135.712 174.893 139.356 175.803C142.999 176.714 143.91 178.535 143.91 178.535C143.91 178.535 149.375 179.445 148.464 183.997C147.553 188.549 146.642 187.639 146.642 192.191C146.642 196.743 144.821 204.937 144.821 204.937L138.445 202.206C138.445 202.206 131.377 197.654 135.822 204.937C140.267 212.22 141.177 214.952 141.177 214.952L145.732 220.414C145.186 221.555 144.877 222.793 144.821 224.056C144.821 225.877 150.286 225.877 150.286 225.877C150.286 225.877 154.84 224.056 156.661 224.966C158.483 225.877 160.305 226.787 160.305 230.429C160.305 234.071 159.394 233.916 160.305 236.265C161.215 238.614 164.859 240.444 166.68 241.354C168.502 242.264 167.591 244.085 169.413 244.996C171.235 245.906 169.413 247.727 167.591 249.548C165.77 251.369 163.037 249.548 163.948 253.19C164.859 256.831 170.324 251.369 164.859 256.831C159.394 262.294 159.394 259.563 159.394 262.294C159.394 265.025 162.126 266.846 163.037 267.756C163.948 268.667 166.189 267.756 169.167 267.756C172.145 267.756 175.789 263.204 177.61 264.115C179.432 265.025 175.789 274.129 181.254 265.936C186.718 257.742 186.718 256.831 188.54 256.831C190.362 256.831 194.005 255.01 198.559 256.831C200.865 257.854 203.33 258.47 205.846 258.652C205.846 258.652 206.757 254.1 212.221 257.742C217.686 261.383 214.043 259.563 218.597 261.383C223.151 263.204 224.062 262.294 225.884 265.025C227.705 267.756 225.11 268.166 229.6 269.322C234.09 270.479 234.846 271.808 237.652 269.322C240.457 266.837 238.635 268.667 242.279 265.936C245.922 263.204 246.833 266.846 247.743 259.563C248.654 252.279 247.743 253.19 248.654 251.369C249.565 249.548 254.119 245.906 254.119 245.906C254.119 245.906 246.833 241.354 245.922 240.444C245.011 239.533 245.922 238.623 245.922 236.802C245.922 234.981 238.635 232.25 238.635 230.429V224.056C238.635 222.235 242.279 221.325 237.724 220.414C233.17 219.504 234.154 218.73 231.349 217.291C229.645 216.495 228.101 215.394 226.795 214.041C225.884 213.131 230.438 212.22 225.884 212.22C221.33 212.22 217.686 212.22 214.954 210.4C212.221 208.579 211.311 210.4 209.489 207.668C207.667 204.937 210.4 203.116 207.667 202.206C205.629 201.353 203.774 200.117 202.202 198.564C201.891 197.732 201.404 196.977 200.776 196.348C200.147 195.72 199.391 195.234 198.559 194.922C197.282 194.461 196.034 193.919 194.825 193.302C194.568 193.181 194.289 193.112 194.005 193.101C193.094 193.101 191.273 190.37 189.451 193.101C187.629 195.833 187.547 197.453 184.396 198.464C181.244 199.474 179.432 200.385 176.699 200.385C173.967 200.385 169.413 200.385 166.68 201.295C163.948 202.206 157.572 202.206 157.572 202.206L148.464 200.385" stroke="white" stroke-miterlimit="10"/>
<path d="M116.585 148.491L114.682 155.064L118.407 160.326L115.674 163.422C115.674 163.422 112.942 160.326 112.031 161.237C111.12 162.147 107.477 164.878 107.477 164.878V170.496C105.99 170.907 104.463 171.161 102.923 171.251C101.984 171.234 101.059 171.481 100.254 171.964C99.4487 172.447 98.7955 173.146 98.3688 173.982L97.458 175.803C96.8736 176.059 96.2425 176.191 95.6044 176.191C94.9664 176.191 94.3353 176.059 93.7509 175.803C91.993 174.893 92.9039 172.162 90.1714 173.982C87.4389 175.803 81.974 176.714 81.974 176.714C79.4733 177.194 76.9987 177.802 74.5599 178.535C72.7691 179.305 71.234 180.568 70.1333 182.176C70.1333 182.176 67.4009 184.908 67.4009 185.818C67.4009 186.728 70.1333 191.281 70.1333 191.281" stroke="white" stroke-miterlimit="10"/>
<path d="M57.3819 263.204C57.3819 263.204 62.0271 270.988 61.0252 270.733C60.0233 270.479 57.3819 274.011 57.3819 274.521C57.3819 275.031 55.5602 274.839 57.3819 276.76C59.2035 278.681 60.1143 279.592 62.8468 279.592C65.5793 279.592 68.3117 279.592 69.2226 280.502C70.1334 281.413 73.7767 277.771 76.5091 279.592C79.2416 281.413 79.2416 284.144 81.0632 282.323C82.2704 281.004 83.1997 279.456 83.7957 277.771L88.3498 273.219C88.3498 273.219 90.299 271.899 86.1365 270.733C81.9741 269.568 77.4199 268.667 78.3308 267.756C79.2416 266.846 82.8849 266.846 85.6173 266.846C88.3498 266.846 84.7065 264.115 88.3498 266.846L91.9931 269.577L95.6364 262.294L101.101 260.473C101.101 260.473 106.566 259.563 106.566 257.742C106.519 256.75 106.844 255.776 107.477 255.01L114.682 254.391C114.682 254.391 117.496 248.929 118.407 249.247L122.05 250.458L124.783 244.996C124.783 244.996 132.98 241.354 131.158 240.444C129.337 239.533 126.604 238.623 126.604 236.802C126.604 234.981 128.426 231.339 128.426 231.339L131.158 228.608C130.942 227.058 131.032 225.48 131.423 223.965C132.069 221.325 132.069 220.414 134.802 219.504C137.534 218.593 141.642 219.504 141.642 219.504" stroke="white" stroke-miterlimit="10"/>
<path d="M88.3497 278.681C88.3497 278.681 86.528 281.704 88.3497 282.924C90.1713 284.144 94.6434 282.924 94.6434 282.924C94.6434 282.924 91.0821 287.695 92.9038 287.276C94.7254 286.857 96.2556 284.608 98.223 283.461C100.19 282.314 101.074 277.088 103.815 281.076C106.557 285.064 108.37 287.786 108.37 287.786C108.37 287.786 112.013 286.875 112.924 290.517C113.834 294.159 110.328 294.468 112.077 297.5C113.825 300.532 117.478 300.341 118.389 302.708C119.299 305.075 120.21 302.353 120.21 305.994C120.21 309.636 122.032 309.636 123.853 310.546C125.675 311.457 126.586 311.457 129.318 312.367C132.051 313.278 132.962 313.278 134.783 315.099C136.605 316.919 137.516 321.472 137.516 321.472C137.248 322.041 137.109 322.663 137.109 323.292C137.109 323.922 137.248 324.544 137.516 325.113C137.786 325.632 137.926 326.208 137.926 326.793C137.926 327.378 137.786 327.954 137.516 328.473C136.713 328.316 135.885 328.346 135.096 328.559C134.307 328.772 133.577 329.163 132.962 329.702C131.14 331.523 132.051 329.702 131.14 331.523C130.229 333.343 123.853 341.537 123.853 341.537L122.943 342.448C121.121 344.269 122.032 343.358 118.389 345.179C116.277 346.207 114.36 347.593 112.723 349.276C112.723 349.276 111.102 347.91 110.191 351.552C109.28 355.194 107.459 353.373 109.28 355.194C111.102 357.015 114.572 357.169 114.663 357.998C114.754 358.826 112.723 361.585 112.723 361.585L109.28 364.316L106.548 366.137L99.0882 364.953C99.0882 364.953 92.8855 362.495 91.9747 364.316C91.0639 366.137 89.2423 361.585 89.2423 368.868C89.2423 376.152 91.0639 377.973 91.0639 378.883C91.0639 379.793 91.9747 380.704 91.9747 381.614V382.525" stroke="white" stroke-miterlimit="10"/>
<path d="M124.782 343.322C124.782 344.232 133.89 348.784 133.89 348.784C133.89 348.784 135.612 345.671 137.934 347.227C140.257 348.784 138.463 350.596 141.642 349.686C144.82 348.775 142.999 342.402 145.731 347.865C148.464 353.327 147.553 354.238 150.285 353.327C153.018 352.417 150.795 350.159 153.728 349.922C156.661 349.686 157.891 350.159 159.102 349.922C160.313 349.686 161.907 351.743 161.561 346.617C161.215 341.492 162.126 343.313 163.037 339.671C163.948 336.029 160.304 329.656 160.304 329.656L161.215 327.835L154.839 325.104V322.373C154.839 321.462 154.839 320.552 156.661 317.821C158.483 315.089 156.661 314.179 158.483 313.269C160.304 312.358 161.215 313.269 164.858 312.358C168.502 311.448 169.412 311.448 170.323 310.537C171.234 309.627 171.234 308.716 173.056 307.806C174.877 306.896 174.877 310.537 175.788 306.896C176.326 304.811 176.632 302.674 176.699 300.523L174.877 295.06C174.877 295.06 179.431 295.797 175.788 289.051C172.145 282.305 170.323 282.314 171.234 281.404C172.145 280.493 172.145 280.493 172.145 276.852C172.145 273.21 172.081 271.161 172.081 271.161L171.234 268.667" stroke="white" stroke-miterlimit="10"/>
<path d="M163.037 326.024L169.413 322.382C169.413 322.382 172.145 326.934 172.145 327.845C172.145 328.755 174.204 323.292 174.541 327.845C174.878 332.397 174.969 330.357 177.2 329.556C179.432 328.755 179.468 324.303 180.361 325.168C181.609 326.213 182.961 327.128 184.396 327.899C185.808 328.709 187.802 328.008 189.533 327.899C191.263 327.79 190.835 324.257 193.786 325.168C196.737 326.078 199.47 325.113 200.381 325.113C201.292 325.113 201.292 325.113 204.024 323.292C206.757 321.472 210.4 316.009 210.4 316.009C210.4 316.009 214.954 314.188 216.776 314.188C218.597 314.188 219.508 315.099 221.33 313.278C223.151 311.457 221.658 310.856 224.226 311.156C226.795 311.457 226.959 310.701 228.698 311.084C229.728 311.309 230.792 311.334 231.831 311.156" stroke="white" stroke-miterlimit="10"/>
<path d="M195.134 191.281C195.134 191.281 196.737 183.997 197.648 183.997C198.559 183.997 195.134 178.999 195.134 178.999L198.559 172.162C198.559 172.162 197.475 170.341 199.379 169.886C201.282 169.43 201.838 170.341 204.753 169.886C207.667 169.43 211.31 166.699 211.31 166.699C211.31 166.699 211.31 168.52 212.221 165.789C212.983 163.094 213.591 160.358 214.043 157.595C214.043 157.595 214.043 154.864 214.954 153.953C215.865 153.043 217.686 152.132 220.419 151.222C223.151 150.311 223.88 148.491 225.792 148.491C227.705 148.491 234.081 154.864 231.349 150.311C228.616 145.759 227.705 145.759 227.705 144.849C227.705 143.938 225.173 141.844 227.805 141.526C230.438 141.207 230.438 136.655 230.438 136.655L234.081 127.551L230.438 120.267L225.884 115.715L229.527 111.163C229.527 111.163 230.438 106.611 233.17 106.611H240.111C240.111 106.611 247.743 102.059 246.832 101.148C245.922 100.238 242.278 97.5067 242.278 97.5067L239.546 99.3275" stroke="white" stroke-miterlimit="10"/>
<path d="M233.17 136.655L238.635 146.67C238.635 146.67 236.039 141.207 242.797 148.491C249.556 155.774 250.476 157.595 250.476 157.595C250.476 157.595 244.154 161.965 245.011 163.422C245.867 164.878 245.921 166.699 247.743 166.699C249.565 166.699 255.03 165.789 255.03 165.789C255.03 165.789 257.762 163.968 258.673 166.699C259.182 168.254 259.791 169.774 260.495 171.251C260.495 171.251 264.138 172.162 264.138 173.072C264.138 173.982 263.227 174.893 261.405 178.535C260.085 181.382 259.461 184.503 259.584 187.639C259.584 189.46 265.959 193.101 265.959 193.101L262.316 198.564V201.295C262.316 201.295 261.405 204.027 263.227 204.937C265.049 205.847 265.668 206.412 268.091 206.13C270.997 205.982 273.91 205.982 276.816 206.13L278.711 207.668C278.711 207.668 284.176 207.668 282.354 211.31C280.533 214.952 280.533 215.862 280.533 215.862L281.443 222.235C281.443 222.235 283.265 225.877 282.354 227.698C281.443 229.518 278.711 236.802 278.711 238.623C278.711 240.444 271.424 225.877 269.603 225.877C267.781 225.877 263.227 226.787 262.316 224.966C261.405 223.145 261.779 219.604 257.944 219.094C256.835 218.959 255.764 218.603 254.794 218.048C253.824 217.493 252.975 216.75 252.297 215.862C252.297 215.862 245.165 210.063 246.905 215.243C248.645 220.423 250.476 221.325 250.476 224.966C250.476 228.608 252.297 229.154 254.119 229.336C255.94 229.518 259.584 227.698 260.495 229.518C261.405 231.339 265.049 233.16 265.049 233.16C265.049 233.16 268.692 235.891 266.87 237.712C265.049 239.533 271.424 240.444 265.959 241.354C260.495 242.264 259.957 242.847 257.944 241.19C255.931 239.533 253.208 238.623 252.297 237.712C251.386 236.802 249.565 234.981 248.654 235.891C247.743 236.802 248.654 238.623 248.654 238.623" stroke="white" stroke-miterlimit="10"/>
<path d="M296.017 234.981L295.106 222.235C295.106 222.235 287.819 216.773 288.73 214.041C289.796 211.338 291.012 208.697 292.373 206.13C292.373 206.13 290.552 204.027 290.552 202.206C290.552 200.385 294.195 198.564 294.195 196.743C294.195 194.922 293.284 194.922 293.284 192.191V185.818C293.284 183.997 296.017 182.176 296.017 182.176C296.017 182.176 300.471 181.22 301.882 182.176C303.294 183.132 306.947 184.908 308.768 185.818C310.59 186.728 312.767 187.812 313.504 187.721C314.242 187.63 320.427 183.97 317.33 189.451C314.233 194.931 315.144 195.824 315.144 199.465C315.144 203.107 319.343 206.121 319.343 206.121L324.261 208.333C324.261 208.333 330.637 210.39 328.815 214.943C326.994 219.495 325.172 223.136 325.172 225.868C325.172 228.599 327.905 228.599 328.815 230.42C329.726 232.241 336.102 229.509 336.102 227.689C336.102 225.868 336.102 224.957 337.924 225.868C339.745 226.778 337.013 223.136 340.656 222.226C342.745 221.67 344.943 221.67 347.032 222.226C347.032 222.226 346.167 219.595 349.764 219.085C353.362 218.575 352.497 217.674 353.408 214.032C354.318 210.39 351.896 209.007 355.384 208.333C358.872 207.659 361.596 201.295 364.328 204.027C367.061 206.758 368.691 208.105 369.702 208.342C370.713 208.579 370.704 208.579 370.704 204.937C370.704 201.295 364.328 198.564 370.704 195.833C373.848 194.573 376.879 193.05 379.767 191.281C379.767 191.281 381.634 186.728 379.812 184.908C378.605 183.589 377.676 182.041 377.08 180.355C377.08 180.355 376.169 179.445 372.526 179.445C368.882 179.445 364.328 181.266 362.507 180.355C360.685 179.445 359.774 178.535 357.042 176.714C354.309 174.893 353.398 173.982 352.488 173.982C351.577 173.982 344.29 175.803 342.469 173.072C340.647 170.341 342.469 168.52 340.647 168.52C338.825 168.52 334.636 168.93 334.636 168.93L329.635 169.84C329.635 169.84 325.163 163.922 323.341 168.474C321.52 173.027 322.431 176.668 319.698 176.668C316.966 176.668 315.144 173.937 315.144 176.668V179.4L316.055 183.041" stroke="white" stroke-miterlimit="10"/>
<path d="M329.717 165.789L327.896 160.326C327.896 160.326 317.877 158.505 323.342 157.595C328.806 156.684 332.45 158.423 329.717 155.774C326.985 153.125 324.252 151.222 324.252 148.491C324.252 145.759 325.163 143.028 326.985 143.028C328.806 143.028 331.539 143.938 329.717 140.297C327.896 136.655 322.431 142.118 327.896 136.655C333.361 131.192 334.991 131.584 334.636 129.108C334.281 126.631 332.258 125.002 334.636 122.179C337.013 119.357 337.004 119.357 337.915 117.536C338.826 115.715 339.545 112.246 334.636 109.424C329.726 106.602 330.819 106.037 329.808 104.508C328.797 102.978 326.985 99.3275 326.985 99.3275C326.985 99.3275 325.163 96.5962 325.163 94.7754V91.1337" stroke="white" stroke-miterlimit="10"/>
<path d="M249.565 62C250.476 62 265.96 72.0147 269.603 81.119C273.246 90.2232 277.163 95.6858 277.937 97.5067C278.711 99.3275 277.8 99.3275 280.533 100.238C283.265 101.148 284.176 102.059 286.909 100.238C289.641 98.4171 284.404 95.6858 292.947 97.5067C301.491 99.3275 298.613 96.5962 303.249 100.238C307.885 103.88 309.697 105.7 310.608 104.79C311.519 103.88 311.874 99.4277 313.523 98.4626C315.171 97.4976 316.984 97.5067 318.806 95.6858C320.627 93.8649 323.36 91.1337 324.27 89.3128L326.092 85.6711L324.27 79.6714C324.27 79.6714 322.449 77.9689 324.27 74.0814C326.092 70.1939 325.181 69.2834 327.914 69.2834C330.646 69.2834 331.366 71.2864 334.654 69.8297C337.942 68.373 339.754 65.6417 341.576 64.7313C343.398 63.8209 340.793 60.1792 347.56 62C354.328 63.8209 353.417 63.8209 355.238 64.7313C357.06 65.6417 361.614 62 361.614 62C361.614 62 356.149 61.0896 357.06 58.3583C357.824 56.2746 359.073 54.4023 360.703 52.8958C361.267 52.2579 361.589 51.443 361.614 50.5924" stroke="white" stroke-miterlimit="10"/>
<path d="M431.729 224.966V225.877C431.729 228.608 433.551 231.339 434.461 237.712C435.372 244.085 431.729 244.996 430.818 247.727C429.907 250.458 429.907 250.458 428.086 251.369C426.264 252.279 424.442 254.1 422.621 256.831C420.799 259.563 419.888 264.115 418.067 263.204C416.245 262.294 414.423 263.204 413.513 261.383C412.602 259.563 409.869 257.742 409.869 259.563C409.869 261.383 398.939 264.115 398.566 264.233C398.192 264.351 396.207 271.398 396.207 271.398C396.207 271.398 398.939 281.413 398.566 284.144C398.192 286.875 392.564 287.786 389.613 287.312C386.662 286.839 387.099 286.875 380.614 287.312C374.129 287.749 377.99 285.054 375.258 284.144C373.043 283.46 370.906 282.544 368.882 281.413C365.239 279.592 357.952 284.144 357.169 282.924L366.15 290.517L357.169 297.5C357.169 297.5 358.198 295.679 357.169 299.467C356.14 303.254 356.131 303.263 354.309 305.084C352.488 306.905 352.488 303.263 351.577 307.815C350.666 312.367 348.844 309.636 347.023 315.099C345.201 320.561 347.023 318.321 347.023 322.173C347.023 326.024 349.755 323.292 347.023 326.024C344.29 328.755 342.769 326.288 342.614 330.712C342.459 335.137 337.914 335.128 340.647 336.949L345.201 333.307C345.201 333.307 347.578 327.225 348.216 331.177C348.68 334.598 348.89 338.049 348.844 341.501C348.844 343.322 353.398 347.874 353.398 347.874C353.398 347.874 345.201 349.695 350.666 350.605C356.131 351.516 358.863 347.874 359.774 353.336C360.685 358.799 360.685 360.62 358.863 362.441C357.042 364.262 351.577 361.53 354.309 365.172C357.042 368.814 359.774 369.724 363.417 369.724C367.061 369.724 367.817 361.421 368.8 366.483C369.784 371.545 368.882 377.918 368.882 377.918" stroke="white" stroke-miterlimit="10"/>
<path d="M326.074 244.996C326.985 244.996 334.635 242.264 334.635 242.264L333.36 237.712C333.36 237.712 329.717 237.712 327.895 238.623C326.074 239.533 326.985 233.16 326.985 233.16L328.806 230.429" stroke="white" stroke-miterlimit="10"/>
<path d="M352.488 220.414L350.666 228.608L347.314 230.429C347.314 230.429 343.379 229.518 343.379 232.25C343.379 234.981 345.975 237.712 345.975 237.712C345.975 237.712 343.598 235.846 344.855 242.264C346.112 248.683 353.398 249.548 353.398 249.548C353.398 249.548 357.953 248.637 358.863 251.369C359.774 254.1 357.953 257.742 363.417 257.742C368.882 257.742 369.939 255.921 373.054 255.921C376.169 255.921 380.495 256.504 380.614 254.856C380.732 253.208 378.901 249.548 378.901 249.548C376.447 249.507 374.004 249.202 371.615 248.637C369.328 248.01 367.265 246.747 365.667 244.996C365.667 244.996 364.246 240.444 366.578 237.712C368.91 234.981 371.624 232.25 371.624 232.25C371.624 232.25 371.624 226.787 373.446 225.877C375.267 224.966 377.089 223.145 378.911 223.145C380.732 223.145 380.732 222.235 384.375 222.235H388.93C388.93 222.235 390.751 217.683 390.751 216.773C390.751 215.862 391.662 214.952 388.019 214.041C384.375 213.131 384.375 210.991 384.375 210.991C384.375 210.991 389.84 208.579 391.662 208.579H394.996C397.127 208.579 397.3 207.322 398.575 206.13C399.85 204.937 398.949 203.116 401.681 203.116C404.414 203.116 404.414 201.295 405.324 199.474C406.235 197.654 404.414 194.922 408.057 198.564C411.7 202.206 409.878 204.937 412.611 204.937H417.165L419.897 204.027" stroke="white" stroke-miterlimit="10"/>
<path d="M459.054 235.891C458.143 237.712 464.518 245.906 460.875 246.817C457.232 247.727 452.678 251.369 452.678 251.369C451.546 251.946 450.645 252.893 450.125 254.052C449.605 255.211 449.496 256.513 449.818 257.742C450.361 260.311 451.328 262.772 452.678 265.025L455.866 270.733L450.856 278.681C450.856 278.681 453.589 283.234 453.589 284.144C453.589 285.054 452.286 283.443 453.853 287.431C455.419 291.418 459.964 289.607 458.143 293.248C456.321 296.89 457.724 293.558 454.745 297.5C451.767 301.442 455.41 301.442 450.856 302.353C446.302 303.263 446.302 302.353 441.748 303.263C437.194 304.173 431.729 303.263 430.818 303.263C429.907 303.263 429.907 304.073 429.452 303.664C428.996 303.254 427.63 299.467 427.63 299.467C427.63 299.467 419.888 295.069 418.067 294.159C416.245 293.248 412.602 291.427 412.602 290.517C412.602 289.607 408.958 287.995 412.602 287.431C414.782 287.088 416.742 285.909 418.067 284.144L417.156 275.95L415.334 272.309L419.888 269.832C419.888 269.832 417.156 267.756 417.156 266.846C417.348 265.607 417.653 264.388 418.067 263.204" stroke="white" stroke-miterlimit="10"/>
<path d="M398.566 284.144C398.566 284.144 408.048 281.413 407.137 283.234C406.226 285.054 403.402 286.174 406.18 287.431C407.876 288.199 409.655 288.767 411.481 289.124" stroke="white" stroke-miterlimit="10"/>
<path d="M429.452 303.664C429.452 303.664 425.353 307.815 429.452 310.091C430.098 310.371 430.677 310.787 431.148 311.31C431.62 311.833 431.973 312.451 432.184 313.123C432.521 314.398 432.184 315.49 432.676 316.009C433.587 316.919 430.855 320.206 432.676 320.843C434.498 321.481 433.104 322.801 436.529 324.412C439.954 326.024 441.784 324.203 443.606 324.203C445.428 324.203 446.721 329.019 444.708 330.712C442.695 332.406 439.544 335.128 441.575 336.949C443.606 338.77 449.071 337.859 449.071 337.859C449.071 337.859 453.625 337.859 454.536 341.501C455.447 345.143 453.625 344.76 454.536 347.228C455.447 349.695 457.268 348.784 460.001 349.695C462.733 350.605 462.733 348.784 463.644 353.336C464.31 356.203 465.913 358.765 468.198 360.62C468.198 360.62 472.752 365.172 470.02 367.903C467.287 370.635 465.466 368.814 465.466 374.276C465.466 379.739 464.555 381.56 464.555 381.56C460.025 382.15 455.461 382.454 450.893 382.47C443.606 382.47 443.606 382.47 438.141 384.291C432.676 386.112 425.39 386.112 425.39 386.112C425.39 386.112 415.371 386.112 412.638 387.022C409.906 387.933 409.906 384.291 409.906 384.291C409.906 384.291 414.46 377.008 415.371 375.187C416.281 373.366 419.014 366.993 416.281 365.172C413.549 363.351 409.906 362.441 409.906 360.62C409.906 358.799 408.485 357.661 411.017 355.949C413.549 354.238 411.017 349.24 411.017 349.24C411.017 349.24 405.689 350.66 405.06 347.901C404.432 345.143 403.53 342.439 403.53 342.439C403.53 342.439 398.238 337.887 398.602 336.976C398.967 336.066 402.182 330.74 402.182 330.74C402.182 330.74 402.619 323.32 406.262 327.872C409.906 332.424 409.487 330.558 411.518 324.658C413.549 318.758 412.602 317.83 414.423 316.919C416.245 316.009 415.334 316.246 419.888 316.583C424.442 316.919 429.907 313.278 429.907 313.278" stroke="white" stroke-miterlimit="10"/>
<path d="M407.137 382.47C404.404 382.47 401.809 375.187 398.548 376.097C395.287 377.008 394.385 377.008 390.742 377.918C387.099 378.828 386.188 375.187 383.456 375.187C380.723 375.187 374.347 376.097 372.526 377.008C370.704 377.918 370.704 376.097 368.882 377.918C367.061 379.739 364.328 383.381 360.685 384.291C357.042 385.201 356.932 385.493 354.255 387.168C351.577 388.843 349.755 387.933 348.844 389.753C347.934 391.574 342.469 393.395 343.379 389.753C344.29 386.112 345.001 380.03 343.279 387.168C341.558 394.306 342.268 397.629 343.279 397.783C344.29 397.938 344.29 400.214 343.379 401.817C342.469 403.419 342.551 405.103 339.736 405.167C336.922 405.231 337.687 405.103 334.599 405.167C331.511 405.231 335.146 407.052 333.324 407.962C331.502 408.872 324.006 405.185 324.006 405.185C324.006 405.185 321.729 401.498 317.958 405.185C314.188 408.872 316.055 410.693 312.412 409.783C308.768 408.872 305.125 403.41 305.125 403.41C305.125 403.41 309.679 400.679 309.679 397.037C309.679 393.395 305.699 392.63 308.595 391.647C311.492 390.664 314.588 390.955 313.505 387.168C312.421 383.381 311.501 382.47 310.59 378.828C309.679 375.187 309.679 374.276 311.501 373.366C313.322 372.455 314.588 372.237 313.505 368.704C312.421 365.172 318.232 369.242 313.505 363.114C308.777 356.987 307.857 356.068 306.947 355.157C306.036 354.247 304.214 354.247 307.857 348.784C311.501 343.322 311.856 344.086 313.505 340.518C315.153 336.949 315.144 335.128 316.055 333.307C316.966 331.486 319.698 328.755 317.876 326.024C316.055 323.292 316.41 322.382 313.505 323.292C311.352 324.079 309.32 325.16 307.466 326.506" stroke="white" stroke-miterlimit="10"/>
<path d="M320.609 327.845C320.609 327.845 328.26 332.661 330.355 330.712C332.45 328.764 331.73 330.576 332.55 327.845C333.369 325.113 334.08 324.43 334.636 322.946C335.191 321.462 339.773 327.062 339.773 327.062L342.806 329.037" stroke="white" stroke-miterlimit="10"/>
<path d="M317.029 406.232C317.029 406.232 319.698 411.604 318.787 414.335C317.876 417.066 317.029 420.826 317.029 420.826L313.504 424.404C313.504 424.404 318.924 425.233 317.029 428.438C315.925 430.229 315.277 432.264 315.144 434.364L324.252 439.827L325.163 447.11L331.703 452.373C331.819 453.86 331.819 455.355 331.703 456.843C331.539 459.856 335.182 461.677 337.914 462.588C340.647 463.498 344.044 465.774 342.805 466.912C341.567 468.05 342.805 470.408 342.805 470.408" stroke="white" stroke-miterlimit="10"/>
<path d="M245.922 423.439L256.852 427.081C256.852 427.081 264.138 428.902 264.138 426.171C264.138 423.439 259.584 419.798 264.138 423.439C268.692 427.081 270.997 427.673 270.997 427.673L275.979 422.529C275.979 422.529 278.894 425.26 280.624 424.787C282.69 424.212 284.789 423.762 286.909 423.439C288.646 423.774 290.359 424.224 292.037 424.787C292.037 424.787 294.195 425.26 293.285 428.902C292.374 432.544 291.463 429.812 292.374 432.544C293.285 435.275 296.928 437.096 296.928 437.096C296.928 437.096 300.016 432.544 301.664 432.544C303.313 432.544 305.125 434.364 306.036 434.364C306.947 434.364 306.947 433.454 309.679 432.544C311.547 432.022 313.522 432.022 315.39 432.544" stroke="white" stroke-miterlimit="10"/>
<path d="M351.349 470.408L367.061 472.602H371.615C371.615 472.602 367.061 466.229 377.991 465.319C388.92 464.408 397.254 465.911 398.548 462.888C399.841 459.865 400.761 457.125 400.761 457.125L398.548 452.819L391.653 448.021L390.742 445.289C390.742 445.289 392.892 440.455 394.094 438.316C395.296 436.176 393.611 435.466 398.548 435.366C403.485 435.266 412.666 438.316 412.666 438.316C414.453 438.486 416.252 438.486 418.039 438.316C419.861 438.006 421.437 433.172 424.306 438.316C427.175 443.46 426.264 442.558 429.907 444.379C433.551 446.2 438.105 448.021 438.105 448.021C438.218 448.384 438.403 448.72 438.649 449.01C438.896 449.3 439.198 449.537 439.538 449.707C439.879 449.877 440.25 449.977 440.629 450C441.009 450.023 441.39 449.969 441.748 449.842C444.481 448.931 449.035 446.2 450.856 449.842C452.678 453.483 450.856 455.304 451.767 458.035C452.678 460.767 458.143 454.394 453.589 463.498C449.035 472.602 449.035 475.334 449.035 475.334C449.035 475.334 443.57 474.423 439.926 478.065C436.283 481.707 432.64 479.886 428.997 481.707C425.353 483.527 425.353 485.348 422.621 486.259C419.888 487.169 419.888 486.259 418.067 488.079C416.245 489.9 415.334 489.9 414.423 489.9C413.513 489.9 410.78 485.348 410.78 483.527C410.78 481.707 404.404 476.244 404.404 476.244L406.226 468.961L403.366 464.408" stroke="white" stroke-miterlimit="10"/>
<path d="M412.602 387.022H411.108L407.137 391.074L408.048 397.037L409.869 401.589C409.869 401.589 408.958 404.32 408.048 404.32C407.137 404.32 404.14 405.03 403.366 407.407C402.592 409.783 401.408 408.872 403.366 411.148C405.324 413.425 406.226 414.335 406.226 414.335L407.446 417.248V421.901C406.121 424.223 405.377 426.831 405.279 429.503C405.354 431.468 405.205 433.435 404.832 435.366" stroke="white" stroke-miterlimit="10"/>
<path d="M449.873 448.613C449.873 448.613 449.035 440.737 449.035 439.827C449.035 438.917 446.156 431.915 449.873 432.68C453.589 433.445 458.507 438.006 458.325 439.827C458.143 441.648 463.608 442.558 463.608 442.558H467.251C467.251 442.558 469 438.917 470.894 439.827C472.789 440.737 473.545 438.917 472.233 437.096C470.922 435.275 467.807 434.528 467.087 432.625C466.367 430.723 464.682 425.806 465.074 425.078C465.466 424.35 471.213 421.254 473.8 425.078C476.387 428.902 477.817 429.184 480.294 429.503C482.771 429.821 483.609 430.095 484.101 429.503C484.791 428.902 485.556 428.394 486.378 427.991L484.957 423.203C484.957 423.203 485.467 420.517 486.378 420.153C487.289 419.788 491.843 417.977 491.843 416.156V414.335L494.803 411.194C497.093 412.378 499.45 413.427 501.862 414.335C504.595 415.245 504.595 414.335 507.327 413.425C510.06 412.514 514.304 412.068 516.736 410.01C518.502 408.719 520.623 408.004 522.811 407.962L529.187 408.872L534.415 410.01H537.147C537.147 410.01 535.563 417.066 538.295 419.798C541.027 422.529 554.134 436.64 554.134 436.64" stroke="white" stroke-miterlimit="10"/>
<path d="M556.566 432.38C556.566 432.38 559.244 420.708 560.155 421.618C561.066 422.529 562.887 422.529 563.798 422.529C564.709 422.529 565.62 420.708 564.709 417.066C564.203 415.117 563.805 413.141 563.516 411.149C563.516 411.149 563.798 404.32 565.62 404.32C567.441 404.32 566.531 402.982 565.62 400.915C564.709 398.849 559.244 390.664 559.244 390.664L556.566 385.038C555.922 384.537 555.162 384.207 554.357 384.077C553.552 383.946 552.727 384.02 551.958 384.291C549.225 385.201 551.958 387.022 548.314 385.201C544.671 383.381 543.76 383.381 541.938 381.56C540.117 379.739 539.06 377.918 538.222 377.918C537.384 377.918 537.384 374.276 537.384 374.276C537.821 372.173 538.125 370.045 538.295 367.903C538.295 366.082 538.295 361.53 540.117 360.62C541.938 359.709 544.671 355.157 543.76 354.247C542.849 353.336 543.76 353.336 543.76 353.336L545.163 345.416C545.163 345.416 552.094 346.599 552.03 345.416C551.967 344.232 553.916 342.266 552.03 340.518C550.145 338.77 550.136 337.859 549.225 336.038C548.314 334.217 548.742 331.177 548.742 331.177C545.995 331.551 543.21 331.551 540.463 331.177C537.23 330.729 534.058 329.917 531.009 328.755L525.243 326.934C525.243 326.934 525.917 325.341 523.421 322.946C522.666 322.209 521.955 321.435 521.354 320.716C520.575 319.793 519.845 318.83 519.168 317.83C519.168 317.83 519.168 311.457 520.079 310.546C520.99 309.636 523.585 309.636 525.015 310.546C526.445 311.457 529.36 311.912 529.269 309.864C529.178 307.815 534.652 293.248 535.563 292.338C536.474 291.427 543.815 285.865 543.815 285.865L539.525 275.777" stroke="white" stroke-miterlimit="10"/>
<path d="M463.608 353.336C463.608 353.336 472.716 347.874 472.716 346.053C472.716 344.232 469.073 338.77 472.716 337.859C476.359 336.949 475.139 338.77 477.571 337.859C480.003 336.949 481.824 329.665 481.824 329.665C481.824 329.665 480.003 326.024 484.557 325.113C489.111 324.203 490.022 322.382 491.843 325.113C492.335 325.893 493.003 326.547 493.795 327.022C494.586 327.496 495.477 327.778 496.397 327.845C496.397 327.845 502.773 319.651 503.684 319.651C504.595 319.651 513.384 322.946 513.384 322.946L521.381 320.716" stroke="white" stroke-miterlimit="10"/>
<path d="M455.192 459.838L462.697 460.749C462.697 460.749 456.321 463.48 460.875 465.301C464.048 466.587 467.513 466.984 470.894 466.448C472.716 466.211 479.092 468.942 479.092 468.942C481.771 470.005 484.508 470.917 487.289 471.674C490.932 472.584 494.576 468.032 494.576 472.584V477.136L499.13 480.778L502.773 483.509C502.773 483.509 506.416 486.24 506.416 488.061C506.416 489.882 504.595 492.613 504.595 494.434C504.595 496.255 507.018 498.486 507.018 498.486" stroke="white" stroke-miterlimit="10"/>
<path d="M455.411 523.286H445.118C445.118 523.286 445.765 519.07 445.118 518.142C444.472 517.213 432.64 513.59 432.64 513.59C432.64 513.59 431.729 510.858 429.908 511.769C428.086 512.679 427.321 512.679 425.426 513.59C424.679 513.945 423.714 513.399 422.785 512.679C421.346 511.651 419.989 510.321 419.606 511.532C418.978 513.544 415.189 518.033 414.806 517.159" stroke="white" stroke-miterlimit="10"/>
<path d="M420.052 486.814C420.052 486.814 424.442 493.542 423.532 495.363C422.621 497.184 421.71 498.094 424.442 499.915C427.175 501.736 428.997 501.736 427.175 505.378C425.925 507.987 424.857 510.679 423.978 513.435" stroke="white" stroke-miterlimit="10"/>
</g>
<defs>
<clipPath id="clip0_1226_2917">
<rect width="627" height="595" fill="white"/>
</clipPath>
</defs>
</svg>
