<svg width="66" height="46" viewBox="0 0 66 46" fill="none" xmlns="http://www.w3.org/2000/svg">
<path d="M64.4371 9.72709C64.2247 8.32537 63.3859 4.99034 61.8215 3.42595C60.0676 1.67207 58.3079 1.16292 56.7488 0.884044C55.2186 0.610325 41.4995 0 32.622 0C23.7445 0 10.0255 0.610325 8.49523 0.884044C6.93613 1.16292 5.17639 1.67207 3.42251 3.42595C1.85812 4.99034 1.01931 8.32537 0.806948 9.72709C0.594587 11.1288 0 20.0489 0 22.9692C0 25.8895 0.594587 34.8096 0.806948 36.2113C1.01931 37.613 1.85812 40.9481 3.42251 42.5125C5.17639 44.2663 6.93613 44.7756 8.49523 45.0544C10.0255 45.3282 23.7445 45.9385 32.622 45.9385C41.4995 45.9385 55.2186 45.3282 56.7488 45.0544C58.3079 44.7756 60.0676 44.2664 61.8215 42.5125C63.3859 40.9481 64.2247 37.613 64.4371 36.2113C64.6494 34.8096 65.244 25.8895 65.244 22.9692C65.244 20.0489 64.6494 11.1288 64.4371 9.72709ZM25.9121 32.0934V13.8451L43.4112 22.9691L25.9121 32.0934Z" fill="#D02527"/>
<path d="M25.9121 32.094L43.4112 22.9697L25.9121 13.8457V32.094Z" fill="white"/>
</svg>
