<svg width="37" height="33" viewBox="0 0 37 33" fill="none" xmlns="http://www.w3.org/2000/svg">
<path d="M0 33V24.0419C0 21.2754 0.43344 18.4212 1.30032 15.479C2.2066 12.493 3.44782 9.66068 5.02396 6.98204C6.63951 4.25948 8.47178 1.93214 10.5208 0L17.6134 4.94012C16.0373 7.70659 14.737 10.6267 13.7125 13.7006C12.7274 16.7305 12.2348 20.1557 12.2348 23.976V33H0ZM19.3866 33V24.0419C19.3866 21.2754 19.82 18.4212 20.6869 15.479C21.5932 12.493 22.8344 9.66068 24.4105 6.98204C26.0261 4.25948 27.8584 1.93214 29.9073 0L37 4.94012C35.4239 7.70659 34.1235 10.6267 33.099 13.7006C32.1139 16.7305 31.6214 20.1557 31.6214 23.976V33H19.3866Z" fill="#B21D0C"/>
</svg>
