<svg width="43" height="43" viewBox="0 0 43 43" fill="none" xmlns="http://www.w3.org/2000/svg">
<g clip-path="url(#clip0_1290_505)">
<path d="M24.4399 24.583V0.963895C24.4359 0.709437 24.328 0.466468 24.139 0.286519C23.9501 0.106571 23.6949 0.0037985 23.4277 0L19.5256 0C19.2645 0.0129541 19.0181 0.119538 18.8361 0.29834C18.6541 0.477142 18.5498 0.714916 18.5443 0.963895V1.92779H14.6114C14.3434 1.93347 14.0883 2.03785 13.8995 2.21898C13.7107 2.40011 13.6031 2.64388 13.5991 2.89904V5.71715C13.6031 5.9716 13.7111 6.21457 13.9 6.39452C14.089 6.57447 14.3441 6.67724 14.6114 6.68104H15.6313V7.65229C15.3634 7.65604 15.1074 7.75857 14.9172 7.93832C14.7269 8.11808 14.6173 8.36106 14.6114 8.61619V11.4343C14.6173 11.6901 14.7266 11.9339 14.9166 12.1148C15.1066 12.2958 15.3627 12.3999 15.6313 12.4055H18.5907V24.9141C16.8709 25.4246 15.3336 26.3795 14.1498 27.6725C12.966 28.9655 12.1822 30.5459 11.8854 32.2379C11.5887 33.9299 11.7908 35.6671 12.4691 37.2562C13.1475 38.8453 14.2755 40.2241 15.7277 41.2391C17.18 42.254 18.8995 42.8654 20.6949 43.0052C22.4903 43.145 24.2912 42.8077 25.8973 42.0309C27.5034 41.254 28.8517 40.0681 29.7921 38.605C30.7325 37.1419 31.2283 35.4591 31.2241 33.7437C31.2671 31.7274 30.6319 29.7508 29.4114 28.1027C28.1908 26.4546 26.4489 25.2213 24.4399 24.583ZM15.6313 3.78936H18.5907V4.75325H15.6313V3.78936ZM17.5785 6.53388H18.5907V7.49778H17.5785V6.53388ZM16.6435 10.2129V9.28576H18.5907V10.2497L16.6435 10.2129ZM20.5456 1.92779H22.4928V24.2813C21.846 24.2077 21.1923 24.2077 20.5456 24.2813V1.92779ZM21.4805 40.9251C19.9367 40.9265 18.4271 40.4919 17.1427 39.6762C15.8583 38.8605 14.8568 37.7003 14.265 36.3425C13.6731 34.9847 13.5174 33.4903 13.8177 32.0482C14.1179 30.6061 14.8606 29.2813 15.9517 28.2412C17.0428 27.2011 18.4334 26.4926 19.9475 26.2053C21.4615 25.9179 23.0311 26.0647 24.4575 26.6269C25.884 27.1892 27.1033 28.1417 27.9612 29.364C28.819 30.5863 29.2769 32.0234 29.2769 33.4935C29.2688 35.4608 28.4451 37.3455 26.9849 38.7373C25.5248 40.1291 23.5465 40.9154 21.4805 40.9251Z" fill="#B21D0C"/>
<path d="M21.4806 27.96C19.9293 27.96 18.4415 28.5468 17.3445 29.5914C16.2476 30.6359 15.6313 32.0527 15.6313 33.5299C15.6313 35.0072 16.2476 36.4239 17.3445 37.4685C18.4415 38.5131 19.9293 39.0999 21.4806 39.0999C21.749 39.0999 22.0065 38.9984 22.1963 38.8176C22.3862 38.6369 22.4928 38.3917 22.4928 38.136C22.4928 37.8804 22.3862 37.6352 22.1963 37.4545C22.0065 37.2737 21.749 37.1721 21.4806 37.1721C20.7056 37.1794 19.9459 36.9668 19.2983 36.5613C18.6507 36.1558 18.1446 35.5759 17.8445 34.8954C17.5444 34.215 17.4639 33.4648 17.6132 32.7406C17.7625 32.0164 18.1349 31.351 18.683 30.8291C19.231 30.3072 19.9298 29.9526 20.6903 29.8104C21.4508 29.6682 22.2386 29.7449 22.9531 30.0307C23.6677 30.3165 24.2767 30.7984 24.7025 31.4151C25.1283 32.0317 25.3517 32.7552 25.344 33.4932C25.3662 33.7352 25.4829 33.9606 25.671 34.1247C25.8591 34.2889 26.1049 34.38 26.3601 34.38C26.6153 34.38 26.8611 34.2889 27.0492 34.1247C27.2373 33.9606 27.354 33.7352 27.3762 33.4932C27.3401 32.0225 26.7048 30.6228 25.6045 29.5902C24.5043 28.5576 23.0254 27.9729 21.4806 27.96Z" fill="#B21D0C"/>
<path d="M21.4806 30.6755C20.6998 30.6813 19.953 30.9808 19.403 31.5087C18.853 32.0365 18.5444 32.75 18.5444 33.4936C18.5464 33.8607 18.6251 34.2237 18.7758 34.5616C18.9266 34.8994 19.1465 35.2053 19.4226 35.4614C19.6988 35.7175 20.0257 35.9188 20.3843 36.0534C20.743 36.188 21.1261 36.2533 21.5115 36.2455C21.9008 36.2455 22.2863 36.1723 22.6458 36.0303C23.0054 35.8882 23.332 35.6799 23.6069 35.4175C23.8818 35.155 24.0996 34.8435 24.2479 34.5007C24.3962 34.158 24.472 33.7907 24.4709 33.42C24.4701 33.0511 24.3914 32.686 24.2395 32.3466C24.0876 32.0072 23.8655 31.7004 23.5865 31.4443C23.3076 31.1883 22.9774 30.9883 22.6156 30.8562C22.2538 30.7241 21.8679 30.6627 21.4806 30.6755ZM21.4806 34.3545C21.2804 34.3545 21.0847 34.2979 20.9183 34.192C20.7518 34.0861 20.6221 33.9356 20.5455 33.7595C20.4689 33.5833 20.4488 33.3895 20.4879 33.2025C20.5269 33.0156 20.6233 32.8438 20.7649 32.709C20.9065 32.5742 21.0868 32.4824 21.2832 32.4452C21.4795 32.408 21.683 32.4271 21.868 32.5001C22.053 32.573 22.211 32.6966 22.3223 32.8551C22.4335 33.0136 22.4929 33.1999 22.4929 33.3906C22.495 33.6496 22.39 33.8989 22.2006 34.0848C22.0112 34.2707 21.7526 34.3781 21.4806 34.3839V34.3545Z" fill="#B21D0C"/>
<path d="M35.1262 7.49805H31.2241V9.35226H35.1262V7.49805Z" fill="#B21D0C"/>
<path d="M38.0854 7.49805H36.1382V9.35226H38.0854V7.49805Z" fill="#B21D0C"/>
<path d="M5.88009 28.8135H1.97803V30.6677H5.88009V28.8135Z" fill="#B21D0C"/>
<path d="M8.83926 28.8135H6.89209V30.6677H8.83926V28.8135Z" fill="#B21D0C"/>
<path d="M31.2242 0.963895C31.4265 0.96244 31.6248 1.01835 31.7937 1.12451C31.9626 1.23067 32.0945 1.38228 32.1727 1.56005C32.2508 1.73782 32.2717 1.93372 32.2326 2.1228C32.1935 2.31189 32.0962 2.48563 31.9531 2.6219C31.81 2.75817 31.6275 2.85082 31.429 2.88807C31.2304 2.92531 31.0247 2.90545 30.838 2.83103C30.6513 2.75661 30.4921 2.63098 30.3806 2.47014C30.2691 2.30929 30.2104 2.1205 30.2119 1.92779C30.214 1.67274 30.3213 1.42869 30.5106 1.24834C30.7 1.06799 30.9563 0.96582 31.2242 0.963895Z" fill="#B21D0C"/>
<path d="M40.9522 9.28616C41.1524 9.28616 41.3481 9.34269 41.5146 9.44861C41.681 9.55452 41.8107 9.70506 41.8874 9.88119C41.964 10.0573 41.984 10.2511 41.945 10.4381C41.9059 10.6251 41.8095 10.7968 41.6679 10.9316C41.5264 11.0664 41.346 11.1582 41.1497 11.1954C40.9533 11.2326 40.7498 11.2135 40.5648 11.1406C40.3799 11.0676 40.2218 10.9441 40.1106 10.7856C39.9993 10.6271 39.94 10.4407 39.94 10.2501C39.9389 10.1232 39.9644 9.99742 40.0149 9.88003C40.0654 9.76265 40.14 9.656 40.2342 9.5663C40.3283 9.47659 40.4403 9.40563 40.5636 9.35754C40.6869 9.30944 40.819 9.28518 40.9522 9.28616Z" fill="#B21D0C"/>
<path d="M37.089 34.3838C37.292 34.3854 37.4898 34.4447 37.6573 34.554C37.8247 34.6633 37.9541 34.8177 38.0288 34.9975C38.1035 35.1772 38.1203 35.3741 38.0768 35.5629C38.0333 35.7518 37.9317 35.924 37.7849 36.0575C37.6381 36.191 37.4527 36.2797 37.2526 36.3124C37.0525 36.345 36.8468 36.32 36.6617 36.2406C36.4766 36.1612 36.3205 36.0311 36.2136 35.8667C36.1066 35.7024 36.0536 35.5115 36.0613 35.3183C36.0713 35.0658 36.1843 34.8271 36.3761 34.6526C36.568 34.4781 36.8237 34.3817 37.089 34.3838Z" fill="#B21D0C"/>
<path d="M6.89234 34.3838C7.09601 34.3825 7.29543 34.4392 7.46492 34.5468C7.6344 34.6543 7.7662 34.8077 7.84333 34.9872C7.92045 35.1667 7.93938 35.3641 7.89767 35.554C7.85596 35.7438 7.75552 35.9174 7.60928 36.0524C7.46305 36.1874 7.27773 36.2776 7.07718 36.3114C6.87663 36.3452 6.67004 36.3211 6.48402 36.2421C6.298 36.1632 6.14107 36.033 6.03344 35.8683C5.92581 35.7036 5.87242 35.5121 5.88013 35.3183C5.88816 35.0678 5.99834 34.8301 6.18731 34.6556C6.37627 34.4812 6.62916 34.3837 6.89234 34.3838Z" fill="#B21D0C"/>
<path d="M10.8174 24.1338C11.0194 24.1324 11.2174 24.1881 11.3861 24.2939C11.5549 24.3997 11.6868 24.5509 11.7652 24.7283C11.8436 24.9056 11.8649 25.1011 11.8264 25.29C11.7879 25.4789 11.6914 25.6526 11.5491 25.7892C11.4067 25.9258 11.225 26.019 11.027 26.0571C10.8289 26.0952 10.6234 26.0764 10.4366 26.0031C10.2498 25.9298 10.09 25.8053 9.97762 25.6454C9.8652 25.4855 9.80518 25.2975 9.80518 25.1051C9.80517 24.8487 9.91157 24.6028 10.1012 24.4209C10.2908 24.2389 10.5482 24.1358 10.8174 24.1338Z" fill="#B21D0C"/>
<path d="M9.78215 7.42383C9.98388 7.42383 10.1811 7.48079 10.3488 7.58751C10.5165 7.69424 10.6473 7.84592 10.7245 8.0234C10.8017 8.20087 10.8219 8.39616 10.7825 8.58456C10.7431 8.77297 10.646 8.94603 10.5034 9.08186C10.3607 9.21769 10.179 9.31019 9.98113 9.34767C9.78328 9.38515 9.57821 9.36591 9.39184 9.2924C9.20547 9.21889 9.04617 9.0944 8.9341 8.93468C8.82203 8.77496 8.76221 8.58718 8.76221 8.39508C8.76221 8.26753 8.78859 8.14124 8.83985 8.0234C8.8911 7.90556 8.96623 7.79849 9.06094 7.7083C9.15565 7.61811 9.26809 7.54657 9.39184 7.49776C9.51558 7.44895 9.64821 7.42383 9.78215 7.42383Z" fill="#B21D0C"/>
<path d="M39.0281 27.96C38.4409 27.9585 37.8665 28.123 37.3775 28.4326C36.8886 28.7421 36.5071 29.1829 36.2813 29.6991C36.0555 30.2152 35.9957 30.7836 36.1093 31.3321C36.2229 31.8807 36.5049 32.3848 36.9195 32.7807C37.3342 33.1766 37.8629 33.4464 38.4386 33.5561C39.0144 33.6657 39.6114 33.6102 40.154 33.3965C40.6966 33.1829 41.1605 32.8207 41.4869 32.3559C41.8132 31.8911 41.9875 31.3446 41.9875 30.7854C41.9875 30.0373 41.6759 29.3198 41.1211 28.7901C40.5664 28.2605 39.8137 27.9619 39.0281 27.96ZM39.0281 31.639C38.8257 31.6404 38.6274 31.5845 38.4585 31.4783C38.2896 31.3722 38.1577 31.2206 38.0795 31.0428C38.0014 30.865 37.9805 30.6691 38.0196 30.48C38.0588 30.291 38.1561 30.1172 38.2992 29.981C38.4423 29.8447 38.6247 29.752 38.8233 29.7148C39.0218 29.6775 39.2276 29.6974 39.4142 29.7718C39.6009 29.8462 39.7601 29.9719 39.8716 30.1327C39.9831 30.2936 40.0418 30.4823 40.0403 30.6751C40.0344 30.9289 39.9258 31.1709 39.7373 31.3504C39.5487 31.53 39.2947 31.6333 39.0281 31.639Z" fill="#B21D0C"/>
<path d="M3.46149 9.35908C4.37137 9.35908 5.24399 9.01488 5.88738 8.40221C6.53077 7.78954 6.89222 6.95858 6.89222 6.09214C6.89222 5.22569 6.53077 4.39473 5.88738 3.78206C5.24399 3.16939 4.37137 2.8252 3.46149 2.8252C2.5516 2.8252 1.67898 3.16939 1.0356 3.78206C0.392212 4.39473 0.0307617 5.22569 0.0307617 6.09214C0.0307617 6.95858 0.392212 7.78954 1.0356 8.40221C1.67898 9.01488 2.5516 9.35908 3.46149 9.35908ZM3.46149 4.67941C3.85495 4.67941 4.2323 4.82825 4.51052 5.09318C4.78874 5.35812 4.94505 5.71746 4.94505 6.09214C4.95156 6.27899 4.91758 6.46512 4.84523 6.63893C4.77287 6.81273 4.6637 6.97047 4.52451 7.10233C4.38532 7.23418 4.2191 7.33732 4.03621 7.40531C3.85332 7.4733 3.65768 7.50469 3.46149 7.49751C3.25818 7.51151 3.05403 7.48546 2.86176 7.42099C2.66949 7.35652 2.49324 7.25502 2.344 7.1228C2.19475 6.99059 2.07572 6.83051 1.99433 6.65255C1.91294 6.47459 1.87093 6.28256 1.87093 6.08846C1.87093 5.89435 1.91294 5.70233 1.99433 5.52436C2.07572 5.3464 2.19475 5.18632 2.344 5.05411C2.49324 4.9219 2.66949 4.82039 2.86176 4.75592C3.05403 4.69145 3.25818 4.66541 3.46149 4.67941Z" fill="#B21D0C"/>
</g>
<defs>
<clipPath id="clip0_1290_505">
<rect width="43" height="43" fill="white"/>
</clipPath>
</defs>
</svg>
