<svg width="40" height="40" viewBox="0 0 40 40" fill="none" xmlns="http://www.w3.org/2000/svg">
<path d="M20 0C8.955 0 0 8.95375 0 20C0 31.0462 8.955 40 20 40C31.045 40 40 31.0462 40 20C40 8.95375 31.045 0 20 0ZM29.115 12.1825C28.7925 15.5688 27.3975 23.7825 26.6888 27.5737C26.39 29.1775 25.7975 29.715 25.2262 29.7688C23.9825 29.8838 23.0388 28.9463 21.8338 28.1588C19.9488 26.9238 18.885 26.1538 17.0575 24.9488C14.9437 23.5563 16.3125 22.79 17.515 21.5387C17.8325 21.21 23.3113 16.2288 23.4163 15.7775C23.4313 15.7213 23.4425 15.5087 23.3187 15.3975C23.19 15.2862 23.0062 15.3262 22.875 15.3537C22.6862 15.3975 19.6763 17.3887 13.8438 21.325C12.9875 21.9112 12.215 22.1963 11.5225 22.1825C10.7575 22.165 9.28874 21.75 8.19374 21.3937C6.85374 20.9587 5.78876 20.7275 5.88001 19.9887C5.92876 19.6025 6.46 19.2088 7.4725 18.8063C13.715 16.0875 17.875 14.295 19.9588 13.4275C25.9038 10.955 27.14 10.5237 27.9438 10.5112C28.1225 10.5087 28.5175 10.5525 28.7738 10.76C28.9913 10.935 29.05 11.1712 29.08 11.34C29.1075 11.5062 29.1412 11.8863 29.115 12.1825Z" fill="#00B1E0"/>
</svg>
