<svg width="41" height="40" viewBox="0 0 41 40" fill="none" xmlns="http://www.w3.org/2000/svg">
<path d="M20.3008 0C9.25578 0 0.300781 8.95375 0.300781 20C0.300781 31.0462 9.25578 40 20.3008 40C31.3458 40 40.3008 31.0462 40.3008 20C40.3008 8.95375 31.3458 0 20.3008 0ZM32.3083 25.3238C32.2283 25.8525 31.912 27.1075 31.3233 27.6963C30.6633 28.355 29.9983 28.5475 29.412 28.6538C28.8345 28.7575 23.6708 28.9875 20.327 28.9875C16.9833 28.9875 11.8183 28.7575 11.242 28.6538C10.6545 28.5475 9.99079 28.3563 9.33204 27.6963C8.74204 27.1063 8.42579 25.8513 8.34579 25.3238C8.26704 24.7963 8.04328 21.4375 8.04328 20.3375C8.04328 19.2375 8.26829 15.8788 8.34579 15.3513C8.42579 14.8225 8.74204 13.5688 9.33204 12.98C9.99079 12.32 10.6558 12.1263 11.242 12.0225C11.8183 11.9188 16.9833 11.6888 20.327 11.6888C23.6708 11.6888 28.8345 11.9188 29.412 12.0225C29.9995 12.1263 30.6633 12.3188 31.3233 12.98C31.912 13.57 32.2283 14.8238 32.3083 15.3513C32.3858 15.8788 32.6108 19.2375 32.6108 20.3375C32.6108 21.4375 32.3858 24.7963 32.3083 25.3238Z" fill="#E52117"/>
<path d="M17.5039 24.175L24.8664 20.3375L17.5039 16.5V24.175Z" fill="#E52117"/>
</svg>
