<svg width="44" height="46" viewBox="0 0 44 46" fill="none" xmlns="http://www.w3.org/2000/svg">
<path d="M42.5102 19.7538L37.1143 18.5486C36.7364 17.0915 36.1703 15.694 35.4312 14.3941L38.3206 9.5584C38.4208 9.3657 38.4608 9.14547 38.4349 8.9282C38.409 8.71093 38.3186 8.50738 38.1761 8.34573L35.4312 5.47874C35.2761 5.33118 35.0794 5.23917 34.87 5.21625C34.6606 5.19334 34.4497 5.24075 34.2683 5.35149L29.6164 8.34573C28.3611 7.5835 27.0127 6.9994 25.6074 6.60907L24.495 1.09218C24.4619 0.878057 24.3552 0.683565 24.1945 0.544605C24.0339 0.405646 23.8302 0.331599 23.621 0.336134H19.6842C19.4764 0.332871 19.2743 0.406426 19.1141 0.543607C18.954 0.680787 18.8462 0.872619 18.8102 1.08469L17.6472 6.68393C16.2351 7.06056 14.8826 7.64542 13.631 8.42059L8.96465 5.42635C8.78101 5.31852 8.56874 5.27485 8.35927 5.30182C8.14981 5.32878 7.95429 5.42494 7.80169 5.57606L5.05679 8.42059C4.91238 8.58111 4.82065 8.78483 4.7947 9.00263C4.76875 9.22043 4.80992 9.44116 4.91232 9.63326L7.80169 14.469C7.06216 15.7677 6.49827 17.1656 6.12586 18.6235L0.722746 19.8286C0.516185 19.8647 0.329218 19.9771 0.196426 20.145C0.0636341 20.3129 -0.00599903 20.5249 0.000405556 20.7419V24.8141C-0.00423283 25.0298 0.0662054 25.24 0.198841 25.4063C0.331476 25.5726 0.517446 25.6839 0.722746 25.7198L6.11863 26.925C6.49105 28.3828 7.05493 29.7807 7.79446 31.0795L4.9051 35.9152C4.80413 36.1095 4.76446 36.3317 4.79166 36.5506C4.81887 36.7694 4.9116 36.9739 5.05679 37.1354L7.83058 40.0024C7.98235 40.1547 8.17745 40.2522 8.38694 40.2805C8.59644 40.3088 8.80916 40.2664 8.99355 40.1596L13.6599 37.1653C14.9177 37.9276 16.2685 38.5117 17.6761 38.902L18.7813 44.4638C18.8173 44.6758 18.9251 44.8677 19.0853 45.0049C19.2454 45.142 19.4475 45.2156 19.6553 45.2123H23.621C23.8291 45.2171 24.032 45.1441 24.1925 45.0067C24.3529 44.8692 24.4603 44.6765 24.495 44.4638L25.6652 38.872C27.0705 38.4817 28.4189 37.8976 29.6742 37.1354L34.3405 40.1296C34.5266 40.2348 34.74 40.2762 34.9502 40.2479C35.1604 40.2197 35.3566 40.1233 35.5107 39.9724L38.2845 37.1354C38.4309 36.976 38.524 36.7721 38.55 36.5538C38.576 36.3354 38.5336 36.1142 38.4289 35.9227L35.5396 31.087C36.2733 29.7852 36.8369 28.3881 37.2154 26.9325L42.6185 25.7273C42.8244 25.6898 43.0105 25.577 43.143 25.4094C43.2756 25.2419 43.3457 25.0307 43.3409 24.8141V20.7419C43.3042 20.5137 43.2071 20.3005 43.0605 20.126C42.9138 19.9515 42.7233 19.8227 42.5102 19.7538ZM41.4122 24.0655L36.233 25.2707C36.0733 25.3082 35.9272 25.3923 35.8121 25.513C35.6969 25.6337 35.6174 25.7859 35.5829 25.9519C35.2396 27.6238 34.5951 29.2135 33.6832 30.6379C33.5783 30.7782 33.5214 30.9507 33.5214 31.1282C33.5214 31.3057 33.5783 31.4781 33.6832 31.6185L36.5292 36.3045L34.7811 38.116L30.2593 35.1667C30.1238 35.058 29.9574 34.999 29.7861 34.999C29.6149 34.999 29.4484 35.058 29.313 35.1667C27.9229 36.0811 26.3943 36.7466 24.7911 37.1354C24.6297 37.1708 24.4817 37.254 24.365 37.3749C24.2483 37.4958 24.168 37.6493 24.1338 37.8166L22.9636 43.1763H20.486L19.323 37.8166C19.288 37.6497 19.2074 37.4967 19.0909 37.3759C18.9743 37.2552 18.8267 37.1717 18.6657 37.1354C17.0515 36.7824 15.517 36.1142 14.1438 35.1667C14.0084 35.058 13.842 34.999 13.6707 34.999C13.4994 34.999 13.333 35.058 13.1976 35.1667L8.6685 38.116L6.92765 36.3045L9.77368 31.6185C9.87852 31.4781 9.93541 31.3057 9.93541 31.1282C9.93541 30.9507 9.87852 30.7782 9.77368 30.6379C8.88832 29.1989 8.24589 27.6143 7.87392 25.9519C7.8389 25.785 7.75832 25.632 7.64178 25.5113C7.52524 25.3905 7.37764 25.307 7.21659 25.2707L2.04463 24.0655V21.4905L7.22381 20.3227C7.3924 20.2805 7.54471 20.1864 7.66074 20.0528C7.77677 19.9192 7.85108 19.7523 7.87392 19.5741C8.21457 17.9014 8.85929 16.3111 9.77368 14.8881C9.87852 14.7478 9.93541 14.5753 9.93541 14.3978C9.93541 14.2203 9.87852 14.0479 9.77368 13.9075L6.92765 9.25149L8.6685 7.43997L13.1903 10.3893C13.3258 10.498 13.4922 10.5569 13.6635 10.5569C13.8348 10.5569 14.0012 10.498 14.1366 10.3893C15.5267 9.47489 17.0553 8.80936 18.6585 8.42059C18.8195 8.3843 18.9671 8.30079 19.0837 8.18002C19.2002 8.05925 19.2808 7.9063 19.3158 7.7394L20.486 2.35725H22.9636L24.1338 7.71694C24.168 7.88424 24.2483 8.03765 24.365 8.15857C24.4817 8.27949 24.6297 8.36271 24.7911 8.39813C26.3943 8.7869 27.9229 9.45243 29.313 10.3668C29.4484 10.4755 29.6149 10.5345 29.7861 10.5345C29.9574 10.5345 30.1238 10.4755 30.2593 10.3668L34.7811 7.41752L36.5292 9.22903L33.6832 13.8402C33.5783 13.9805 33.5214 14.153 33.5214 14.3305C33.5214 14.508 33.5783 14.6804 33.6832 14.8208C34.5655 16.2613 35.2078 17.8454 35.5829 19.5068C35.6182 19.6723 35.698 19.8241 35.813 19.9447C35.9281 20.0652 36.0737 20.1496 36.233 20.188L41.4122 21.3931V24.0655Z" fill="#B21D0C"/>
<path d="M21.6713 11.292C19.4792 11.289 17.3354 11.96 15.5113 13.2199C13.6872 14.4799 12.2647 16.2722 11.4238 18.3702C10.5829 20.4682 10.3614 22.7775 10.7873 25.0059C11.2132 27.2344 12.2674 29.2818 13.8165 30.8893C15.3656 32.4967 17.34 33.5918 19.4898 34.0361C21.6397 34.4804 23.8684 34.2539 25.8939 33.3852C27.9195 32.5165 29.6509 31.0447 30.8692 29.156C32.0874 27.2674 32.7376 25.0467 32.7376 22.7749C32.7385 21.2679 32.4531 19.7755 31.8974 18.3829C31.3418 16.9903 30.527 15.7247 29.4994 14.6584C28.4718 13.5921 27.2516 12.746 25.9084 12.1684C24.5653 11.5908 23.1255 11.293 21.6713 11.292ZM21.6713 32.3715C20.7526 32.3758 19.8396 32.2215 18.9698 31.9148L27.7823 22.7749C27.9064 22.6509 27.9929 22.4921 28.0313 22.318C28.0698 22.1439 28.0586 21.9619 27.999 21.7943C27.9595 21.6251 27.8673 21.4741 27.7368 21.3645C27.6063 21.255 27.4446 21.1929 27.2767 21.188L24.1417 20.7388L25.2325 18.321C25.2988 18.178 25.3296 18.0201 25.322 17.8617C25.3144 17.7033 25.2687 17.5493 25.189 17.4139C25.1093 17.2785 24.9981 17.1659 24.8657 17.0864C24.7332 17.0068 24.5837 16.9629 24.4307 16.9586H20.0966C19.9289 16.9586 19.7646 17.0078 19.6227 17.1005C19.4808 17.1933 19.3671 17.3257 19.2948 17.4826L16.0876 24.8933C16.0209 25.0358 15.9899 25.1934 15.9974 25.3515C16.0049 25.5097 16.0507 25.6633 16.1306 25.7983C16.2104 25.9333 16.3218 26.0453 16.4544 26.1239C16.5871 26.2025 16.7367 26.2453 16.8894 26.2482H19.2226L17.0556 31.0091C15.6675 30.1479 14.5216 28.9247 13.7321 27.4614C12.9426 25.9981 12.5371 24.3459 12.556 22.6695C12.575 20.9931 13.0177 19.3511 13.84 17.9074C14.6624 16.4636 15.8356 15.2686 17.2428 14.4413C18.6499 13.6141 20.2417 13.1836 21.8595 13.1928C23.4772 13.202 25.0644 13.6506 26.4626 14.4939C27.8609 15.3371 29.0214 16.5455 29.8284 17.9985C30.6353 19.4515 31.0606 21.0984 31.0618 22.7749C31.002 25.3238 29.9894 27.7491 28.2376 29.5394C26.4858 31.3297 24.1316 32.3451 21.6713 32.3715ZM20.6312 24.3619H18.298L20.7106 18.8225H22.9643L21.9458 21.0682C21.8892 21.2059 21.8635 21.3552 21.8707 21.5048C21.8779 21.6543 21.9177 21.8002 21.9873 21.9314C22.0569 22.0626 22.1543 22.1758 22.2723 22.2622C22.3902 22.3487 22.5256 22.4063 22.6682 22.4306L25.1458 22.8049L20.5517 27.5657L21.4257 25.7542C21.4888 25.6096 21.5174 25.4514 21.5091 25.293C21.5007 25.1346 21.4556 24.9806 21.3777 24.844C21.2998 24.7074 21.1912 24.5923 21.0613 24.5084C20.9313 24.4245 20.7838 24.3742 20.6312 24.3619Z" fill="#B21D0C"/>
<path d="M2.99091 38.7949C2.54374 38.7949 2.10661 38.9323 1.7348 39.1895C1.363 39.4468 1.07321 39.8125 0.902084 40.2404C0.73096 40.6683 0.686186 41.1391 0.773425 41.5933C0.860663 42.0475 1.076 42.4648 1.39219 42.7922C1.70839 43.1197 2.11125 43.3427 2.54982 43.4331C2.9884 43.5234 3.443 43.477 3.85613 43.2998C4.26926 43.1226 4.62237 42.8225 4.8708 42.4374C5.11924 42.0523 5.25184 41.5996 5.25184 41.1365C5.24993 40.5161 5.01112 39.9216 4.58752 39.4829C4.16393 39.0442 3.58996 38.7969 2.99091 38.7949ZM2.99091 41.6602C2.87745 41.6533 2.77026 41.604 2.68923 41.5214C2.6082 41.4389 2.55883 41.3287 2.55028 41.2113C2.55864 41.0931 2.60775 40.982 2.68864 40.8983C2.76953 40.8145 2.87682 40.7636 2.99091 40.755C3.10425 40.7638 3.21063 40.8149 3.29034 40.8989C3.37004 40.9828 3.41764 41.0938 3.42431 41.2113C3.41597 41.3275 3.36763 41.4367 3.28809 41.5191C3.20854 41.6015 3.10309 41.6515 2.99091 41.6602Z" fill="#B21D0C"/>
<path d="M40.321 28.4426C39.876 28.4499 39.4431 28.5931 39.0763 28.8542C38.7096 29.1153 38.4255 29.4826 38.2594 29.9102C38.0934 30.3378 38.0529 30.8067 38.143 31.258C38.2331 31.7093 38.4498 32.1231 38.766 32.4474C39.0821 32.7718 39.4837 32.9923 39.9203 33.0813C40.3569 33.1703 40.8092 33.124 41.2205 32.948C41.6318 32.772 41.9837 32.4742 42.2323 32.092C42.4809 31.7097 42.6151 31.26 42.618 30.7991C42.619 30.4875 42.5601 30.1787 42.4447 29.8909C42.3294 29.6031 42.1599 29.3419 41.9461 29.1226C41.7323 28.9032 41.4785 28.7302 41.1995 28.6134C40.9205 28.4967 40.6218 28.4386 40.321 28.4426ZM40.321 31.233C40.2075 31.2261 40.1003 31.1768 40.0193 31.0943C39.9382 31.0117 39.8889 30.9015 39.8803 30.7841C39.8723 30.7198 39.8777 30.6545 39.896 30.5925C39.9143 30.5304 39.9451 30.4732 39.9865 30.4245C40.0278 30.3758 40.0787 30.3368 40.1358 30.31C40.1928 30.2833 40.2547 30.2695 40.3173 30.2695C40.38 30.2695 40.4419 30.2833 40.4989 30.31C40.556 30.3368 40.6069 30.3758 40.6482 30.4245C40.6896 30.4732 40.7204 30.5304 40.7387 30.5925C40.757 30.6545 40.7624 30.7198 40.7544 30.7841C40.8266 31.0834 40.6099 31.233 40.321 31.233Z" fill="#B21D0C"/>
<path d="M29.8908 5.77303C30.2452 5.77402 30.5964 5.70254 30.9241 5.56271C31.2518 5.42288 31.5497 5.21743 31.8006 4.95814C32.0516 4.69885 32.2507 4.39082 32.3866 4.05168C32.5224 3.71254 32.5923 3.34896 32.5923 2.98178C32.6114 2.59758 32.5548 2.21337 32.426 1.85254C32.2972 1.4917 32.0989 1.16179 31.8432 0.882857C31.5874 0.603928 31.2796 0.381819 30.9383 0.230044C30.5971 0.0782686 30.2296 0 29.8583 0C29.4869 0 29.1195 0.0782686 28.7782 0.230044C28.437 0.381819 28.1291 0.603928 27.8734 0.882857C27.6176 1.16179 27.4193 1.4917 27.2905 1.85254C27.1617 2.21337 27.1051 2.59758 27.1242 2.98178C27.1394 3.73012 27.438 4.44227 27.9556 4.96449C28.4732 5.48671 29.1683 5.77712 29.8908 5.77303ZM29.8908 1.994C30.0113 1.99779 30.1298 2.02655 30.2394 2.07857C30.349 2.13059 30.4475 2.20483 30.5289 2.29689C30.6104 2.38896 30.6732 2.49699 30.7137 2.61462C30.7543 2.73225 30.7716 2.85709 30.7648 2.98178C30.7638 3.22881 30.6735 3.4665 30.5118 3.64796C30.35 3.82943 30.1284 3.9415 29.8908 3.96209C29.6416 3.95637 29.4041 3.85125 29.2278 3.66863C29.0515 3.48602 28.95 3.23998 28.9445 2.98178C28.9406 2.85159 28.9623 2.72192 29.0083 2.60072C29.0544 2.47951 29.1238 2.36931 29.2124 2.27685C29.301 2.18439 29.4068 2.11162 29.5234 2.06299C29.6401 2.01435 29.7651 1.99088 29.8908 1.994Z" fill="#B21D0C"/>
<path d="M40.8274 16.1324C41.0166 16.1339 41.2019 16.0769 41.3598 15.9687C41.5177 15.8605 41.641 15.7059 41.7141 15.5247C41.7872 15.3435 41.8067 15.1438 41.7701 14.9511C41.7335 14.7583 41.6426 14.5812 41.5088 14.4423C41.375 14.3034 41.2045 14.209 41.0188 14.171C40.8332 14.133 40.6409 14.1533 40.4664 14.2291C40.2919 14.305 40.143 14.4331 40.0388 14.597C39.9346 14.761 39.8797 14.9534 39.8811 15.1499C39.8782 15.2797 39.9006 15.4089 39.9471 15.5295C39.9936 15.6501 40.0632 15.7596 40.1517 15.8515C40.2401 15.9433 40.3456 16.0156 40.4618 16.0639C40.5779 16.1122 40.7023 16.1355 40.8274 16.1324Z" fill="#B21D0C"/>
<path d="M13.4864 5.77957C13.7269 5.78059 13.959 5.68795 14.1368 5.51995C14.3147 5.35195 14.4254 5.1208 14.4471 4.87217C14.4415 4.61215 14.3391 4.3645 14.1612 4.1813C13.9834 3.99809 13.7441 3.89359 13.4936 3.88977C13.3739 3.88374 13.2541 3.90253 13.1414 3.94506C13.0287 3.98759 12.9253 4.053 12.8372 4.13747C12.7491 4.22194 12.6781 4.32378 12.6284 4.43705C12.5786 4.55032 12.5511 4.67274 12.5474 4.79718C12.5528 5.05466 12.6533 5.30015 12.828 5.48296C13.0028 5.66577 13.2384 5.77195 13.4864 5.77957Z" fill="#B21D0C"/>
<path d="M4.37781 4.79876C4.61288 4.78907 4.8352 4.68524 4.99816 4.50905C5.16111 4.33286 5.25202 4.098 5.25184 3.85372C5.26021 3.59891 5.1743 3.35044 5.01176 3.15934C4.84921 2.96825 4.62236 2.84903 4.37781 2.82617C4.1246 2.84459 3.88696 2.95984 3.71084 3.14964C3.53472 3.33944 3.43263 3.5903 3.42432 3.85372C3.42617 3.98109 3.45242 4.10681 3.50154 4.22354C3.55065 4.34027 3.62165 4.44569 3.7104 4.53364C3.79914 4.6216 3.90385 4.69034 4.01844 4.73586C4.13302 4.78137 4.25518 4.80276 4.37781 4.79876Z" fill="#B21D0C"/>
<path d="M2.55125 13.2549C2.74013 13.2534 2.92518 13.3102 3.08293 13.4181C3.24068 13.526 3.36401 13.6801 3.43729 13.8609C3.51057 14.0416 3.53048 14.2409 3.49451 14.4335C3.45854 14.626 3.3683 14.8031 3.23525 14.9423C3.10219 15.0815 2.93231 15.1766 2.74716 15.2154C2.56201 15.2542 2.36992 15.235 2.19527 15.1603C2.02062 15.0856 1.87128 14.9587 1.76619 14.7958C1.66109 14.6328 1.60499 14.4411 1.60498 14.245C1.60497 13.9837 1.70444 13.733 1.88169 13.5475C2.05895 13.3621 2.29962 13.2569 2.55125 13.2549Z" fill="#B21D0C"/>
<path d="M29.8911 40.6816C29.6531 40.6843 29.4246 40.7787 29.2498 40.9463C29.0749 41.1139 28.9663 41.343 28.9448 41.589C28.9615 41.8446 29.0664 42.0854 29.2402 42.2672C29.414 42.449 29.6451 42.5597 29.8911 42.5789C30.0116 42.5751 30.1301 42.5463 30.2397 42.4942C30.3493 42.442 30.4478 42.3677 30.5292 42.2754C30.6107 42.1831 30.6735 42.0749 30.7141 41.957C30.7546 41.8391 30.7719 41.714 30.7651 41.589C30.7614 41.3496 30.6681 41.121 30.505 40.9517C30.3419 40.7823 30.1217 40.6855 29.8911 40.6816Z" fill="#B21D0C"/>
</svg>
