<svg width="52" height="43" viewBox="0 0 52 43" fill="none" xmlns="http://www.w3.org/2000/svg">
<g clip-path="url(#clip0_1299_784)">
<path fill-rule="evenodd" clip-rule="evenodd" d="M34.6559 22.5781C34.9642 22.5792 35.266 22.4888 35.5228 22.3185C35.7797 22.1482 35.9801 21.9056 36.0986 21.6215C36.2171 21.3374 36.2484 21.0245 36.1885 20.7226C36.1286 20.4207 35.9802 20.1434 35.7622 19.9258C35.5441 19.7082 35.2662 19.5601 34.9637 19.5003C34.6612 19.4405 34.3477 19.4717 34.063 19.59C33.7783 19.7083 33.5352 19.9083 33.3646 20.1646C33.1939 20.421 33.1034 20.7221 33.1045 21.0299C33.1059 21.44 33.2699 21.833 33.5605 22.123C33.8511 22.4131 34.2449 22.5767 34.6559 22.5781Z" fill="white"/>
<path fill-rule="evenodd" clip-rule="evenodd" d="M33.7183 14.5037C33.7356 14.287 33.834 14.0848 33.994 13.9374C34.1541 13.7899 34.3639 13.708 34.5816 13.708C34.7994 13.708 35.0092 13.7899 35.1692 13.9374C35.3292 14.0848 35.4277 14.287 35.445 14.5037V20.2042H39.9127C40.1298 20.2215 40.3324 20.3198 40.4802 20.4795C40.6279 20.6391 40.71 20.8485 40.71 21.0659C40.71 21.2832 40.6279 21.4926 40.4802 21.6523C40.3324 21.812 40.1298 21.9102 39.9127 21.9275H34.5844C34.3547 21.9275 34.1344 21.8364 33.9719 21.6743C33.8095 21.5122 33.7183 21.2924 33.7183 21.0631V14.5037Z" fill="#B21D0C"/>
<path fill-rule="evenodd" clip-rule="evenodd" d="M34.656 6.12728C31.2 6.12383 27.8497 7.31639 25.176 9.50177C22.5023 11.6871 20.6706 14.7301 19.993 18.1122C19.3154 21.4943 19.8338 25.0062 21.46 28.0496C23.0861 31.093 25.7193 33.4795 28.9109 34.8026C32.1025 36.1256 35.6551 36.3033 38.9632 35.3053C42.2714 34.3073 45.1305 32.1955 47.0533 29.3296C48.9762 26.4637 49.8438 23.0211 49.5084 19.5883C49.173 16.1556 47.6553 12.9451 45.2139 10.5039C43.83 9.11587 42.1848 8.01463 40.3728 7.26352C38.5609 6.51241 36.618 6.12626 34.656 6.12728ZM22.3932 8.78608C25.2308 5.95486 28.9643 4.19312 32.9576 3.80099C36.9508 3.40886 40.9568 4.41062 44.2929 6.63558C47.6291 8.86054 50.089 12.1711 51.2537 16.0031C52.4184 19.8352 52.2157 23.9517 50.6802 27.6513C49.1447 31.351 46.3713 34.4048 42.8326 36.2927C39.294 38.1805 35.2089 38.7854 31.2734 38.0045C27.3379 37.2235 23.7955 35.105 21.2497 32.0097C18.7038 28.9145 17.3121 25.0341 17.3115 21.0297C17.3082 18.7553 17.7555 16.5028 18.6276 14.4016C19.4997 12.3004 20.7794 10.392 22.3932 8.78608Z" fill="#B21D0C"/>
<path fill-rule="evenodd" clip-rule="evenodd" d="M19.2574 13.6064C19.4745 13.6237 19.6771 13.722 19.8249 13.8817C19.9726 14.0414 20.0547 14.2507 20.0547 14.4681C20.0547 14.6854 19.9726 14.8948 19.8249 15.0545C19.6771 15.2142 19.4745 15.3125 19.2574 15.3297H7.54825C7.33115 15.3125 7.12854 15.2142 6.98078 15.0545C6.83303 14.8948 6.75098 14.6854 6.75098 14.4681C6.75098 14.2507 6.83303 14.0414 6.98078 13.8817C7.12854 13.722 7.33115 13.6237 7.54825 13.6064H19.2574Z" fill="#B21D0C"/>
<path fill-rule="evenodd" clip-rule="evenodd" d="M18.1993 17.4686C18.3185 17.4591 18.4383 17.4743 18.5513 17.5133C18.6643 17.5523 18.7679 17.6142 18.8558 17.6952C18.9436 17.7761 19.0137 17.8743 19.0616 17.9836C19.1095 18.0929 19.1343 18.2109 19.1343 18.3302C19.1343 18.4495 19.1095 18.5675 19.0616 18.6768C19.0137 18.7861 18.9436 18.8843 18.8558 18.9652C18.7679 19.0462 18.6643 19.1081 18.5513 19.1471C18.4383 19.1861 18.3185 19.2013 18.1993 19.1918H6.0297C5.91054 19.2013 5.7907 19.1861 5.67772 19.1471C5.56474 19.1081 5.46108 19.0462 5.37326 18.9652C5.28543 18.8843 5.21534 18.7861 5.16741 18.6768C5.11947 18.5675 5.09473 18.4495 5.09473 18.3302C5.09473 18.2109 5.11947 18.0929 5.16741 17.9836C5.21534 17.8743 5.28543 17.7761 5.37326 17.6952C5.46108 17.6142 5.56474 17.5523 5.67772 17.5133C5.7907 17.4743 5.91054 17.4591 6.0297 17.4686H18.1993Z" fill="#20201E"/>
<path fill-rule="evenodd" clip-rule="evenodd" d="M17.4045 21.3359C17.6216 21.3532 17.8242 21.4515 17.9719 21.6112C18.1197 21.7709 18.2017 21.9802 18.2017 22.1976C18.2017 22.4149 18.1197 22.6243 17.9719 22.784C17.8242 22.9437 17.6216 23.042 17.4045 23.0592H4.50577C4.28867 23.042 4.08606 22.9437 3.9383 22.784C3.79055 22.6243 3.7085 22.4149 3.7085 22.1976C3.7085 21.9802 3.79055 21.7709 3.9383 21.6112C4.08606 21.4515 4.28867 21.3532 4.50577 21.3359H17.4045Z" fill="#B21D0C"/>
<path fill-rule="evenodd" clip-rule="evenodd" d="M18.1333 21.3357C18.2524 21.3263 18.3723 21.3415 18.4853 21.3805C18.5982 21.4195 18.7019 21.4814 18.7897 21.5624C18.8776 21.6433 18.9476 21.7415 18.9956 21.8508C19.0435 21.9601 19.0683 22.0781 19.0683 22.1974C19.0683 22.3167 19.0435 22.4347 18.9956 22.544C18.9476 22.6533 18.8776 22.7515 18.7897 22.8324C18.7019 22.9134 18.5982 22.9753 18.4853 23.0143C18.3723 23.0533 18.2524 23.0685 18.1333 23.059H8.26603C8.14687 23.0685 8.02702 23.0533 7.91405 23.0143C7.80107 22.9753 7.69741 22.9134 7.60958 22.8324C7.52176 22.7515 7.45167 22.6533 7.40374 22.544C7.3558 22.4347 7.33105 22.3167 7.33105 22.1974C7.33105 22.0781 7.3558 21.9601 7.40374 21.8508C7.45167 21.7415 7.52176 21.6433 7.60958 21.5624C7.69741 21.4814 7.80107 21.4195 7.91405 21.3805C8.02702 21.3415 8.14687 21.3263 8.26603 21.3357H18.1333Z" fill="#B21D0C"/>
<path fill-rule="evenodd" clip-rule="evenodd" d="M18.1993 17.4686C18.3185 17.4591 18.4383 17.4743 18.5513 17.5133C18.6643 17.5523 18.7679 17.6142 18.8558 17.6952C18.9436 17.7761 19.0137 17.8743 19.0616 17.9836C19.1095 18.0929 19.1343 18.2109 19.1343 18.3302C19.1343 18.4495 19.1095 18.5675 19.0616 18.6768C19.0137 18.7861 18.9436 18.8843 18.8558 18.9652C18.7679 19.0462 18.6643 19.1081 18.5513 19.1471C18.4383 19.1861 18.3185 19.2013 18.1993 19.1918H6.0297C5.91054 19.2013 5.7907 19.1861 5.67772 19.1471C5.56474 19.1081 5.46108 19.0462 5.37326 18.9652C5.28543 18.8843 5.21534 18.7861 5.16741 18.6768C5.11947 18.5675 5.09473 18.4495 5.09473 18.3302C5.09473 18.2109 5.11947 18.0929 5.16741 17.9836C5.21534 17.8743 5.28543 17.7761 5.37326 17.6952C5.46108 17.6142 5.56474 17.5523 5.67772 17.5133C5.7907 17.4743 5.91054 17.4591 6.0297 17.4686H18.1993Z" fill="#B21D0C"/>
<path fill-rule="evenodd" clip-rule="evenodd" d="M20.7266 29.0564C20.9437 29.0737 21.1463 29.172 21.2941 29.3317C21.4419 29.4914 21.5239 29.7007 21.5239 29.9181C21.5239 30.1354 21.4419 30.3448 21.2941 30.5045C21.1463 30.6642 20.9437 30.7625 20.7266 30.7797H9.0175C8.89833 30.7892 8.77849 30.774 8.66551 30.735C8.55254 30.696 8.44887 30.6341 8.36105 30.5531C8.27322 30.4722 8.20314 30.374 8.1552 30.2647C8.10727 30.1554 8.08252 30.0374 8.08252 29.9181C8.08252 29.7988 8.10727 29.6808 8.1552 29.5715C8.20314 29.4622 8.27322 29.364 8.36105 29.2831C8.44887 29.2021 8.55254 29.1402 8.66551 29.1012C8.77849 29.0622 8.89833 29.047 9.0175 29.0564H20.7266Z" fill="#B21D0C"/>
<path fill-rule="evenodd" clip-rule="evenodd" d="M18.9338 25.1941C19.053 25.1847 19.1728 25.1999 19.2858 25.2389C19.3987 25.2779 19.5024 25.3398 19.5902 25.4207C19.6781 25.5017 19.7481 25.5999 19.7961 25.7092C19.844 25.8185 19.8688 25.9365 19.8688 26.0558C19.8688 26.1751 19.844 26.2931 19.7961 26.4024C19.7481 26.5117 19.6781 26.6099 19.5902 26.6908C19.5024 26.7718 19.3987 26.8337 19.2858 26.8727C19.1728 26.9117 19.053 26.9269 18.9338 26.9174H6.7587C6.5416 26.9002 6.33899 26.8019 6.19123 26.6422C6.04348 26.4825 5.96143 26.2731 5.96143 26.0558C5.96143 25.8384 6.04348 25.6291 6.19123 25.4694C6.33899 25.3097 6.5416 25.2114 6.7587 25.1941H18.9338Z" fill="#B21D0C"/>
<path fill-rule="evenodd" clip-rule="evenodd" d="M29.2232 1.18842C29.3549 1.27499 29.4683 1.38661 29.5568 1.51691C29.6453 1.6472 29.7072 1.79362 29.7391 1.9478C29.7709 2.10198 29.7719 2.2609 29.7422 2.4155C29.7125 2.57009 29.6525 2.71733 29.5658 2.8488C29.479 2.98028 29.3672 3.09341 29.2366 3.18175C29.1061 3.27008 28.9594 3.33189 28.8049 3.36364C28.6504 3.39539 28.4911 3.39646 28.3362 3.36679C28.1813 3.33713 28.0338 3.2773 27.9021 3.19073C27.5202 2.94064 27.105 2.74542 26.6687 2.61082C25.9552 2.39774 25.2017 2.35398 24.4683 2.48301C23.7349 2.61205 23.0418 2.91033 22.4444 3.35405C21.8469 3.79778 21.3616 4.37468 21.0272 5.03875C20.6927 5.70282 20.5184 6.43569 20.5181 7.17892C20.5178 7.44631 20.538 7.71332 20.5784 7.97765C20.624 8.23771 20.69 8.4938 20.7757 8.74356C20.8272 8.89263 20.8487 9.05037 20.8391 9.20775C20.8295 9.36514 20.7889 9.51909 20.7197 9.66083C20.6505 9.80256 20.554 9.9293 20.4356 10.0338C20.3173 10.1383 20.1796 10.2185 20.0302 10.2699C19.7285 10.3736 19.3979 10.3535 19.1111 10.214C18.9691 10.1449 18.8421 10.0486 18.7373 9.93052C18.6326 9.81245 18.5522 9.67496 18.5008 9.52588C18.2397 8.77064 18.1046 7.97781 18.1006 7.17892C18.0988 5.8853 18.4482 4.61536 19.1116 3.50399C19.775 2.39263 20.7276 1.48136 21.8683 0.866983C23.0091 0.252608 24.2952 -0.0419261 25.5902 0.0146709C26.8852 0.071268 28.1406 0.476882 29.2232 1.18842Z" fill="#B21D0C"/>
<path fill-rule="evenodd" clip-rule="evenodd" d="M50.8323 9.52511C50.7881 9.68186 50.7125 9.828 50.6099 9.95459C50.5072 10.0812 50.3799 10.1856 50.2355 10.2614C50.0911 10.3372 49.9327 10.3828 49.7701 10.3955C49.6074 10.4082 49.4439 10.3877 49.2894 10.3352C49.135 10.2827 48.9929 10.1994 48.8718 10.0902C48.7508 9.98109 48.6532 9.84847 48.5852 9.70047C48.5172 9.55247 48.4802 9.39218 48.4763 9.22941C48.4724 9.06663 48.5019 8.90478 48.5628 8.75373C48.6492 8.50456 48.7134 8.24826 48.7547 7.98782C48.7978 7.72381 48.8179 7.45657 48.815 7.18909C48.814 6.44571 48.6395 5.71278 48.3051 5.04852C47.9707 4.38425 47.4857 3.80695 46.8887 3.36245C46.2916 2.91795 45.5989 2.61851 44.8656 2.4879C44.1323 2.35729 43.3786 2.39912 42.6644 2.61006C42.2204 2.74273 41.7977 2.938 41.409 3.18996C41.2773 3.27653 41.1298 3.33636 40.9749 3.36602C40.82 3.39569 40.6607 3.39462 40.5062 3.36287C40.3517 3.33112 40.205 3.26931 40.0745 3.18098C39.9439 3.09264 39.8321 2.97951 39.7453 2.84803C39.6586 2.71656 39.5986 2.56932 39.5689 2.41473C39.5392 2.26013 39.5402 2.10121 39.5721 1.94703C39.6039 1.79285 39.6658 1.64643 39.7543 1.51614C39.8428 1.38584 39.9562 1.27423 40.0879 1.18765C41.1735 0.472842 42.433 0.0654069 43.7323 0.00878298C45.0316 -0.0478409 46.322 0.248469 47.4658 0.866125C48.6097 1.48378 49.5641 2.39963 50.2275 3.51605C50.8908 4.63246 51.2381 5.90759 51.2324 7.2055C51.2357 8.005 51.1003 8.79903 50.8323 9.55246V9.52511Z" fill="#B21D0C"/>
<path fill-rule="evenodd" clip-rule="evenodd" d="M34.6558 10.3571C32.183 10.3587 29.7872 11.2159 27.8766 12.7826C25.9661 14.3493 24.6588 16.5286 24.1777 18.9493C23.6965 21.37 24.0712 23.8823 25.2378 26.0582C26.4045 28.2341 28.291 29.9391 30.5759 30.8826C32.8609 31.8261 35.4029 31.9499 37.7691 31.2328C40.1352 30.5157 42.179 29.002 43.5523 26.9498C44.9256 24.8975 45.5435 22.4335 45.3007 19.9776C45.0579 17.5217 43.9695 15.2258 42.2207 13.4809C41.2286 12.488 40.0494 11.7008 38.751 11.1647C37.4527 10.6285 36.0609 10.3541 34.6558 10.3571ZM25.3861 11.7795C27.5306 9.63783 30.3528 8.30454 33.3719 8.00681C36.391 7.70907 39.4201 8.46532 41.9431 10.1467C44.4661 11.8281 46.3268 14.3305 47.2082 17.2276C48.0896 20.1247 47.9371 23.2372 46.7768 26.0346C45.6164 28.8321 43.5199 31.1415 40.8446 32.5692C38.1693 33.997 35.0807 34.4547 32.1052 33.8645C29.1296 33.2743 26.4511 31.6726 24.5262 29.3324C22.6013 26.9922 21.5491 24.0583 21.5488 21.0306C21.5466 19.3124 21.8844 17.6106 22.5429 16.0231C23.2014 14.4355 24.1677 12.9934 25.3861 11.7795Z" fill="#B21D0C"/>
<path fill-rule="evenodd" clip-rule="evenodd" d="M23.3358 21.8835C23.1187 21.8662 22.9161 21.7679 22.7684 21.6082C22.6206 21.4485 22.5386 21.2392 22.5386 21.0218C22.5386 20.8044 22.6206 20.5951 22.7684 20.4354C22.9161 20.2757 23.1187 20.1774 23.3358 20.1602H25.238C25.4551 20.1774 25.6577 20.2757 25.8055 20.4354C25.9533 20.5951 26.0353 20.8044 26.0353 21.0218C26.0353 21.2392 25.9533 21.4485 25.8055 21.6082C25.6577 21.7679 25.4551 21.8662 25.238 21.8835H23.3358Z" fill="#B21D0C"/>
<path fill-rule="evenodd" clip-rule="evenodd" d="M44.0736 21.8835C43.8565 21.8662 43.6539 21.7679 43.5062 21.6082C43.3584 21.4485 43.2764 21.2392 43.2764 21.0218C43.2764 20.8044 43.3584 20.5951 43.5062 20.4354C43.6539 20.2757 43.8565 20.1774 44.0736 20.1602H45.9758C46.1929 20.1774 46.3955 20.2757 46.5433 20.4354C46.6911 20.5951 46.7731 20.8044 46.7731 21.0218C46.7731 21.2392 46.6911 21.4485 46.5433 21.6082C46.3955 21.7679 46.1929 21.8662 45.9758 21.8835H44.0736Z" fill="#B21D0C"/>
<path fill-rule="evenodd" clip-rule="evenodd" d="M33.7949 9.73294C33.7949 9.50514 33.8856 9.28667 34.047 9.12559C34.2084 8.96452 34.4273 8.87402 34.6556 8.87402C34.8838 8.87402 35.1027 8.96452 35.2641 9.12559C35.4255 9.28667 35.5162 9.50514 35.5162 9.73294V11.6258C35.5162 11.8536 35.4255 12.0721 35.2641 12.2332C35.1027 12.3942 34.8838 12.4847 34.6556 12.4847C34.4273 12.4847 34.2084 12.3942 34.047 12.2332C33.8856 12.0721 33.7949 11.8536 33.7949 11.6258V9.73294Z" fill="#B21D0C"/>
<path fill-rule="evenodd" clip-rule="evenodd" d="M33.7949 30.4292C33.7949 30.2014 33.8856 29.983 34.047 29.8219C34.2084 29.6608 34.4273 29.5703 34.6556 29.5703C34.8838 29.5703 35.1027 29.6608 35.2641 29.8219C35.4255 29.983 35.5162 30.2014 35.5162 30.4292V32.3221C35.5162 32.5499 35.4255 32.7684 35.2641 32.9295C35.1027 33.0905 34.8838 33.181 34.6556 33.181C34.4273 33.181 34.2084 33.0905 34.047 32.9295C33.8856 32.7684 33.7949 32.5499 33.7949 32.3221V30.4292Z" fill="#B21D0C"/>
<path fill-rule="evenodd" clip-rule="evenodd" d="M26.3672 36.5236C26.4523 36.3827 26.5654 36.2607 26.6995 36.1651C26.8337 36.0695 26.986 36.0024 27.1472 35.9679C27.3083 35.9334 27.4748 35.9322 27.6365 35.9644C27.7981 35.9966 27.9514 36.0615 28.0869 36.1552C28.2224 36.2488 28.3372 36.3692 28.4243 36.5089C28.5113 36.6485 28.5688 36.8045 28.5931 36.9672C28.6174 37.1299 28.608 37.2958 28.5655 37.4547C28.5231 37.6137 28.4484 37.7622 28.3462 37.8913C27.6792 38.8686 26.6758 39.5674 25.5266 39.8551C24.3774 40.1429 23.1623 39.9995 22.112 39.4521C21.0617 38.9047 20.2494 37.9916 19.8293 36.8859C19.4092 35.7803 19.4105 34.5592 19.8329 33.4545C20.0398 32.911 20.3424 32.4089 20.7265 31.9719C20.9366 31.7325 21.2333 31.5862 21.5515 31.5651C21.8697 31.5441 22.1832 31.6501 22.4231 31.8597C22.663 32.0694 22.8096 32.3656 22.8307 32.6831C22.8517 33.0006 22.7455 33.3135 22.5355 33.5529C22.3451 33.7762 22.1932 34.0295 22.086 34.3024C21.9876 34.5762 21.9375 34.865 21.9379 35.1559C21.9386 35.5722 22.0468 35.9814 22.252 36.3439C22.4571 36.7064 22.7525 37.0101 23.1094 37.2256C23.4664 37.4411 23.873 37.5612 24.29 37.5743C24.707 37.5874 25.1203 37.4931 25.4902 37.3004C25.8425 37.118 26.1439 36.851 26.3672 36.5236Z" fill="#B21D0C"/>
<path fill-rule="evenodd" clip-rule="evenodd" d="M46.7761 33.5522C46.6721 33.4329 46.5927 33.2944 46.5423 33.1445C46.4919 32.9945 46.4716 32.8362 46.4826 32.6785C46.4935 32.5207 46.5355 32.3667 46.6061 32.2251C46.6767 32.0836 46.7745 31.9573 46.894 31.8535C47.0135 31.7497 47.1523 31.6704 47.3025 31.6201C47.4527 31.5698 47.6114 31.5496 47.7695 31.5605C47.9275 31.5714 48.0819 31.6133 48.2237 31.6838C48.3655 31.7542 48.4921 31.8519 48.5961 31.9711C48.9801 32.4082 49.2828 32.9103 49.4896 33.4537C49.8996 34.5563 49.8924 35.7703 49.4694 36.868C49.0464 37.9657 48.2367 38.8717 47.1921 39.4161C46.1476 39.9605 44.9399 40.1059 43.7955 39.825C42.6512 39.5442 41.6488 38.8563 40.9764 37.8905C40.8742 37.7615 40.7995 37.6129 40.757 37.454C40.7146 37.2951 40.7052 37.1291 40.7295 36.9664C40.7538 36.8037 40.8112 36.6477 40.8983 36.5081C40.9854 36.3684 41.1002 36.2481 41.2357 36.1544C41.3712 36.0608 41.5245 35.9958 41.6861 35.9636C41.8477 35.9314 42.0143 35.9326 42.1754 35.9671C42.3366 36.0016 42.4889 36.0688 42.623 36.1643C42.7572 36.2599 42.8703 36.3819 42.9553 36.5228C43.1787 36.8503 43.4801 37.1172 43.8324 37.2996C44.2024 37.4936 44.6164 37.589 45.0342 37.5765C45.4519 37.5641 45.8594 37.4442 46.2172 37.2286C46.575 37.0129 46.8709 36.7087 47.0764 36.3455C47.2819 35.9822 47.3899 35.5722 47.3901 35.1551C47.3915 34.8637 47.3395 34.5744 47.2366 34.3017C47.1303 34.0258 46.9742 33.7718 46.7761 33.5522Z" fill="#B21D0C"/>
</g>
<defs>
<clipPath id="clip0_1299_784">
<rect width="52" height="43" fill="white"/>
</clipPath>
</defs>
</svg>
