<svg width="60" height="60" viewBox="0 0 60 60" fill="none" xmlns="http://www.w3.org/2000/svg">
<circle cx="30" cy="30" r="29" stroke="#B21D0C" stroke-width="2"/>
<path d="M32.9559 14.556C31.9539 14.7351 31.0039 15.1233 30.1133 15.698C29.8832 15.8473 28.4434 17.2206 26.8625 18.803C23.8121 21.8558 23.4039 22.3335 22.9215 23.4979C22.6914 24.0651 22.4465 25.0354 22.3574 25.7296L22.3129 26.0879H22.0012C20.027 26.0953 14.9727 26.3566 13.9707 26.5058C12.4789 26.7223 11.2246 27.827 10.8461 29.2601C10.6383 30.0363 10.3711 35.694 10.3711 39.3738C10.3711 42.8818 10.6234 48.547 10.8164 49.4203C11.0316 50.3757 11.7812 51.3609 12.6348 51.8162C13.2805 52.1521 13.7852 52.279 14.7129 52.3312C15.4848 52.376 15.5367 52.3685 15.6703 52.2193C15.8559 52.0103 15.8559 51.6445 15.6629 51.4505C15.5441 51.3311 15.3586 51.2863 14.8168 51.234C13.5254 51.1071 13.0875 50.928 12.5012 50.2712C11.9594 49.6666 11.8703 49.3307 11.7441 47.3751C11.4102 42.2101 11.4102 36.6345 11.7441 31.3724C11.8332 30.0438 11.8852 29.5885 12.0039 29.2675C12.2117 28.7077 12.7238 28.1628 13.2879 27.8792C13.8074 27.6254 14.5793 27.5284 17.4961 27.3493C21.7266 27.0955 29.3266 27.3642 30.3137 27.8046C31.0262 28.1181 31.6199 28.8047 31.8203 29.5288C31.9391 29.9542 32.1098 32.9473 32.2062 36.2911C32.273 38.6945 32.273 40.038 32.2062 42.4489C32.1098 45.8376 31.9391 48.7858 31.8129 49.2561C31.7016 49.6964 31.4344 50.1219 31.0559 50.4727C30.4324 51.0474 30.1727 51.1221 28.2949 51.2788C25.1629 51.5251 21.4074 51.5998 18.6094 51.4729C17.8152 51.4356 17.3328 51.443 17.2363 51.4878C16.8727 51.6744 16.8059 52.0177 17.073 52.3312C17.2438 52.5328 17.2586 52.5328 18.5426 52.5925C22.2758 52.7641 29.0297 52.5178 30.2617 52.167C31.5309 51.8013 32.5328 50.8011 32.8891 49.5248C32.993 49.159 33.0301 48.6739 33.2008 46.0316L33.2453 45.2703H38.9008C42.2555 45.2703 44.7566 45.2404 45.0684 45.1957C46.0926 45.0464 46.909 44.4418 47.3543 43.4939L47.5918 42.9938V29.8572V16.7206L47.4137 16.2727C47.1613 15.6532 46.4266 14.9068 45.8105 14.668C45.4246 14.5112 45.2094 14.4814 44.1777 14.459C43.0496 14.4366 42.9754 14.4366 42.7824 14.5933C42.5301 14.7948 42.5078 15.1755 42.7379 15.3845C42.8715 15.5039 43.0496 15.5338 44.059 15.5636C45.0461 15.601 45.2613 15.6308 45.5137 15.7652C45.8625 15.9518 46.1445 16.2429 46.3375 16.6086C46.4711 16.8624 46.4785 17.3475 46.5008 29.7079C46.5156 43.6954 46.5453 42.8594 46.1074 43.4416C45.9961 43.5834 45.7215 43.7924 45.4914 43.9044L45.0684 44.1134L39.2051 44.1358L33.3418 44.1582V39.635V35.1193H35.8059H38.2699L38.4184 34.9252C38.6262 34.6565 38.6113 34.4774 38.359 34.2161L38.1437 33.9997H35.6871H33.2305V33.4473C33.2305 33.1488 33.2082 32.7905 33.1859 32.6636L33.1414 32.4322H38.6781H44.2223L44.4004 32.2456C44.6379 32.0143 44.6453 31.6933 44.4152 31.4769L44.2445 31.3126H38.6633H33.082V30.9917C33.082 30.82 33.0598 30.4543 33.0301 30.1707L32.9855 29.6706H38.641C44.1926 29.6706 44.2891 29.6706 44.4375 29.5213C44.7195 29.2377 44.6008 28.7749 44.2074 28.6331C44.0441 28.5734 42.248 28.551 38.307 28.551H32.6516L32.4809 28.2673C32.2359 27.8792 31.7684 27.3791 31.3973 27.1254C30.7887 26.7074 30.2098 26.5432 28.8664 26.4237C27.3227 26.2894 25.1703 26.1625 24.3539 26.1625C24.0125 26.1625 23.7305 26.1476 23.7305 26.1252C23.7305 26.1028 23.7973 25.946 23.8863 25.7744C24.1312 25.2967 24.7473 24.722 25.3262 24.4383L25.8457 24.192L27.7383 24.1398C29.423 24.1024 29.6754 24.08 30.0316 23.9382C30.848 23.6173 31.4418 23.0276 31.7535 22.229C31.9094 21.8334 31.9242 21.6319 31.9688 19.9301C32.0059 18.288 32.0281 18.0193 32.1617 17.6834C32.5699 16.6683 33.3789 15.9518 34.4328 15.6681C34.7445 15.586 35.5016 15.5636 37.9508 15.5636C40.8973 15.5636 41.0902 15.5562 41.2535 15.4218C41.491 15.2278 41.491 14.7799 41.2535 14.5859C41.0902 14.4515 40.8898 14.444 37.2828 14.4515C34.5219 14.459 33.3492 14.4814 32.9559 14.556ZM31.6496 16.325C31.3676 16.7056 31.1078 17.2729 30.9742 17.8103C30.8852 18.176 30.8555 18.6612 30.8555 19.8256C30.8555 20.7063 30.8184 21.4751 30.7738 21.6468C30.6402 22.117 30.3137 22.5275 29.8758 22.7664L29.4824 22.9903L27.627 23.0351C26.4617 23.0649 25.6602 23.1172 25.4746 23.1769C25.1258 23.2814 24.5172 23.5874 24.2352 23.7815C23.9457 23.9905 23.9309 23.9606 24.1461 23.5277C24.532 22.7515 25.0219 22.1991 27.6418 19.5867C30.2172 17.0117 30.5883 16.6758 31.3379 16.2727C31.8055 16.0264 31.8648 16.0339 31.6496 16.325Z" fill="#212121"/>
<path d="M38.4627 16.7509C38.1288 16.9599 34.1432 21.0278 34.0913 21.2069C34.0245 21.4234 34.1506 21.7294 34.351 21.8339C34.4401 21.8861 34.6256 21.9085 34.7592 21.8861L35.0116 21.8414V23.9537C35.0116 26.0063 35.019 26.066 35.1674 26.2078C35.3159 26.3421 35.4866 26.3496 38.7745 26.3496H42.2256L42.4038 26.1406L42.5819 25.9316V23.9014V21.8638L42.8713 21.8936C43.1088 21.916 43.1831 21.8861 43.3166 21.7219C43.6432 21.2965 43.6432 21.2965 41.2682 18.908C39.9248 17.5645 38.9823 16.6763 38.8709 16.6464C38.7522 16.624 38.6038 16.6614 38.4627 16.7509ZM40.1549 19.3559L41.4686 20.6844L41.4538 22.9535L41.4315 25.23L38.7819 25.2524L36.1248 25.2673V22.9759V20.677L37.4385 19.3559C38.1659 18.6244 38.7745 18.0273 38.7967 18.0273C38.819 18.0273 39.4276 18.6244 40.1549 19.3559Z" fill="#212121"/>
<path d="M37.1715 20.8333C37.0305 21.0199 37.0156 21.1318 37.0156 22.3261C37.0156 23.0351 37.0453 23.6994 37.0824 23.7965C37.2012 24.11 37.4758 24.1622 38.9082 24.1324C40.6227 24.1025 40.5039 24.2368 40.5039 22.3485C40.5039 21.0348 40.4965 20.9303 40.3555 20.7885C40.2145 20.6467 40.1105 20.6392 38.7672 20.6392H37.3199L37.1715 20.8333ZM39.3906 22.3932V23.0277H38.7598H38.1289V22.3932V21.7588H38.7598H39.3906V22.3932Z" fill="#212121"/>
<path d="M18.9061 28.3716C15.7815 28.5209 14.1264 28.6702 13.7776 28.8493C13.4213 29.0359 13.0651 29.4539 12.976 29.7973C12.9092 30.0585 12.8201 31.3348 12.7014 33.5367C12.642 34.6339 12.7237 34.9847 13.1319 35.4475C13.6885 36.0969 13.0873 36.0521 21.8748 36.0521C30.3283 36.0521 29.9498 36.0745 30.4545 35.6192C30.9444 35.1863 31.0408 34.9026 31.026 33.8875C31.0112 32.6037 30.8627 30.2899 30.7662 29.8644C30.6772 29.4539 30.3654 29.0509 29.9721 28.8568C29.6529 28.6926 29.3783 28.6553 27.367 28.5135C25.942 28.4015 20.1975 28.3119 18.9061 28.3716ZM25.2666 29.5211C26.1944 29.5659 27.5303 29.648 28.2205 29.7077C29.3115 29.7973 29.4971 29.8346 29.601 29.9615C29.7272 30.1107 29.7494 30.3496 29.8904 33.0068C29.9424 33.9024 29.9424 34.4249 29.8904 34.5593C29.7272 34.9847 29.9647 34.9698 21.8748 34.9698C13.8963 34.9698 14.0596 34.9773 13.8592 34.5966C13.7776 34.4399 13.8295 32.8052 13.9854 30.7303C14.0522 29.8122 14.0225 29.8346 15.5291 29.7077C18.3494 29.4614 22.2682 29.3867 25.2666 29.5211Z" fill="#212121"/>
<path d="M42.5746 34.2163C42.4188 34.3731 42.3594 34.5074 42.3594 34.694C42.3594 34.903 42.3223 34.9627 42.1887 35.0001C41.8695 35.0822 41.4317 35.4628 41.209 35.8733C41.0235 36.2167 40.9863 36.3585 40.9863 36.8063C40.9863 37.5229 41.2313 37.9334 41.8918 38.3215L42.352 38.5902L42.3594 39.7621C42.3594 41.0981 42.3594 41.0981 41.8027 40.7548C41.4391 40.5309 41.2461 40.5234 40.9938 40.7249C40.7414 40.9265 40.7266 41.2997 40.9715 41.5161C41.1942 41.7251 41.6988 41.9789 42.0402 42.0461C42.2629 42.0908 42.3297 42.1431 42.3445 42.2849C42.3817 42.6208 42.5152 42.8596 42.7008 42.9492C42.9606 43.0686 43.057 43.0537 43.2797 42.8746C43.4356 42.7551 43.4727 42.6581 43.4727 42.4118C43.4727 42.1058 43.4875 42.0908 43.8512 41.9266C44.3188 41.7027 44.727 41.3071 44.9645 40.822C45.2094 40.3219 45.2168 39.4113 44.9793 38.956C44.7715 38.5604 44.3633 38.2021 43.866 37.9856L43.4727 37.8065V36.9482C43.4727 36.4779 43.5024 36.0898 43.532 36.0898C43.5617 36.0898 43.7176 36.157 43.8735 36.2316C44.0961 36.351 44.1926 36.3585 44.3707 36.2988C45.0313 36.0674 44.7344 35.3135 43.8586 35.0001C43.4875 34.8657 43.4727 34.8508 43.4727 34.5821C43.4727 34.3731 43.4281 34.2686 43.2797 34.1566C43.0125 33.9476 42.8344 33.9626 42.5746 34.2163ZM42.3594 36.7392L42.352 37.3214L42.211 37.1422C42.1293 37.0452 42.0625 36.9034 42.0625 36.8213C42.0625 36.6794 42.2703 36.1644 42.3297 36.1644C42.3445 36.1644 42.3594 36.4257 42.3594 36.7392ZM43.7027 39.15C43.8957 39.2545 44.0664 39.6128 44.0664 39.9114C44.0664 40.2472 43.7399 40.7846 43.532 40.7921C43.4949 40.7921 43.4727 40.404 43.4727 39.9337C43.4727 39.4635 43.4949 39.0754 43.5172 39.0754C43.5395 39.0754 43.6211 39.1127 43.7027 39.15Z" fill="#212121"/>
<path d="M14.0078 37.3507C13.4586 37.4627 12.9242 37.9031 12.7164 38.4181C12.516 38.9032 12.5605 43.0681 12.8203 47.4346C12.8945 48.6885 12.9242 48.8527 13.1023 49.2259C13.2508 49.5319 13.3844 49.6887 13.6515 49.8454C13.9633 50.0395 14.1043 50.0693 15.173 50.1589C19.2105 50.5097 24.5097 50.5172 28.5695 50.1664C29.9426 50.047 30.2617 49.9126 30.6031 49.3304C30.7887 49.0095 30.8109 48.8826 30.9 47.5614C31.1597 43.7399 31.2414 38.9032 31.0484 38.4479C30.8926 38.0747 30.4844 37.6493 30.1133 37.4776C29.7793 37.3209 29.7125 37.3209 22.0234 37.3134C17.7558 37.3059 14.1488 37.3209 14.0078 37.3507ZM16.6797 39.2988V40.1945H15.1953H13.7109V39.5003C13.7109 38.8734 13.7258 38.7838 13.8816 38.6494C14.1117 38.433 14.1859 38.4181 15.5144 38.4106L16.6797 38.4031V39.2988ZM21.2812 39.2988V40.1945L19.5594 40.1796L17.8301 40.1572L17.8078 39.3809C17.8004 38.948 17.8078 38.5524 17.8226 38.5002C17.8523 38.4255 18.2234 38.4031 19.5742 38.4031H21.2812V39.2988ZM25.8828 39.2988V40.1945L24.1609 40.1796L22.4316 40.1572L22.4094 39.3809C22.4019 38.948 22.4094 38.5524 22.4242 38.5002C22.4539 38.4255 22.825 38.4031 24.1758 38.4031H25.8828V39.2988ZM29.8609 38.6494C30.0168 38.836 30.039 38.9256 30.039 39.5302V40.1945L28.5398 40.1796L27.0332 40.1572L27.0109 39.3809C27.0035 38.948 27.0109 38.5524 27.0332 38.4927C27.0629 38.4106 27.3078 38.3957 28.3765 38.4181L29.6828 38.4405L29.8609 38.6494ZM16.7539 42.3217V43.3294H15.2324H13.7109V42.3217V41.3141H15.2324H16.7539V42.3217ZM21.2812 42.3217V43.3294H19.5742H17.8672V42.3217V41.3141H19.5742H21.2812V42.3217ZM25.8828 42.3217V43.3294H24.1387H22.3945V42.3217V41.3141H24.1387H25.8828V42.3217ZM30.039 42.0903C30.039 42.5158 30.0168 42.9711 29.9945 43.098L29.95 43.3294H28.473H26.9961V42.3217V41.3141H28.5176H30.039V42.0903ZM16.7539 45.4342V46.412L15.3363 46.3672C14.557 46.3448 13.9039 46.315 13.8965 46.3C13.889 46.2851 13.8519 45.8671 13.8222 45.3596L13.7703 44.449H15.2621H16.7539V45.4342ZM21.2812 45.4566V46.4642L19.5965 46.4493L17.9043 46.4269L17.882 45.4342L17.8597 44.449H19.5742H21.2812V45.4566ZM25.8828 45.061C25.8828 45.4044 25.8605 45.8597 25.8383 46.0687L25.7863 46.4642H24.0941H22.3945V45.4566V44.449H24.1387H25.8828V45.061ZM29.9351 45.0237C29.9129 45.3446 29.8535 46.2926 29.809 47.136C29.7273 48.5243 29.7051 48.6736 29.5566 48.8154C29.3933 48.9871 29.3562 48.9871 27.5527 49.1214L26.8847 49.1737L26.9293 47.3151C26.959 46.2926 26.9812 45.2327 26.9887 44.9491L26.9961 44.449H28.4879H29.9722L29.9351 45.0237ZM16.739 47.554C16.7984 47.5689 16.8281 47.8003 16.8281 48.3676C16.8281 49.2856 16.9988 49.1961 15.4847 49.0692C14.9355 49.0319 14.4012 48.9572 14.2824 48.9124C14.0597 48.8229 14.0375 48.7631 13.9707 47.9794L13.9262 47.442L15.2844 47.4793C16.034 47.5017 16.6871 47.5316 16.739 47.554ZM21.2812 48.4422V49.3006H20.1828C19.5742 49.3006 18.8246 49.2782 18.5129 49.2558L17.9414 49.2035V48.3974V47.5838H19.6113H21.2812V48.4422ZM25.8086 48.3078C25.8086 48.7109 25.7789 49.0841 25.7418 49.1438C25.6898 49.2259 25.3262 49.2558 24.0347 49.2856L22.3945 49.3229V48.5019C22.3945 48.0541 22.4168 47.6585 22.4465 47.6361C22.4687 47.6062 23.2406 47.5838 24.1535 47.5838H25.8086V48.3078Z" fill="#212121"/>
</svg>
