<svg width="145" height="54" viewBox="0 0 145 54" fill="none" xmlns="http://www.w3.org/2000/svg">
<path d="M109.677 2H2V38.3585H109.677V2Z" stroke="#B21D0C" stroke-width="3" stroke-miterlimit="10" stroke-linecap="round" stroke-linejoin="round"/>
<path d="M85.9041 52.3427C89.7657 52.3427 92.8962 49.2123 92.8962 45.3507C92.8962 41.4891 89.7657 38.3586 85.9041 38.3586C82.0425 38.3586 78.9121 41.4891 78.9121 45.3507C78.9121 49.2123 82.0425 52.3427 85.9041 52.3427Z" stroke="#B21D0C" stroke-width="3" stroke-miterlimit="10" stroke-linecap="round" stroke-linejoin="round"/>
<path d="M123.661 52.3427C127.523 52.3427 130.653 49.2123 130.653 45.3507C130.653 41.4891 127.523 38.3586 123.661 38.3586C119.799 38.3586 116.669 41.4891 116.669 45.3507C116.669 49.2123 119.799 52.3427 123.661 52.3427Z" stroke="#B21D0C" stroke-width="3" stroke-miterlimit="10" stroke-linecap="round" stroke-linejoin="round"/>
<path d="M21.5775 52.3427C25.4391 52.3427 28.5695 49.2123 28.5695 45.3507C28.5695 41.4891 25.4391 38.3586 21.5775 38.3586C17.7159 38.3586 14.5854 41.4891 14.5854 45.3507C14.5854 49.2123 17.7159 52.3427 21.5775 52.3427Z" stroke="#B21D0C" stroke-width="3" stroke-miterlimit="10" stroke-linecap="round" stroke-linejoin="round"/>
<path d="M39.7567 52.3427C43.6183 52.3427 46.7487 49.2123 46.7487 45.3507C46.7487 41.4891 43.6183 38.3586 39.7567 38.3586C35.8951 38.3586 32.7646 41.4891 32.7646 45.3507C32.7646 49.2123 35.8951 52.3427 39.7567 52.3427Z" stroke="#B21D0C" stroke-width="3" stroke-miterlimit="10" stroke-linecap="round" stroke-linejoin="round"/>
<path d="M133.45 49.5457H143.239" stroke="#B21D0C" stroke-width="3" stroke-miterlimit="10" stroke-linecap="round" stroke-linejoin="round"/>
<path d="M123.661 38.3584H113.872V8.99194H134.848L141.84 22.976V45.3505H130.653" stroke="#B21D0C" stroke-width="3" stroke-miterlimit="10" stroke-linecap="round" stroke-linejoin="round"/>
<path d="M6.19531 45.3506H14.5857" stroke="#B21D0C" stroke-width="3" stroke-miterlimit="10" stroke-linecap="round" stroke-linejoin="round"/>
<path d="M28.5693 45.3506H32.7645" stroke="#B21D0C" stroke-width="3" stroke-miterlimit="10" stroke-linecap="round" stroke-linejoin="round"/>
<path d="M46.749 45.3506H78.9123" stroke="#B21D0C" stroke-width="3" stroke-miterlimit="10" stroke-linecap="round" stroke-linejoin="round"/>
<path d="M112.474 42.5537H97.0918V49.5457H112.474V42.5537Z" stroke="#B21D0C" stroke-width="3" stroke-miterlimit="10" stroke-linecap="round" stroke-linejoin="round"/>
<path d="M141.84 22.9761H118.067" stroke="#B21D0C" stroke-width="3" stroke-miterlimit="10" stroke-linecap="round" stroke-linejoin="round"/>
<path d="M141.84 38.3586H134.848" stroke="#B21D0C" stroke-width="3" stroke-miterlimit="10" stroke-linecap="round" stroke-linejoin="round"/>
</svg>
