<svg width="82" height="75" viewBox="0 0 82 75" fill="none" xmlns="http://www.w3.org/2000/svg">
<line x1="1.5" y1="31.5" x2="80.5" y2="31.5" stroke="#B21D0C" stroke-width="3" stroke-miterlimit="10" stroke-linecap="round"/>
<line x1="52.5" y1="11.5" x2="52.5" y2="66.5" stroke="#B21D0C" stroke-width="3" stroke-miterlimit="10" stroke-linecap="round"/>
<path d="M2 46.2712C6.62709 44.8475 18.5187 42 29.0685 42C47.1142 42 66.895 52.678 78 52.678M9.98173 63C41.5616 46.2712 61.6895 60.9831 78 59.4407" stroke="#B21D0C" stroke-width="3" stroke-miterlimit="10" stroke-linecap="round"/>
<line x1="3.44554" y1="48.1499" x2="13.9242" y2="58.6286" stroke="#B21D0C" stroke-width="3" stroke-miterlimit="10" stroke-linecap="round"/>
<line x1="8.32005" y1="45.3501" x2="19.4987" y2="56.5288" stroke="#B21D0C" stroke-width="3" stroke-miterlimit="10" stroke-linecap="round"/>
<line x1="14.594" y1="43.9502" x2="25.7727" y2="55.1289" stroke="#B21D0C" stroke-width="3" stroke-miterlimit="10" stroke-linecap="round"/>
<line x1="21.5686" y1="43.25" x2="33.4473" y2="55.1287" stroke="#B21D0C" stroke-width="3" stroke-miterlimit="10" stroke-linecap="round"/>
<line x1="28.5427" y1="42.5498" x2="40.4214" y2="54.4285" stroke="#B21D0C" stroke-width="3" stroke-miterlimit="10" stroke-linecap="round"/>
<line x1="36.217" y1="42.5498" x2="48.7957" y2="55.1285" stroke="#B21D0C" stroke-width="3" stroke-miterlimit="10" stroke-linecap="round"/>
<line x1="45.9914" y1="44.6499" x2="57.8701" y2="56.5286" stroke="#B21D0C" stroke-width="3" stroke-miterlimit="10" stroke-linecap="round"/>
<line x1="56.4656" y1="47.4502" x2="66.9442" y2="57.9289" stroke="#B21D0C" stroke-width="3" stroke-miterlimit="10" stroke-linecap="round"/>
<line x1="67.6394" y1="50.9502" x2="74.6181" y2="57.9289" stroke="#B21D0C" stroke-width="3" stroke-miterlimit="10" stroke-linecap="round"/>
<line x1="77.4138" y1="53.0498" x2="78.0925" y2="53.7285" stroke="#B21D0C" stroke-width="3" stroke-miterlimit="10" stroke-linecap="round"/>
<circle cx="4.5" cy="36.5" r="1.5" fill="#B21D0C"/>
<circle cx="10.5" cy="40.5" r="1.5" fill="#B21D0C"/>
<circle cx="10.5" cy="35.5" r="1.5" fill="#B21D0C"/>
<circle cx="16.5" cy="38.5" r="1.5" fill="#B21D0C"/>
<circle cx="19.5" cy="35.5" r="1.5" fill="#B21D0C"/>
<circle cx="23.5" cy="39.5" r="1.5" fill="#B21D0C"/>
<circle cx="27.5" cy="35.5" r="1.5" fill="#B21D0C"/>
<circle cx="47.5" cy="6.5" r="1.5" fill="#B21D0C"/>
<ellipse cx="31" cy="39.5" rx="1" ry="1.5" fill="#B21D0C"/>
<circle cx="35.5" cy="35.5" r="1.5" fill="#B21D0C"/>
<circle cx="38" cy="40" r="1" fill="#B21D0C"/>
<ellipse cx="42.5" cy="38" rx="1.5" ry="1" fill="#B21D0C"/>
<circle cx="47.5" cy="35.5" r="1.5" fill="#B21D0C"/>
<circle cx="47.5" cy="42.5" r="1.5" fill="#B21D0C"/>
<circle cx="51.5" cy="39.5" r="1.5" fill="#B21D0C"/>
<circle cx="55.5" cy="35.5" r="1.5" fill="#B21D0C"/>
<circle cx="56.5" cy="43.5" r="1.5" fill="#B21D0C"/>
<circle cx="60.5" cy="38.5" r="1.5" fill="#B21D0C"/>
<ellipse cx="64" cy="46.5" rx="1" ry="1.5" fill="#B21D0C"/>
<circle cx="65.5" cy="40.5" r="1.5" fill="#B21D0C"/>
<ellipse cx="68.5" cy="45" rx="1.5" ry="1" fill="#B21D0C"/>
<circle cx="65.5" cy="35.5" r="1.5" fill="#B21D0C"/>
<ellipse cx="70.5" cy="38" rx="1.5" ry="1" fill="#B21D0C"/>
<circle cx="79.5" cy="46.5" r="1.5" fill="#B21D0C"/>
<circle cx="75.5" cy="35.5" r="1.5" fill="#B21D0C"/>
<circle cx="74.5" cy="42.5" r="1.5" fill="#B21D0C"/>
<ellipse cx="73" cy="48.5" rx="1" ry="1.5" fill="#B21D0C"/>
<line x1="16.5" y1="64.5" x2="23.5" y2="64.5" stroke="#B21D0C" stroke-width="3" stroke-miterlimit="10" stroke-linecap="round"/>
<line x1="30.5" y1="60.5" x2="37.5" y2="60.5" stroke="#B21D0C" stroke-width="3" stroke-miterlimit="10" stroke-linecap="round"/>
<line x1="30.5" y1="67.5" x2="37.5" y2="67.5" stroke="#B21D0C" stroke-width="3" stroke-miterlimit="10" stroke-linecap="round"/>
<line x1="44.5" y1="64.5" x2="51.5" y2="64.5" stroke="#B21D0C" stroke-width="3" stroke-miterlimit="10" stroke-linecap="round"/>
<line x1="52.5" y1="59.5" x2="60.5" y2="59.5" stroke="#B21D0C" stroke-width="3" stroke-miterlimit="10" stroke-linecap="round"/>
<line x1="52.5" y1="70.5" x2="60.5" y2="70.5" stroke="#B21D0C" stroke-width="3" stroke-miterlimit="10" stroke-linecap="round"/>
<line x1="66.5" y1="65.5" x2="73.5" y2="65.5" stroke="#B21D0C" stroke-width="3" stroke-miterlimit="10" stroke-linecap="round"/>
<line x1="36.5" y1="73.5" x2="44.5" y2="73.5" stroke="#B21D0C" stroke-width="3" stroke-miterlimit="10" stroke-linecap="round"/>
<line x1="41.3707" y1="29.093" x2="47.3928" y2="11.6291" stroke="#B21D0C" stroke-width="3" stroke-miterlimit="10" stroke-linecap="round"/>
<line x1="63.4654" y1="29.4293" x2="56.8294" y2="11.9343" stroke="#B21D0C" stroke-width="3" stroke-miterlimit="10" stroke-linecap="round"/>
<rect x="43" y="2" width="17" height="9" stroke="#B21D0C" stroke-width="3" stroke-miterlimit="10" stroke-linecap="round" stroke-linejoin="round"/>
</svg>
