<svg width="21" height="17" viewBox="0 0 21 17" fill="none" xmlns="http://www.w3.org/2000/svg">
<path fill-rule="evenodd" clip-rule="evenodd" d="M0.219473 1.0909C0.147726 0.581138 0.585775 0.113364 1.09756 0.170982C2.68761 0.350181 4.14049 0.238364 5.55532 0.129478C6.37649 0.0660011 7.1848 0.00398938 7.99972 8.31282e-05C8.79702 -0.00333484 9.57244 0.0992042 10.3718 0.205161H10.3765C11.6643 0.375571 13.0145 0.554282 14.6187 0.308677C15.1915 0.221275 15.7115 0.79061 15.6182 1.36239C15.4522 2.37948 15.6154 3.15243 15.7768 3.91756C15.8771 4.39217 15.9767 4.86385 15.9965 5.38875C15.4358 5.34579 14.8986 5.27499 14.3718 5.20516C13.5724 5.0992 12.797 4.99667 11.9997 5.00008C11.1848 5.00399 10.3765 5.066 9.55532 5.12948C8.28231 5.22762 6.97848 5.32772 5.57162 5.21639C4.83819 5.15829 4.21227 5.83114 4.27227 6.56405C4.3467 7.47372 4.24618 8.18856 4.1469 8.89413C4.07439 9.40975 4.00258 9.92049 4.00005 10.4986L4.00081 10.6178C3.13045 10.544 2.23632 10.5313 1.28817 10.6871C0.73284 10.7779 0.198904 10.2598 0.256094 9.69979C0.356497 8.71688 0.241964 7.84823 0.135641 7.0411C0.100638 6.77547 0.0665189 6.51668 0.0412503 6.26278C0.0154935 6.0035 -0.00104706 5.74959 5.15775e-05 5.49862C0.00258454 4.92049 0.0743924 4.40975 0.146902 3.89413C0.262747 3.0704 0.380331 2.23446 0.219473 1.0909ZM2.37963 1.67489C2.19991 1.46493 1.88427 1.44051 1.67458 1.62069C1.46493 1.80038 1.44066 2.11581 1.62035 2.32528C1.86855 2.61483 2.49999 3.74081 2.49999 5.50008C2.49999 7.25936 1.86855 8.38534 1.62035 8.67489C1.44066 8.88436 1.46493 9.19979 1.67458 9.37948C1.88427 9.55965 2.19991 9.53524 2.37963 9.32528C2.79809 8.83749 3.49999 7.4742 3.49999 5.50008C3.49999 3.52596 2.79809 2.16268 2.37963 1.67489Z" fill="#C2C2C2"/>
<path fill-rule="evenodd" clip-rule="evenodd" d="M6.09756 6.17101C5.58578 6.11339 5.14773 6.58116 5.21947 7.09093C5.38033 8.23399 5.26275 9.07042 5.14687 9.89415C5.07439 10.4098 5.00259 10.9205 5.00005 11.4986C4.99786 11.9952 5.06496 12.5045 5.13567 13.0411C5.242 13.8483 5.3565 14.7174 5.25609 15.6998C5.19891 16.2599 5.73284 16.7779 6.28817 16.6871C7.78237 16.442 9.14245 16.6149 10.4866 16.7853C11.321 16.8912 12.1493 16.9962 12.9997 17.0001C13.8122 17.004 14.6395 16.9 15.4879 16.7936C16.8469 16.6236 18.2601 16.4464 19.7534 16.693C20.3002 16.7833 20.8253 16.2887 20.7621 15.7384C20.6365 14.6456 20.7561 13.7955 20.8663 13.0108C20.9388 12.4947 21.0073 12.0074 20.9994 11.4986C20.9905 10.9293 20.8841 10.4254 20.7769 9.91759C20.6154 9.15245 20.4522 8.3795 20.6182 7.36241C20.7115 6.79063 20.1915 6.2213 19.6186 6.3087C18.0125 6.5548 16.6611 6.3756 15.3718 6.20519C14.5725 6.09923 13.797 5.9962 12.9997 6.00011C12.1847 6.00401 11.3763 6.06603 10.5551 6.1295C9.14037 6.23839 7.68755 6.35021 6.09756 6.17101ZM7.37963 7.67491C7.19991 7.46495 6.88427 7.44054 6.67461 7.62071C6.46493 7.8004 6.44067 8.11583 6.62038 8.3253C6.86858 8.61485 7.49999 9.74083 7.49999 11.5001C7.49999 13.2594 6.86858 14.3854 6.62038 14.6749C6.44067 14.8844 6.46493 15.1998 6.67461 15.3795C6.88427 15.5597 7.19991 15.5353 7.37963 15.3253C7.79809 14.8375 8.49999 13.4742 8.49999 11.5001C8.49999 9.52599 7.79809 8.16271 7.37963 7.67491Z" fill="#C2C2C2"/>
</svg>
