<svg width="60" height="60" viewBox="0 0 60 60" fill="none" xmlns="http://www.w3.org/2000/svg">
<circle cx="30" cy="30" r="29" stroke="#B21D0C" stroke-width="2"/>
<path d="M42.8266 16.5003C40.3714 16.7764 37.7908 17.5179 35.7985 18.5118L35.0847 18.8668L33.7826 18.1174C32.9355 17.6283 32.3942 17.368 32.2452 17.368C32.002 17.368 29.0449 18.2673 25.374 19.4505C22.8404 20.2709 21.6403 20.7048 21.3736 20.902C21.1226 21.0913 10 40.4415 10 40.6939C10 41.183 9.92942 41.1356 18.9812 46.3972C23.7974 49.1975 27.8605 51.5167 28.0017 51.5562C28.5664 51.7139 28.3154 52.1005 34.3317 41.6326C37.3908 36.2922 39.9165 31.8353 39.94 31.7248C39.9871 31.4724 39.7518 30.0604 39.336 28.1041C39.1635 27.3073 39.0223 26.6053 39.0223 26.5501C39.0223 26.4948 39.2341 26.4159 39.5949 26.3607C41.148 26.1162 43.1638 25.5246 44.6699 24.8856C48.5761 23.2133 50.741 20.5549 49.7684 18.6301C49.4781 18.0543 49.2899 17.8492 48.7016 17.4548C48.1447 17.0761 47.4937 16.8237 46.5132 16.6186C45.8464 16.4687 43.6894 16.4056 42.8266 16.5003ZM46.3171 18.1884C47.5721 18.4645 48.3173 18.9378 48.4114 19.5136C48.5134 20.1999 47.6427 21.3122 46.2465 22.2509C44.9601 23.1107 43.2893 23.8365 41.3833 24.3571C40.0969 24.7042 38.685 24.9487 38.6223 24.8304C38.5673 24.7436 37.9398 22.101 37.7281 21.0755C37.5947 20.4445 37.3908 20.1447 36.975 19.9712C36.8495 19.9159 36.7476 19.8528 36.7476 19.8213C36.7476 19.7424 38.4889 19.064 39.3831 18.8037C40.6695 18.4172 41.548 18.2515 43.3364 18.0464C43.8698 17.9833 45.8151 18.0779 46.3171 18.1884ZM34.1905 20.1684L36.1671 21.3201L36.5829 23.1107C36.8025 24.0968 36.9907 24.9329 36.9829 24.9724C36.9829 25.0513 35.3278 24.9645 35.2416 24.8777C35.2102 24.8462 35.2259 24.6016 35.2729 24.3334C35.6573 22.2272 33.6806 20.2157 31.5785 20.5865C29.6018 20.9414 28.3939 22.8662 28.9665 24.7594C29.6018 26.8498 32.104 27.7491 33.8767 26.5185L34.1983 26.2976L34.7866 26.4159C35.1082 26.4712 35.8298 26.5501 36.3946 26.5816L37.4065 26.6368L37.7045 27.9778C37.8614 28.7194 38.081 29.7922 38.1908 30.368L38.3791 31.4172L33.1629 40.5046C30.2921 45.5058 27.9232 49.6156 27.8919 49.6472C27.8605 49.6787 26.3074 48.8189 24.4327 47.7303C22.558 46.6417 20.2127 45.277 19.2165 44.7012C14.1573 41.7667 11.9218 40.4651 11.8904 40.4415C11.8512 40.3941 22.2443 22.3061 22.3933 22.172C22.4718 22.101 23.311 21.7934 24.2523 21.4778C26.2917 20.8073 31.9628 19.0403 32.104 19.0324C32.1589 19.0246 33.0923 19.5373 34.1905 20.1684ZM31.3667 22.5507C31.3118 22.7163 31.2647 23.1028 31.2569 23.4105C31.2569 23.8759 31.2961 24.0494 31.4922 24.4517C31.6255 24.7121 31.8765 25.0513 32.0413 25.209L32.355 25.493H32.0413C30.8411 25.493 30.0332 24.1678 30.5588 23.0634C30.7078 22.7636 31.2412 22.2588 31.4137 22.2588C31.4451 22.2588 31.4294 22.3929 31.3667 22.5507ZM33.359 22.7557C33.6257 23.0397 33.7904 23.6235 33.7277 24.0337C33.7042 24.2309 33.6571 24.3886 33.6336 24.3886C33.5159 24.3886 33.061 24.0494 32.9511 23.8759C32.7943 23.6392 32.7864 23.2054 32.9355 22.8504C33.0766 22.527 33.1316 22.5112 33.359 22.7557Z" fill="#212121"/>
<path d="M20.5266 29.5395C20.2913 29.6736 20.4168 29.4685 17.9303 33.7992C15.5223 38.0037 15.5066 38.0274 15.9223 38.4534C16.1655 38.69 16.4086 38.7452 16.7537 38.6348C16.9969 38.5559 17.1852 38.2483 19.3265 34.525C21.8993 30.0523 21.8758 30.1075 21.3895 29.6657C21.1149 29.4212 20.8247 29.3739 20.5266 29.5395Z" fill="#212121"/>
<path d="M24.127 31.8586C23.9231 32.0637 21.4758 36.2524 21.3111 36.702C21.0444 37.3962 21.9542 38.0352 22.5033 37.5382C22.6916 37.3726 25.1153 33.2391 25.3506 32.6869C25.6722 31.9217 24.731 31.2906 24.127 31.8586Z" fill="#212121"/>
<path d="M28.0097 33.9175C27.8528 34.0121 27.3822 34.7537 26.3782 36.497C25.1389 38.6584 24.9741 38.9739 25.0134 39.2106C25.0996 39.7549 25.6173 40.0467 26.1037 39.818C26.3233 39.7075 26.5586 39.3447 27.7273 37.3095C28.4803 36 29.1078 34.8325 29.1235 34.7063C29.1784 34.3513 29.0765 34.0989 28.8019 33.9333C28.496 33.7439 28.2999 33.7361 28.0097 33.9175Z" fill="#212121"/>
<path d="M31.7433 36.0949C31.4531 36.2527 26.9429 44.1489 26.9429 44.4881C26.9429 44.8747 27.3037 45.2139 27.7116 45.2139C27.892 45.2139 28.0881 45.1586 28.19 45.0719C28.3234 44.9614 32.2767 38.1696 32.7552 37.2308C32.9748 36.8049 32.9513 36.4893 32.6767 36.2132C32.4179 35.9608 32.0649 35.9135 31.7433 36.0949Z" fill="#212121"/>
<path d="M20.338 38.5487C20.0399 38.7143 19.4673 39.7319 19.4595 40.1185C19.4595 40.363 19.5065 40.4656 19.7105 40.647C20.2595 41.1361 20.7537 40.8836 21.2792 39.8266C21.5224 39.3454 21.5381 39.2823 21.4518 39.022C21.3498 38.7143 20.989 38.4304 20.7066 38.4304C20.6204 38.4383 20.4556 38.4856 20.338 38.5487Z" fill="#212121"/>
<path d="M23.9856 40.8279C23.8679 40.9304 23.6326 41.2696 23.46 41.5772C23.1149 42.2241 23.1149 42.5317 23.46 42.8552C23.711 43.0918 24.1895 43.1076 24.4327 42.8867C24.7543 42.5948 25.217 41.7113 25.217 41.3958C25.217 40.749 24.4797 40.4098 23.9856 40.8279Z" fill="#212121"/>
</svg>
