<svg width="22" height="26" viewBox="0 0 22 26" fill="none" xmlns="http://www.w3.org/2000/svg">
<path d="M7.06019 1.21842L9.14556 6.70815C9.26551 7.10918 8.82392 7.41082 8.82392 7.41082C8.82392 7.41082 6.21655 9.03895 5.77628 9.33921C5.33667 9.64153 5.60887 10.2585 5.60887 10.2585C5.60887 10.2585 6.32794 12.662 7.86165 14.8289C9.39404 16.9959 11.7879 18.8749 12.0805 19.1773C12.5339 19.6489 13.0467 19.1581 13.0467 19.1581C13.0467 19.1581 15.3199 17.2879 15.5341 17.1309C15.9362 16.8334 16.5017 17.1111 16.5017 17.1111C16.5017 17.1111 20.5617 20.4215 20.8543 20.7245C21.3091 21.1955 20.6342 22.7831 19.7266 23.7504C18.8612 24.669 16.5913 25.0948 14.8777 24.9823C13.164 24.8699 7.89262 21.8659 4.4403 16.6915C1.11848 11.7153 0.582635 8.23894 1.25161 4.55832C1.51723 3.09883 3.09444 1.84705 3.94071 1.42751C4.78698 1.00796 6.90201 0.822869 7.06019 1.21842Z" stroke="#B21D0C" stroke-width="2" stroke-miterlimit="10" stroke-linecap="round" stroke-linejoin="round"/>
</svg>
