<svg width="62" height="90" viewBox="0 0 62 90" fill="none" xmlns="http://www.w3.org/2000/svg">
<path d="M31 80H2V2H39.7L60 22.2222V80H51.3" stroke="#B21D0C" stroke-width="3" stroke-miterlimit="10" stroke-linecap="round" stroke-linejoin="round"/>
<path d="M40 3V23H60" stroke="#B21D0C" stroke-width="3" stroke-miterlimit="10" stroke-linecap="round" stroke-linejoin="round"/>
<path d="M38.8178 76.2084L37.1243 77.1643L35.0903 73.3067L34.9668 73.073L34.2353 73L30 84.5831L34.7596 84.138L37.9422 88L41 79.6313L39.6097 75.7618L38.8178 76.2084Z" stroke="#B21D0C" stroke-width="3" stroke-miterlimit="10" stroke-linecap="round" stroke-linejoin="round"/>
<path d="M47.7731 73.0791L47.6893 73.2268L45.4986 77.1798L43.7876 76.2605L41.4408 74.9981L40 75.7741L41.4639 79.6524L44.6185 88L47.9913 84.147L53 84.6216L48.6084 73L47.7731 73.0791Z" stroke="#B21D0C" stroke-width="3" stroke-miterlimit="10" stroke-linecap="round" stroke-linejoin="round"/>
<path d="M55 65.3223L52.3805 61.6367L53.8662 57.3533L49.69 55.6818L48.6471 51.2693L44.2382 52.1452L41 49L37.7618 52.1452L33.3543 51.2693L32.3099 55.6818L28.1324 57.3533L29.6181 61.6367L27 65.3223L30.5419 68.1135L30.312 72.6463L34.0284 72.9918L34.7847 73.0606L34.9124 73.2871L37.0154 77L38.7665 76.0797L39.5852 75.6482L41 74.9042L43.3045 76.1155L44.9846 77L47.1358 73.2025L47.2181 73.0606L48.0383 72.9861L51.688 72.6463L51.4581 68.1135L55 65.3223Z" stroke="#B21D0C" stroke-width="3" stroke-miterlimit="10" stroke-linecap="round" stroke-linejoin="round"/>
</svg>
