<svg width="13" height="16" viewBox="0 0 13 16" fill="none" xmlns="http://www.w3.org/2000/svg">
<path fill-rule="evenodd" clip-rule="evenodd" d="M0 5.57129C0 5.019 0.447714 4.57129 0.999999 4.57129H6.09524H11.1905C11.7428 4.57129 12.1905 5.019 12.1905 5.57129V6.0951V6.857C12.1905 7.27779 11.8494 7.61891 11.4286 7.61891H9.52381C9.31342 7.61891 9.14286 7.44835 9.14286 7.23796C9.14286 7.02756 8.9723 6.857 8.76191 6.857H7.09524C6.54295 6.857 6.09524 7.30472 6.09524 7.857V14.9999C6.09524 15.5521 5.64752 15.9999 5.09524 15.9999H1C0.447715 15.9999 0 15.5521 0 14.9999V6.857V5.57129Z" fill="#C2C2C2"/>
<path fill-rule="evenodd" clip-rule="evenodd" d="M0.761905 0C0.341116 0 0 0.341116 0 0.761905L0 2.80952C0 3.36181 0.447716 3.80952 1 3.80952H4.33333C4.88562 3.80952 5.33333 3.36181 5.33333 2.80952V2.52381C5.33333 1.97152 5.78105 1.52381 6.33333 1.52381H9.90476C10.3256 1.52381 10.6667 1.18269 10.6667 0.761905C10.6667 0.341116 10.3256 0 9.90476 0L0.761905 0Z" fill="#C2C2C2"/>
</svg>
