<svg width="17" height="22" viewBox="0 0 17 22" fill="none" xmlns="http://www.w3.org/2000/svg">
<path d="M5.15204 0.199807L6.92402 5.23212C7.02594 5.60005 6.65089 5.87562 6.65089 5.87562C6.65089 5.87562 4.43465 7.36786 4.06092 7.64344C3.68719 7.92049 3.91847 8.48633 3.91847 8.48633C3.91847 8.48633 4.53007 10.6895 5.83289 12.6758C7.13572 14.6635 9.17031 16.3844 9.41859 16.6614C9.80408 17.0938 10.2392 16.6438 10.2392 16.6438C10.2392 16.6438 12.1719 14.9288 12.3549 14.7851C12.6972 14.5125 13.1768 14.7661 13.1768 14.7661C13.1768 14.7661 16.6279 17.8004 16.8762 18.0789C17.263 18.5099 16.688 19.9669 15.9183 20.8538C15.1826 21.6952 13.2539 22.0866 11.7969 21.984C10.3399 21.8814 5.86032 19.127 2.92406 14.382C0.100179 9.82173 -0.354575 6.63348 0.21386 3.26054C0.439927 1.92221 1.78064 0.775896 2.49935 0.390376C3.22067 0.00778646 5.01745 -0.16226 5.15204 0.199807Z" fill="#B21D0C"/>
</svg>
