<svg width="34" height="34" viewBox="0 0 34 34" fill="none" xmlns="http://www.w3.org/2000/svg">
<circle cx="17" cy="17" r="17" fill="#EEEEEE"/>
<path d="M10.8887 14.2676V13.5156C10.8887 12.9753 11.0059 12.4837 11.2402 12.041C11.4746 11.5983 11.8262 11.2435 12.2949 10.9766C12.7637 10.7096 13.3464 10.5762 14.043 10.5762C14.7591 10.5762 15.3516 10.7096 15.8203 10.9766C16.2891 11.2435 16.6374 11.5983 16.8652 12.041C17.0996 12.4837 17.2168 12.9753 17.2168 13.5156V14.2676C17.2168 14.7949 17.0996 15.2799 16.8652 15.7227C16.6374 16.1654 16.2891 16.5202 15.8203 16.7871C15.3581 17.054 14.7754 17.1875 14.0723 17.1875C13.3626 17.1875 12.7734 17.054 12.3047 16.7871C11.8359 16.5202 11.4811 16.1654 11.2402 15.7227C11.0059 15.2799 10.8887 14.7949 10.8887 14.2676ZM12.998 13.5156V14.2676C12.998 14.4629 13.0371 14.6484 13.1152 14.8242C13.1934 15 13.3105 15.1432 13.4668 15.2539C13.6296 15.3581 13.8281 15.4102 14.0625 15.4102C14.3034 15.4102 14.4987 15.3581 14.6484 15.2539C14.7982 15.1432 14.9089 15 14.9805 14.8242C15.0586 14.6484 15.0977 14.4629 15.0977 14.2676V13.5156C15.0977 13.3073 15.0586 13.1152 14.9805 12.9395C14.9089 12.7637 14.7949 12.6237 14.6387 12.5195C14.4824 12.4089 14.2839 12.3535 14.043 12.3535C13.8151 12.3535 13.623 12.4089 13.4668 12.5195C13.3105 12.6237 13.1934 12.7637 13.1152 12.9395C13.0371 13.1152 12.998 13.3073 12.998 13.5156ZM17.6367 22.2656V21.5137C17.6367 20.9798 17.7539 20.4915 17.9883 20.0488C18.2292 19.6061 18.584 19.2513 19.0527 18.9844C19.528 18.7174 20.1139 18.584 20.8105 18.584C21.5267 18.584 22.1159 18.7174 22.5781 18.9844C23.0469 19.2513 23.3952 19.6061 23.623 20.0488C23.8574 20.4915 23.9746 20.9798 23.9746 21.5137V22.2656C23.9746 22.7995 23.8574 23.2878 23.623 23.7305C23.3952 24.1732 23.0501 24.528 22.5879 24.7949C22.1257 25.0618 21.543 25.1953 20.8398 25.1953C20.1302 25.1953 19.5378 25.0618 19.0625 24.7949C18.5872 24.528 18.2292 24.1732 17.9883 23.7305C17.7539 23.2878 17.6367 22.7995 17.6367 22.2656ZM19.7559 21.5137V22.2656C19.7559 22.4674 19.8047 22.6562 19.9023 22.832C20 23.0078 20.1302 23.151 20.293 23.2617C20.4557 23.3659 20.6348 23.418 20.8301 23.418C21.1296 23.418 21.3509 23.3659 21.4941 23.2617C21.6439 23.151 21.7415 23.0078 21.7871 22.832C21.8392 22.6562 21.8652 22.4674 21.8652 22.2656V21.5137C21.8652 21.3118 21.8262 21.123 21.748 20.9473C21.6699 20.7715 21.5527 20.6315 21.3965 20.5273C21.2402 20.4167 21.0449 20.3613 20.8105 20.3613C20.5762 20.3613 20.3809 20.4167 20.2246 20.5273C20.0684 20.6315 19.9512 20.7715 19.873 20.9473C19.7949 21.123 19.7559 21.3118 19.7559 21.5137ZM21.6309 12.8223L14.6875 23.9355L13.1543 23.1641L20.0977 12.0508L21.6309 12.8223Z" fill="#B21D0C"/>
</svg>
