<svg width="60" height="60" viewBox="0 0 60 60" fill="none" xmlns="http://www.w3.org/2000/svg">
	<path d="M30 59C46.0163 59 59 46.0163 59 30C59 13.9837 46.0163 1 30 1C13.9837 1 1 13.9837 1 30C1 46.0163 13.9837 59 30 59Z" stroke="#B21D0C" stroke-width="2"/>
	<path d="M23.5 14L11 22.4877L12 24L23.5 16.1914L35 24L36 22.4877L23.5 14Z" stroke="#212121" stroke-width="1.2" stroke-linejoin="round"/>
	<path d="M39.5 25L27 33.4877L28 35L39.5 27.1914L51 35L52 33.4877L39.5 25Z" stroke="#212121" stroke-width="1.2" stroke-linejoin="round"/>
	<path d="M43 45V43.2632M43 40.9474V34H37V45" stroke="#212121" stroke-width="1.2" stroke-linecap="round" stroke-linejoin="round"/>
	<path d="M39 38L39 39" stroke="#212121" stroke-width="1.2" stroke-linecap="round" stroke-linejoin="round"/>
	<path d="M26 22C26.5523 22 27 22.4477 27 23L27 30C27 30.5523 26.5523 31 26 31L21 31C20.4477 31 20 30.5523 20 30L20 23C20 22.4477 20.4477 22 21 22L26 22Z" stroke="#212121" stroke-width="1.2" stroke-linecap="round" stroke-linejoin="round"/>
	<path d="M23.5 22V30.5M20 25H27M20 28H27" stroke="#212121" stroke-width="1.2" stroke-linecap="round" stroke-linejoin="round"/>
	<path d="M11.9999 42.8513C11.9998 42.0142 11.9999 40.5527 14 40.5527C14.3873 38.2155 17.5 36.5527 19.4999 39.8512C21.9999 39.3513 22.9999 41.2155 22.9999 43.0526" stroke="#212121" stroke-width="1.2" stroke-linecap="round" stroke-linejoin="round"/>
	<path d="M21 39.8513C21.3478 39.0956 22.7738 37.8332 25 38.3514C27.2262 38.8696 28 40.8514 28 42.8514" stroke="#212121" stroke-width="1.2" stroke-linecap="round" stroke-linejoin="round"/>
	<path d="M17.7778 43H11V45H29V43H20" stroke="#212121" stroke-width="1.2" stroke-linecap="round" stroke-linejoin="round"/>
	<path d="M48 33L48 44" stroke="#212121" stroke-width="1.2" stroke-linecap="round" stroke-linejoin="round"/>
	<path d="M33 23L33 27" stroke="#212121" stroke-width="1.2" stroke-linecap="round" stroke-linejoin="round"/>
	<path d="M14 23L14 37" stroke="#212121" stroke-width="1.2" stroke-linecap="round" stroke-linejoin="round"/>
	<path d="M12 45H50" stroke="#212121" stroke-width="1.2" stroke-linecap="round" stroke-linejoin="round"/>
	<rect x="14" y="12" width="5" height="2" stroke="#212121" stroke-width="1.2" stroke-linecap="round" stroke-linejoin="round"/>
	<path d="M18 17V14H15V19" stroke="#212121" stroke-width="1.2" stroke-linecap="round" stroke-linejoin="round"/>
</svg>
