<svg width="34" height="17" viewBox="0 0 34 17" fill="none" xmlns="http://www.w3.org/2000/svg">
<path d="M11.5391 15.9994C12.9198 15.9994 14.0391 14.8802 14.0391 13.4995C14.0391 12.1188 12.9198 10.9995 11.5391 10.9995C10.1584 10.9995 9.03906 12.1188 9.03906 13.4995C9.03906 14.8802 10.1584 15.9994 11.5391 15.9994Z" stroke="#B21D0C" stroke-width="2" stroke-miterlimit="10" stroke-linecap="round" stroke-linejoin="round"/>
<path d="M25.5591 15.9999C26.9398 15.9999 28.0591 14.8807 28.0591 13.5C28.0591 12.1193 26.9398 11 25.5591 11C24.1784 11 23.0591 12.1193 23.0591 13.5C23.0591 14.8807 24.1784 15.9999 25.5591 15.9999Z" stroke="#B21D0C" stroke-width="2" stroke-miterlimit="10" stroke-linecap="round" stroke-linejoin="round"/>
<path d="M1 5.21533H9.82342" stroke="#B21D0C" stroke-width="2" stroke-miterlimit="10" stroke-linecap="round" stroke-linejoin="round"/>
<path d="M1 8.15674H9.82342" stroke="#B21D0C" stroke-width="2" stroke-miterlimit="10" stroke-linecap="round" stroke-linejoin="round"/>
<path d="M4.52096 10.761L4.03906 13H6.27233H8.5056M14.0392 13H23.3706M28.059 13H31.3957L32.3729 8.11018L29.6978 1H6.17983L5.80544 3.21426" stroke="#B21D0C" stroke-width="2" stroke-miterlimit="10" stroke-linecap="round" stroke-linejoin="round"/>
</svg>
