<svg width="60" height="60" viewBox="0 0 60 60" fill="none" xmlns="http://www.w3.org/2000/svg">
<circle cx="30" cy="30" r="29" stroke="#B21D0C" stroke-width="2"/>
<path d="M16.7272 12.5745C16.3116 12.8283 16.2448 13.0074 16.2448 13.9329C16.2448 14.851 16.3339 15.0824 16.7717 15.3063L16.987 15.4257V17.65V19.8743L15.228 21.2402C14.2557 21.994 13.3725 22.6882 13.2612 22.7927C13.0014 23.0315 12.9272 23.3898 13.0757 23.6734C13.2538 24.0242 14.0925 25.0766 14.2632 25.1737C14.6714 25.4051 14.8421 25.323 16.1557 24.2855L16.6159 23.9123V33.0109V42.1169L16.2522 42.3558C16.0444 42.4827 15.7401 42.7514 15.5694 42.9454C15.28 43.2664 14.8346 44.08 14.8346 44.274C14.8346 44.3188 14.7307 44.4009 14.612 44.4532C13.996 44.7069 13.4245 45.6026 13.4245 46.2968C13.4245 46.558 13.3725 46.7745 13.276 46.9312C13.1499 47.1477 13.1276 47.3119 13.1276 48.2598C13.1276 49.2003 13.1499 49.3719 13.276 49.5809C13.5803 50.0885 12.0069 50.0511 31.519 50.0511H49.1757L49.3315 49.8795C49.5467 49.6481 49.5393 49.3421 49.3092 49.1181C49.1385 48.939 49.0866 48.9315 48.2331 48.9315H47.3425V43.5575C47.3425 40.6017 47.3499 38.1834 47.3647 38.1834C47.3796 38.1834 47.7507 38.467 48.196 38.8104C48.6339 39.1537 49.0792 39.4523 49.1831 39.4747C49.5616 39.5493 49.7917 39.3851 50.3557 38.6163C50.994 37.7505 51.0608 37.5788 50.8604 37.2429C50.7714 37.0937 48.5522 35.3172 44.8932 32.466C41.687 29.973 38.9409 27.8533 38.785 27.7488C38.4288 27.5099 37.835 27.4502 37.4714 27.6069C37.3303 27.6667 36.796 28.0399 36.2839 28.4354L35.3561 29.1594L35.319 28.2638C35.2745 27.2487 35.1928 27.0621 34.7475 27.0621C34.2874 27.0621 34.2503 27.189 34.2057 28.7265L34.1686 30.085L29.8342 33.4587C27.4518 35.3098 25.396 36.9295 25.2698 37.0563C25.0917 37.2355 25.0397 37.3549 25.0397 37.5788C25.0397 37.8251 25.1288 37.9744 25.5964 38.5939C26.1753 39.3478 26.435 39.5419 26.7913 39.4747C26.8952 39.4523 29.4632 37.5116 32.4913 35.153L37.9983 30.8687L42.0952 34.0633L46.1921 37.2579L46.2143 43.0947L46.2292 48.9315H44.01H41.7983L41.7612 48.2822C41.7315 47.7298 41.7018 47.6179 41.5608 47.4985C41.3382 47.3193 40.9967 47.3268 40.8112 47.5134C40.685 47.6403 40.6628 47.7597 40.6628 48.2971V48.9315H38.028H35.3932V44.6398V40.348L38.0132 40.3629L40.6257 40.3853L40.6628 42.9828C40.6999 45.4459 40.7073 45.5877 40.8409 45.6922C41.1971 45.946 41.6499 45.7295 41.7389 45.2593C41.7612 45.1249 41.776 43.8635 41.7612 42.4603C41.7389 40.0195 41.7315 39.9001 41.5831 39.6986C41.2417 39.2284 41.2194 39.2284 38.0057 39.2284C34.844 39.2284 34.755 39.2358 34.4432 39.6389L34.28 39.8479V44.386V48.9315H32.1721H30.0643L30.0421 48.0508C30.0198 47.3566 29.9827 47.1253 29.8788 46.9685C29.671 46.6476 29.3221 46.4684 28.9065 46.4684H28.5428L28.5948 46.1102C28.7061 45.2145 28.2905 44.0352 27.6151 43.3559C26.2643 41.9975 24.1417 41.9378 22.7835 43.2216C22.4421 43.5425 22.4346 43.55 22.1081 43.4754C21.9225 43.4306 21.6182 43.4231 21.4327 43.4455C21.0913 43.4903 21.0913 43.4903 20.8092 43.1246C20.1784 42.2886 19.1245 41.7661 18.0632 41.7661H17.7292V32.4137V23.0614L21.7889 19.8966C24.0303 18.165 25.9007 16.7394 25.9526 16.7319C26.0046 16.7244 27.8823 18.1501 30.1237 19.8966L34.2057 23.0688V24.1287C34.2057 25.099 34.2206 25.211 34.3542 25.3454C34.5991 25.5917 34.9108 25.5693 35.1557 25.3006C35.2967 25.1364 35.319 25.0319 35.319 24.5243V23.9272L36.18 24.599C37.3897 25.5469 37.4862 25.532 38.4065 24.2855C38.8221 23.7331 38.9186 23.554 38.9186 23.3301C38.9186 23.1733 38.8667 22.9942 38.8147 22.927C38.6737 22.7553 26.821 13.5373 26.576 13.4104C26.2792 13.2537 25.5889 13.2761 25.2921 13.4552C25.151 13.5299 24.3569 14.1344 23.5182 14.7838C22.6796 15.4332 21.9522 16.0004 21.9077 16.0378C21.8335 16.09 21.8112 16.0303 21.8112 15.7616C21.8112 15.4705 21.8409 15.4033 21.9819 15.3511C22.2565 15.2391 22.4717 14.9853 22.5608 14.6495C22.6796 14.1942 22.6128 13.194 22.4421 12.8954C22.1749 12.4476 22.0858 12.4327 19.3842 12.4327C17.1428 12.4327 16.935 12.4476 16.7272 12.5745ZM21.5143 13.9255V14.2987H19.4362H17.3581V13.9255V13.5523H19.4362H21.5143V13.9255ZM26.7987 14.9555C30.2573 17.6127 37.5827 23.3599 37.5975 23.4271C37.6124 23.4794 37.5233 23.6212 37.412 23.7555L37.2116 23.9944L31.7565 19.7474C28.7581 17.4037 26.2272 15.4705 26.1382 15.4481C26.0417 15.4257 25.8932 15.4183 25.8042 15.4481C25.7077 15.4705 23.4292 17.2096 20.735 19.307C18.0409 21.4044 15.5768 23.3226 15.2651 23.5615L14.6936 24.0018L14.471 23.7107L14.2409 23.4196L19.9335 18.9935C25.3737 14.754 25.8635 14.3808 25.9823 14.3733C26.012 14.3733 26.3831 14.6345 26.7987 14.9555ZM20.6979 16.202V16.9782L19.4585 17.956C18.7682 18.486 18.1893 18.9263 18.1596 18.9263C18.1225 18.9263 18.1003 18.1351 18.1003 17.1723V15.4183H19.3991H20.6979V16.202ZM39.2675 29.5103C44.4776 33.5557 49.4057 37.3997 49.5245 37.5116C49.6655 37.6535 49.6655 37.6535 49.4874 37.9147C49.3909 38.064 49.287 38.1834 49.2573 38.1834C49.235 38.1834 46.7487 36.2652 43.7428 33.9289C40.7296 31.5852 38.1987 29.6521 38.1022 29.6297C38.0057 29.6073 37.8573 29.6297 37.7682 29.6745C37.6792 29.7267 35.1706 31.6599 32.1944 33.9737C29.2182 36.2876 26.7542 38.1834 26.7245 38.1834C26.6948 38.1759 26.5835 38.0565 26.4721 37.9072L26.2717 37.6385L26.435 37.5116C33.9089 31.6823 37.887 28.6295 37.9909 28.6295C38.0651 28.6295 38.644 29.0251 39.2675 29.5103ZM19.0503 43.1096C19.4807 43.2962 20.0077 43.8187 20.2452 44.2964C20.4604 44.7144 20.6682 44.789 21.1952 44.6323C21.8706 44.4382 22.5163 44.6547 22.9022 45.2219C23.0729 45.4683 23.11 45.6026 23.11 45.9758V46.4311L22.4643 46.4684C21.9745 46.4983 21.7889 46.5356 21.6702 46.6476C21.4846 46.8118 21.4624 47.1924 21.6182 47.4089C21.7221 47.5432 21.8706 47.5507 25.3143 47.588L28.8991 47.6253L28.9214 48.2747L28.9436 48.9315H21.5885H14.2409V48.2598V47.588H16.9128C19.4882 47.588 19.5921 47.5806 19.7331 47.4387C19.9557 47.2148 19.9335 46.8192 19.6885 46.6252C19.4956 46.4759 19.4065 46.4684 17.0167 46.4684H14.5378V46.2669C14.5378 45.9683 14.8792 45.5802 15.3171 45.3862C15.7104 45.207 15.7253 45.1921 15.9479 44.4905C16.3561 43.2067 17.796 42.5648 19.0503 43.1096ZM26.1159 43.647C27.0659 44.0874 27.6225 45.0951 27.4815 46.1102L27.437 46.4684H25.8561H24.2827L24.2456 45.9236C24.2085 45.3264 24.0229 44.8264 23.6667 44.3785L23.4366 44.0874L23.7854 43.8486C23.9784 43.7217 24.2678 43.5649 24.4385 43.5127C24.8987 43.3559 25.6335 43.4157 26.1159 43.647Z" fill="#212121"/>
<path d="M22.6945 20.9196C22.5832 20.9868 22.4348 21.1435 22.3606 21.2704C22.227 21.4869 22.2195 21.7407 22.2195 26.3534C22.2195 31.7573 22.1898 31.4364 22.7242 31.7648C22.9469 31.9066 23.1176 31.9141 25.9156 31.9141C29.1441 31.9141 29.2184 31.9066 29.5227 31.4812C29.6785 31.2572 29.6785 31.2498 29.6785 26.3534C29.6785 21.9496 29.6637 21.4272 29.5598 21.2406C29.2926 20.7853 29.3223 20.7927 25.9527 20.7927C23.2512 20.8002 22.8652 20.8077 22.6945 20.9196ZM25.3738 23.0692V24.2262H24.3719H23.3699V23.0692V21.9123H24.3719H25.3738V23.0692ZM28.5652 23.0692V24.2336L27.5484 24.2112L26.5242 24.1888L26.502 23.0468L26.4797 21.9123H27.5262H28.5652V23.0692ZM25.3738 26.3534V27.361H24.3719H23.3699V26.3534V25.3458H24.3719H25.3738V26.3534ZM28.5652 26.3534V27.361H27.5262H26.4871V26.3534V25.3458H27.5262H28.5652V26.3534ZM25.3738 29.6375V30.7945H24.3719H23.3699V29.6375V28.4806H24.3719H25.3738V29.6375ZM28.5652 29.6375V30.8019L27.5484 30.7795L26.5242 30.7571L26.502 29.7122C26.4945 29.1449 26.502 28.6299 26.5168 28.5777C26.5465 28.503 26.8063 28.4806 27.5633 28.4806H28.5652V29.6375Z" fill="#212121"/>
<path d="M36.0239 43.1991C35.7271 43.3558 35.6899 43.4827 35.6899 44.3485C35.6899 45.0725 35.7122 45.2069 35.8458 45.3786C36.0536 45.6473 36.4396 45.6473 36.6474 45.3786C36.781 45.2069 36.8032 45.08 36.8032 44.3485C36.7958 43.4902 36.7587 43.3558 36.4544 43.1991C36.2614 43.0946 36.2169 43.0946 36.0239 43.1991Z" fill="#212121"/>
</svg>
