<svg width="33" height="27" viewBox="0 0 33 27" fill="none" xmlns="http://www.w3.org/2000/svg">
<path fill-rule="evenodd" clip-rule="evenodd" d="M0.338227 1.68106C0.22765 0.895181 0.902689 0.174792 1.69133 0.263577C4.14163 0.539427 6.38051 0.367097 8.56075 0.199281C9.82614 0.101882 11.0718 0.00600341 12.3275 0.000150823C13.5562 -0.00557553 14.7511 0.152692 15.9829 0.315845C17.9696 0.578989 20.0522 0.854843 22.5273 0.475849C23.41 0.340686 24.2113 1.2183 24.0675 2.09963C23.8118 3.66689 24.0633 4.85796 24.3121 6.0365C24.4666 6.76823 24.6201 7.49514 24.6505 8.30425C23.7864 8.23802 22.9586 8.12838 22.1468 8.02086C20.915 7.8577 19.7201 7.69944 18.4915 7.70516C17.2357 7.71102 15.9901 7.80689 14.7247 7.90429L14.7247 7.90429C12.763 8.05529 10.7538 8.20994 8.58583 8.03848C7.45561 7.9491 6.49109 8.9853 6.58355 10.1153C6.69822 11.5165 6.5433 12.6182 6.39033 13.7061C6.27862 14.5005 6.16795 15.2875 6.16403 16.1786C6.16376 16.2394 6.16417 16.3004 6.1652 16.3616C4.82401 16.2481 3.44616 16.2286 1.9851 16.4684C1.12931 16.6088 0.306511 15.8102 0.394647 14.9475C0.549383 13.4328 0.372899 12.0936 0.209055 10.8503C0.100089 10.0234 -0.00328669 9.23898 8.00434e-05 8.47356C0.00399925 7.58254 0.114674 6.79547 0.22638 6.00107C0.404928 4.73132 0.586113 3.44281 0.338227 1.68106ZM3.462 2.75688C3.28228 2.54722 2.96663 2.52294 2.75697 2.70265C2.54731 2.88236 2.52303 3.19801 2.70274 3.40767C3.13127 3.90762 4.12336 5.70661 4.12336 8.47576C4.12336 11.2449 3.13127 13.0439 2.70274 13.5439C2.52303 13.7535 2.54731 14.0692 2.75697 14.2489C2.96663 14.4286 3.28228 14.4043 3.462 14.1946C4.0608 13.496 5.12336 11.4597 5.12336 8.47576C5.12336 5.49186 4.0608 3.45548 3.462 2.75688Z" fill="#C2C2C2"/>
<path fill-rule="evenodd" clip-rule="evenodd" d="M8.80097 9.43417C8.29102 9.36218 7.85263 9.82751 7.94645 10.3339C8.3307 12.4079 8.12946 13.8391 7.93146 15.2472C7.81975 16.0416 7.70908 16.8286 7.70516 17.7197C7.70179 18.4851 7.80517 19.2695 7.91413 20.0964C8.10317 21.5309 8.30903 23.093 8.0036 24.905C7.91006 25.46 8.43512 25.9702 8.98482 25.8496C11.5684 25.2828 13.8791 25.5761 16.1601 25.8656C17.4458 26.0288 18.7221 26.1908 20.0326 26.1969C21.2847 26.2027 22.5597 26.0429 23.8672 25.8791C26.1673 25.5908 28.5682 25.2899 31.1225 25.8555C31.6637 25.9753 32.1835 25.4866 32.0917 24.9401C31.752 22.9163 31.9627 21.4176 32.155 20.0495C32.2667 19.2546 32.3723 18.5038 32.3601 17.7197C32.3464 16.8419 32.1824 16.065 32.0172 15.2826C31.7302 13.9233 31.4396 12.5472 31.928 10.5965C32.0687 10.0344 31.5547 9.47322 30.9866 9.588C28.1746 10.1562 25.8732 9.85139 23.688 9.56194C22.4562 9.39879 21.2613 9.24052 20.0326 9.24624C18.7769 9.2521 17.5312 9.34798 16.2658 9.44538C13.9102 9.62669 11.4862 9.81327 8.80097 9.43417ZM11.3724 11.8269C11.0954 11.5039 10.609 11.4664 10.2859 11.7434C9.96284 12.0203 9.92542 12.5067 10.2024 12.8298C10.5848 13.276 11.5579 15.0108 11.5579 17.7219C11.5579 20.4329 10.5848 22.1677 10.2024 22.6139C9.92542 22.937 9.96284 23.4234 10.2859 23.7004C10.609 23.9773 11.0954 23.9399 11.3724 23.6168C12.0172 22.8645 13.0989 20.7638 13.0989 17.7219C13.0989 14.6799 12.0172 12.5793 11.3724 11.8269Z" fill="#C2C2C2"/>
</svg>
