<svg width="60" height="60" viewBox="0 0 60 60" fill="none" xmlns="http://www.w3.org/2000/svg">
<circle cx="30" cy="30" r="29" stroke="#B21D0C" stroke-width="2"/>
<path d="M24.6534 14.5824C23.9161 14.8351 23.2877 15.5767 22.3325 17.2872C21.4695 18.8293 21.2935 18.9557 19.358 19.3686C17.3303 19.7983 16.6516 20.127 16.1656 20.8938C15.7215 21.6016 15.6629 22.301 15.8807 24.1969C16.0399 25.562 15.998 26.1182 15.7131 26.5985C15.6042 26.7923 15.1182 27.3821 14.6406 27.9046C12.9816 29.6994 12.6632 30.6769 13.3168 32.0167C13.5765 32.556 13.8028 32.8509 14.9171 34.098C16.0399 35.3536 16.0986 35.5389 15.8723 37.536C15.6042 39.9375 15.8472 40.8223 17.0035 41.5807L17.2046 41.7155L15.3696 44.9092C14.3558 46.6619 13.5179 48.2039 13.5011 48.3387C13.4592 48.6252 13.6771 48.9707 13.9536 49.0381C14.0876 49.0718 15.1015 48.8443 16.9281 48.3556C18.4447 47.9427 19.7015 47.6309 19.7099 47.6478C19.7266 47.6646 20.0702 48.9117 20.464 50.4201C21.084 52.7626 21.2181 53.1839 21.4024 53.344C21.6622 53.5715 21.9471 53.5884 22.19 53.3946C22.2822 53.3103 23.1285 51.8947 24.0753 50.2515L25.7846 47.2601L26.2873 47.1253C26.5638 47.041 27.3598 46.7293 28.0637 46.4175C29.9657 45.5748 30.1333 45.5748 32.1861 46.5186C32.7391 46.763 33.4262 47.0326 33.7194 47.1085L34.2473 47.2517L35.9063 50.1673C36.8196 51.7683 37.6743 53.1755 37.8 53.3019C38.177 53.6979 38.6881 53.5547 38.8641 53.007C38.9144 52.8637 39.2579 51.5998 39.6266 50.2178C39.9952 48.8359 40.3136 47.6815 40.3388 47.6562C40.3639 47.6309 41.5956 47.9427 43.087 48.3387C44.5701 48.7432 45.8605 49.0718 45.961 49.0718C46.1789 49.0718 46.4805 48.7937 46.5475 48.5325C46.6062 48.2797 46.69 48.4314 44.5617 44.7659C43.3384 42.6509 42.8273 41.6903 42.9027 41.6734C42.9697 41.6481 43.2295 41.4206 43.4892 41.1594C44.2601 40.3926 44.369 39.6932 44.1093 37.3085C43.9082 35.5221 43.9836 35.303 45.2991 33.8874C46.5475 32.5223 47 31.7218 47 30.8707C47 29.9691 46.6062 29.2612 45.2823 27.7866C44.7796 27.2389 44.302 26.6153 44.2098 26.4047C44.0171 25.9749 43.992 25.1154 44.1428 24.0874C44.2769 23.1689 44.2601 21.9386 44.0925 21.4331C43.9082 20.8601 43.3719 20.2702 42.7687 19.9669C42.5089 19.8405 41.8721 19.6467 41.361 19.5287C38.973 19.0062 38.7635 18.922 38.2943 18.2816C38.1184 18.0456 37.7748 17.4895 37.5318 17.0429C36.518 15.1554 35.7052 14.4475 34.5573 14.4475C33.954 14.4391 33.4513 14.5992 32.0017 15.2396C30.083 16.0907 29.8651 16.0907 27.8039 15.1469C26.2538 14.4391 25.4494 14.2959 24.6534 14.5824ZM26.6728 16.1581C27.0414 16.3182 27.6615 16.5878 28.0469 16.7564C28.424 16.9249 29.0356 17.1271 29.3959 17.203C30.0243 17.3294 30.0746 17.3294 30.7533 17.1608C31.1471 17.0682 31.9347 16.7732 32.5045 16.5036C33.0826 16.2424 33.7865 15.9643 34.0797 15.8885C34.5992 15.7452 34.6076 15.7536 34.9679 15.939C35.3952 16.175 35.6466 16.5036 36.451 17.9108C37.6324 19.9753 38.0094 20.2281 40.7493 20.8011C41.914 21.037 42.4419 21.2814 42.7016 21.6774C42.8692 21.9218 42.8943 22.0735 42.8943 22.6886C42.8943 23.0846 42.8524 23.6745 42.8022 24.0031C42.7519 24.3233 42.7184 24.9722 42.71 25.4356C42.71 26.7754 42.953 27.2473 44.6036 29.0759C45.3912 29.9438 45.651 30.3904 45.6594 30.8538C45.6594 31.4016 45.475 31.6796 44.0422 33.2807C42.7687 34.6963 42.5676 35.3536 42.777 37.3506C43.0954 40.3842 43.0535 40.4347 39.9366 41.1004C37.9424 41.5217 37.5151 41.8841 36.1828 44.2603C35.8393 44.8754 35.5209 45.3305 35.2779 45.5411C34.9511 45.8361 34.859 45.8698 34.4819 45.8698C34.0546 45.8698 33.6775 45.7349 32.0436 45.0018C30.2757 44.2013 29.6389 44.2435 27.3515 45.2546C26.3711 45.6928 25.9857 45.8276 25.5919 45.8529C25.1059 45.8866 25.0808 45.8782 24.7121 45.5496C24.4607 45.3305 24.1507 44.8839 23.7988 44.2603C22.4749 41.9009 22.0392 41.5301 20.0869 41.1088C18.3609 40.7296 18.076 40.6454 17.7241 40.46C17.0621 40.0892 16.97 39.5415 17.2046 37.3338C17.4392 35.1766 17.2465 34.6963 15.378 32.6487C14.5904 31.7807 14.3222 31.3173 14.3222 30.837C14.3222 30.382 14.5569 29.9859 15.3864 29.0674C16.9784 27.3063 17.2632 26.767 17.2716 25.562C17.28 25.166 17.2297 24.4497 17.1711 23.961C17.1124 23.4723 17.0789 22.7813 17.0957 22.4274C17.1292 21.8797 17.1627 21.7448 17.3387 21.5595C17.6654 21.2055 18.0676 21.0454 19.1904 20.8011C20.7824 20.464 21.193 20.346 21.7208 20.0595C22.3744 19.7141 22.7849 19.2169 23.6061 17.7928C24.3769 16.4446 24.5445 16.2255 24.9635 15.9643C25.3405 15.7284 25.7595 15.7705 26.6728 16.1581ZM19.6429 42.3728C20.7991 42.6256 21.2851 42.8362 21.6035 43.2491C21.7292 43.4177 22.1314 44.0749 22.4917 44.7069C23.1033 45.7939 23.6312 46.468 24.1423 46.8472L24.3602 47.0073L23.1788 49.0634L22.0057 51.1195L21.394 48.8527C20.7154 46.2827 20.7237 46.3164 20.5143 46.2068C20.2629 46.0636 20.0786 46.1057 17.8246 46.7124C16.6181 47.041 15.621 47.2854 15.6042 47.2686C15.5372 47.2012 18.4698 42.1621 18.5787 42.1621C18.6374 42.1621 19.115 42.2548 19.6429 42.3728ZM42.9614 44.7069C43.7574 46.0973 44.3942 47.2601 44.369 47.277C44.3523 47.3023 43.3552 47.0495 42.157 46.7208C39.9785 46.1226 39.7606 46.0804 39.5009 46.1731C39.283 46.2574 39.1741 46.5607 38.5792 48.8359C38.2608 50.0324 37.9843 51.0099 37.9592 51.0099C37.934 51.0099 37.3894 50.1083 36.761 49.0044C35.6131 47.0158 35.6047 47.0073 35.7974 46.8894C36.2834 46.5692 36.8615 45.8192 37.5067 44.6816C38.2943 43.2913 38.5457 42.9795 39.0987 42.7351C39.4255 42.5919 41.118 42.179 41.428 42.1706C41.4783 42.1706 42.1654 43.3081 42.9614 44.7069Z" fill="#212121"/>
<path d="M28.4405 20.4643C27.3261 20.6413 26.4798 20.9109 25.4241 21.4334C22.3239 22.967 20.2291 25.7983 19.6677 29.2194C19.5337 30.0199 19.5421 31.7726 19.6761 32.5563C20.4386 36.938 23.8907 40.435 28.2142 41.1934C29.1359 41.3535 30.862 41.3535 31.8004 41.1934C34.3644 40.7384 36.7859 39.23 38.3695 37.0981C39.2828 35.8679 40.0369 34.0899 40.305 32.5563C40.4391 31.7726 40.4474 30.0199 40.3134 29.2194C39.8693 26.5314 38.4198 24.1046 36.2831 22.4783C35.4452 21.8378 33.8281 21.012 32.9232 20.7593C31.4569 20.3548 29.8146 20.2452 28.4405 20.4643ZM31.2139 21.7789C33.1662 22.0485 34.8336 22.8743 36.2915 24.2815C39.9782 27.8459 40.0285 33.6854 36.4004 37.3172C35.2609 38.4548 33.9035 39.2469 32.2864 39.6935C31.5239 39.9042 31.3312 39.9294 29.9906 39.9294C28.6499 39.9294 28.4572 39.9042 27.6864 39.6935C22.1814 38.1683 19.341 32.1181 21.7373 27.0201C22.2233 25.9837 22.6171 25.4022 23.3712 24.6017C25.4408 22.4024 28.3148 21.3744 31.2139 21.7789Z" fill="#212121"/>
<path d="M35.6046 26.5477C35.5375 26.573 33.9204 28.1487 32.0268 30.0531L28.5663 33.5164L26.5805 31.5277C25.2315 30.1879 24.5025 29.5138 24.3433 29.4717C23.8741 29.3537 23.4468 29.8087 23.5641 30.2891C23.5976 30.3986 24.6617 31.5446 25.9521 32.8254C28.0971 34.991 28.2981 35.168 28.5663 35.168C28.8428 35.168 29.1109 34.9152 32.6552 31.3508C36.0235 27.9549 36.4424 27.4999 36.4424 27.2724C36.4424 26.8932 36.367 26.7499 36.0989 26.6151C35.8475 26.4803 35.8057 26.4719 35.6046 26.5477Z" fill="#212121"/>
</svg>
