<svg width="60" height="60" viewBox="0 0 60 60" fill="none" xmlns="http://www.w3.org/2000/svg">
<circle cx="30" cy="30" r="29" stroke="#B21D0C" stroke-width="2"/>
<path d="M29.6173 13.8628C28.9376 14.24 29.2267 15.3242 30.0001 15.3242C30.3985 15.3242 30.7813 14.9392 30.7813 14.5464C30.7813 13.9571 30.1329 13.5721 29.6173 13.8628Z" fill="#212121"/>
<path d="M20.1018 16.0708C19.7815 16.2043 19.5628 16.6286 19.6409 16.9429C19.7034 17.1943 25.0315 22.6312 25.4065 22.8355C25.719 23.0005 25.9768 22.9691 26.2425 22.7412C26.5628 22.4741 26.6331 22.0891 26.4221 21.7513C26.1721 21.3506 20.93 16.1258 20.68 16.0394C20.4065 15.9372 20.4065 15.9372 20.1018 16.0708Z" fill="#212121"/>
<path d="M39.2581 16.079C38.9925 16.2125 34.0159 21.1623 33.6644 21.6416C33.3597 22.058 33.3675 22.3409 33.7034 22.6787C33.9925 22.9694 34.2503 23.0166 34.5941 22.8359C34.9691 22.6316 40.2972 17.1947 40.3597 16.9432C40.4378 16.6211 40.2191 16.2047 39.8831 16.0633C39.555 15.9297 39.5472 15.9297 39.2581 16.079Z" fill="#212121"/>
<path d="M29.7188 16.9663C29.625 17.0056 29.4766 17.1392 29.3828 17.257C29.2266 17.4613 29.2188 17.532 29.2188 19.8969C29.2188 22.5289 29.2344 22.6625 29.6484 22.8511C29.9062 22.9689 30.0938 22.9689 30.3516 22.8511C30.7656 22.6625 30.7812 22.5289 30.7812 19.889V17.4456L30.5703 17.2099C30.3359 16.9584 29.9844 16.8563 29.7188 16.9663Z" fill="#212121"/>
<path d="M17.844 21.6176C17.5705 21.759 10.1252 31.0851 10.0471 31.3915C10.0002 31.5722 10.0002 31.7294 10.0627 31.8551C10.1096 31.9572 11.0471 32.8215 12.1486 33.7721L14.1486 35.5006L15.8674 37.8263C16.8049 39.1069 17.5783 40.1754 17.5783 40.2069C17.5783 40.2304 17.4768 40.419 17.344 40.6154C16.6565 41.6997 16.7815 43.0746 17.6565 44.0331C18.0158 44.426 18.8049 44.866 19.1565 44.866C19.3752 44.866 19.3752 44.866 19.3752 45.3767C19.3752 45.6988 19.4377 46.0445 19.5393 46.3352C19.8674 47.2309 20.9924 48.0873 21.8283 48.0873C22.1174 48.0873 22.1877 48.1815 22.1877 48.5665C22.1877 48.6922 22.2502 48.9437 22.3205 49.1244C22.7502 50.2322 23.6877 50.9079 24.8752 50.955L25.3518 50.9707L25.4065 51.2614C25.5705 52.0393 26.1721 52.7935 26.9377 53.1706C27.3283 53.3671 27.469 53.3906 28.1252 53.3906C28.7893 53.3906 28.9143 53.3671 29.2893 53.1706C29.5158 53.0449 29.8752 52.7856 30.0783 52.5971C30.2815 52.4085 30.469 52.2514 30.4924 52.2514C30.5236 52.2514 30.7033 52.3692 30.8986 52.5185C32.008 53.3749 33.5315 53.2963 34.5236 52.33C34.9143 51.945 35.219 51.3479 35.3283 50.7586L35.4065 50.3107L35.8049 50.2636C36.9533 50.1222 37.9221 49.1558 38.1408 47.9301L38.219 47.4823L38.6174 47.4352C39.7736 47.2937 40.7346 46.3352 40.9533 45.0938C41.0236 44.6617 41.0471 44.6303 41.2424 44.6303C41.9377 44.6303 42.8752 44.0803 43.3049 43.4282C43.8596 42.5875 43.9533 41.6054 43.5549 40.7254L43.3674 40.3169L44.633 37.6534L45.9065 34.9899L47.883 33.2771C48.969 32.3343 49.8908 31.4779 49.9299 31.3758C49.969 31.2737 50.0002 31.1008 50.0002 30.9987C50.0002 30.7787 43.2424 21.8848 42.9065 21.6648C42.7736 21.5783 42.6096 21.5391 42.4455 21.5626C42.3049 21.5783 41.2502 22.2069 39.9846 23.0161L37.758 24.4382H34.8908H32.0158L29.8518 25.0668C28.6565 25.4125 27.6096 25.6953 27.5315 25.6953C27.4533 25.6875 26.3986 25.4203 25.1955 25.0825L23.008 24.4775L20.758 23.0397C18.5158 21.6019 18.1877 21.4448 17.844 21.6176ZM19.8596 24.3282C20.6486 24.8311 21.3361 25.2868 21.3908 25.3418C21.4768 25.4203 20.8986 26.1746 18.1018 29.5923C16.2424 31.8786 14.6721 33.7486 14.6252 33.7486C14.4611 33.7486 11.883 31.4779 11.9377 31.3837C12.0783 31.1558 18.3283 23.4168 18.3752 23.4168C18.4065 23.4168 19.0783 23.8254 19.8596 24.3282ZM45.2346 27.1567C46.8049 29.2152 48.0861 30.9201 48.0861 30.9515C48.0861 31.0144 45.4611 33.3086 45.3908 33.3164C45.3674 33.3164 43.9611 31.5486 42.2736 29.3802C39.6955 26.0803 39.219 25.4282 39.3049 25.3418C39.4377 25.216 42.2815 23.4168 42.344 23.4168C42.3674 23.4247 43.6643 25.1061 45.2346 27.1567ZM40.9846 30.2994C42.8283 32.6565 44.3283 34.605 44.3205 34.6364C44.2971 34.7307 42.258 39.0126 42.219 39.0441C42.1955 39.0676 40.1721 37.0641 37.7111 34.5971C33.3361 30.2051 33.2346 30.1108 32.8908 30.0637C32.6955 30.0401 31.6252 29.9616 30.508 29.8909C28.6955 29.7651 28.4533 29.7651 28.2502 29.8751C28.0861 29.9616 27.7424 30.4958 26.8596 32.0672C26.219 33.2064 25.633 34.2043 25.5627 34.2907C25.0549 34.8564 24.0705 34.7464 23.6721 34.0864C23.4846 33.7721 23.469 33.2457 23.6408 32.9C23.7111 32.7586 24.3986 31.5251 25.1721 30.1501L26.5783 27.6595L26.9846 27.5417C27.2033 27.4788 28.4533 27.1095 29.7658 26.7246L32.1486 26.0253L34.8908 26.0174L37.633 26.0096L40.9846 30.2994ZM23.8674 26.3553C24.258 26.4574 24.719 26.5831 24.9065 26.6381C25.0861 26.6853 25.2346 26.7481 25.2346 26.7874C25.2346 26.8188 24.6018 27.9738 23.8205 29.3566C22.0705 32.4522 22.0549 32.4993 21.969 33.0336C21.7815 34.2278 22.3674 35.3906 23.4533 35.9642C23.8283 36.1606 23.9377 36.1842 24.6877 36.1842C25.4377 36.1842 25.5471 36.1606 25.9221 35.9642C26.6018 35.6028 26.8674 35.2571 28.0002 33.2457L29.0783 31.3444L29.3596 31.3837C29.5236 31.4072 30.3049 31.4701 31.1096 31.5172L32.5627 31.6115L37.3283 36.412C41.5705 40.6783 42.1096 41.2518 42.1877 41.5425C42.4455 42.5403 41.4299 43.3889 40.5236 42.9332C40.383 42.8625 39.0627 41.574 37.5783 40.0654L34.883 37.3156L34.5471 37.3234C34.0158 37.3234 33.6565 37.7948 33.7815 38.3134C33.8205 38.4469 34.8752 39.5705 36.5549 41.2833C39.508 44.2688 39.5315 44.3003 39.3752 44.9681C39.2111 45.6988 38.3752 46.0916 37.7111 45.7616C37.5705 45.6988 36.633 44.7953 35.6252 43.7582L33.7893 41.8725L33.4299 41.8804C32.9299 41.8804 32.6565 42.1475 32.6565 42.6503V43.0039L34.5627 44.9367C36.1486 46.5395 36.4846 46.9245 36.5549 47.1837C36.7893 48.0873 36.0393 48.8572 35.1018 48.6765C34.8596 48.6294 34.6018 48.4173 33.633 47.4509C32.5393 46.3588 32.4455 46.2802 32.1643 46.2802C31.594 46.2802 31.219 46.7752 31.4065 47.2702C31.4533 47.3959 31.9768 47.993 32.5783 48.598C33.7815 49.8236 33.8986 50.0279 33.7424 50.6564C33.5236 51.5128 32.4846 51.8114 31.7736 51.2221L31.4846 50.9864L31.6252 50.735C31.7268 50.5465 31.758 50.295 31.758 49.6979C31.758 48.9908 31.7346 48.873 31.5393 48.4801C31.1721 47.7573 30.5783 47.2544 29.8361 47.0345L29.5158 46.9402L29.5002 46.2723C29.4846 45.5024 29.2658 44.9367 28.7893 44.4024C28.4299 44.0096 27.6799 43.6246 27.1252 43.5539C26.7502 43.5146 26.719 43.491 26.719 43.2946C26.719 42.9882 26.5002 42.2889 26.2971 41.9668C26.0471 41.574 25.5158 41.1104 25.0861 40.914C24.8127 40.7883 24.5705 40.749 24.0393 40.7411H23.3596L23.2736 40.4269C23.0705 39.649 22.3674 38.8791 21.594 38.5884C21.2111 38.4391 21.0236 38.4155 20.469 38.4391C19.8205 38.4705 19.4221 38.6119 18.8908 38.9891C18.7736 39.0755 18.7346 39.0598 18.6408 38.9341C18.5783 38.8476 17.9065 37.9441 17.1565 36.9306C16.3986 35.917 15.7893 35.0371 15.8049 34.9821C15.8361 34.7935 22.9846 26.096 23.0783 26.1274C23.1252 26.1432 23.4846 26.2453 23.8674 26.3553ZM21.258 40.1754C21.7424 40.4976 21.9221 41.1183 21.6877 41.6682C21.5158 42.0768 20.3283 43.1846 19.9533 43.2867C19.3518 43.4517 18.7815 43.1453 18.5549 42.5482C18.3283 41.9668 18.4299 41.7154 19.1643 40.9533C19.5158 40.584 19.9143 40.2226 20.0393 40.144C20.3752 39.9319 20.9221 39.9476 21.258 40.1754ZM24.5002 42.3989C24.9846 42.6346 25.2268 43.1532 25.1174 43.7424C25.0705 43.986 24.8752 44.2374 23.9611 45.1645C23.3518 45.7852 22.758 46.3431 22.6408 46.4059C22.3361 46.563 21.8049 46.5473 21.5002 46.3588C20.9924 46.0445 20.7815 45.3138 21.0471 44.8031C21.2033 44.5046 23.2815 42.4539 23.5158 42.3596C23.8127 42.2418 24.2033 42.2575 24.5002 42.3989ZM27.2111 45.2117C27.7658 45.4395 28.0705 46.0916 27.9065 46.6573C27.7736 47.0816 25.6252 49.2187 25.219 49.3286C24.5471 49.5094 23.844 49.0458 23.7736 48.378C23.7502 48.1815 23.758 47.9223 23.7893 47.7966C23.8518 47.5294 25.9455 45.3688 26.2893 45.2117C26.594 45.0781 26.8986 45.0781 27.2111 45.2117ZM29.6408 48.6608C30.1799 48.9672 30.383 49.6665 30.1096 50.2479C30.0393 50.3972 29.6955 50.7979 29.3361 51.1436C28.8596 51.6071 28.6096 51.7878 28.4065 51.8193C27.969 51.9057 27.5783 51.7957 27.2971 51.5128C27.0627 51.2771 26.8518 50.7743 26.9143 50.5779C26.9299 50.5229 26.9611 50.3815 26.9924 50.2558C27.0236 50.1143 27.2815 49.7686 27.6408 49.3994C28.5158 48.488 29.0236 48.2994 29.6408 48.6608Z" fill="#212121"/>
</svg>
