<svg width="19" height="25" viewBox="0 0 19 25" fill="none" xmlns="http://www.w3.org/2000/svg">
<path fill-rule="evenodd" clip-rule="evenodd" d="M0 8.04395C0 7.49166 0.447717 7.04395 1 7.04395H9.39274H17.7855C18.3378 7.04395 18.7855 7.49166 18.7855 8.04395V10.5659C18.7855 10.5661 18.7853 10.5662 18.7852 10.5662C18.785 10.5662 18.7848 10.5664 18.7848 10.5666V11.1529C18.7848 11.4769 18.5222 11.7396 18.1982 11.7396H14.6751C14.3511 11.7396 14.0885 11.4769 14.0885 11.1529C14.0885 10.8289 13.8258 10.5662 13.5018 10.5662H10.3927C9.84046 10.5662 9.39274 11.0139 9.39274 11.5662V23.6553C9.39274 24.2076 8.94502 24.6553 8.39274 24.6553H1C0.447715 24.6553 0 24.2076 0 23.6553V10.5662V8.04395Z" fill="#C2C2C2"/>
<path fill-rule="evenodd" clip-rule="evenodd" d="M1.76305e-08 1.17371C-2.20381e-08 1.17384 1.76305e-08 1.17397 1.76305e-08 1.17409L1.76305e-08 4.87009C1.76305e-08 5.42237 0.447716 5.87009 1 5.87009H7.21865C7.77093 5.87009 8.21865 5.42237 8.21865 4.87008V3.34819C8.21865 2.7959 8.66636 2.34819 9.21865 2.34819H15.2632C15.9116 2.34819 16.4373 1.82253 16.4373 1.17409C16.4373 0.525659 15.9116 0 15.2632 0L1.17409 0C0.525785 0 0.000204199 0.525455 1.76305e-08 1.17371Z" fill="#C2C2C2"/>
</svg>
