<svg width="49" height="49" viewBox="0 0 49 49" fill="none" xmlns="http://www.w3.org/2000/svg">
<g clip-path="url(#clip0_1975_487)">
<path d="M49 28.7949H0V31.6641H49V28.7949Z" fill="white"/>
<path d="M0 48.9999H3.00264V45.743H20.1643V34.542H0V48.9999ZM3.00264 37.4026H17.1616V42.8824H3.00264V37.4026Z" fill="white"/>
<path d="M23.0979 45.743H34.4527V48.9999H37.5848V45.743H49V34.542H23.1152L23.0979 45.743ZM37.5848 37.4026H46.006V42.8824H37.5848V37.4026ZM26.1005 37.4026H34.4527V42.8824H26.1005V37.4026Z" fill="white"/>
<path d="M26.0057 0H14.4783V25.9691H26.0057V0ZM22.9944 23.0913H17.4895V2.87779H22.9944V23.0913Z" fill="white"/>
<path d="M31.9591 8.64199L37.4726 2.87779V25.9691H40.4839V8.64199L45.9887 2.87779V25.9691H49V0H44.7721L40.4839 4.47178V0H36.256L28.9479 7.54774V25.9691H31.9591V8.64199Z" fill="white"/>
<path d="M8.51611 25.9691H11.5274V0H7.29952L0 7.54774V25.9691H8.51611ZM3.01127 8.61614L8.51611 2.87779V23.0913H3.01127V8.61614Z" fill="white"/>
</g>
<defs>
<clipPath id="clip0_1975_487">
<rect width="49" height="49" fill="white"/>
</clipPath>
</defs>
</svg>
