<svg width="170" height="69" viewBox="0 0 170 69" fill="none" xmlns="http://www.w3.org/2000/svg">
<g clip-path="url(#clip0_532_3555)">
<path fill-rule="evenodd" clip-rule="evenodd" d="M6.54025 27.4885L25.9099 8.54839L45.2795 27.4885L45.2756 48.1765H6.54421L6.54025 27.4885ZM157.615 55.2582H161.951V47.0264H162.012C162.463 47.6891 162.971 48.155 163.535 48.4242C164.098 48.6935 164.77 48.828 165.549 48.828C166.635 48.828 167.471 48.5588 168.055 48.0204C168.639 47.482 169.059 46.8089 169.316 46.0013C169.572 45.1936 169.715 44.3187 169.746 43.3764C169.776 42.4489 169.792 41.5966 169.792 40.8195V40.7446C169.792 39.9472 169.776 39.0746 169.746 38.1266C169.715 37.1636 169.567 36.268 169.3 35.4396C169.034 34.6113 168.608 33.9175 168.024 33.3583C167.44 32.7992 166.584 32.5197 165.456 32.5197C164.616 32.5197 163.898 32.6698 163.304 32.9701C162.709 33.2704 162.207 33.8036 161.797 34.5698H161.736V32.8303H157.615V55.2582ZM57.9731 34.1039H58.0346C58.4446 33.4205 58.9571 32.9338 59.5721 32.6439C60.1462 32.354 60.8534 32.209 61.6939 32.209C62.2064 32.209 62.6984 32.2867 63.1699 32.442C63.6414 32.5973 64.0514 32.8199 64.3999 33.1099C64.7484 33.3998 65.0303 33.757 65.2455 34.1816C65.4608 34.6061 65.5684 35.0876 65.5684 35.626V48.2068H61.2326V37.3967C61.2326 36.6925 61.1353 36.1023 60.9405 35.626C60.7457 35.1497 60.2999 34.9115 59.6028 34.9115C58.9059 34.9115 58.46 35.1497 58.2652 35.626C58.0705 36.1023 57.9731 36.6925 57.9731 37.3967V48.2068H53.6374V32.5197H57.9731V34.1039ZM80.9638 41.3728C80.9638 41.8491 80.9792 42.3565 81.0099 42.8949C81.0407 43.4333 81.1175 43.9355 81.2405 44.4015C81.3686 44.8674 81.5634 45.2557 81.8299 45.5664C82.1015 45.877 82.4705 46.0323 82.9471 46.0323C83.3418 46.0323 83.6544 45.9495 83.8953 45.7838C84.131 45.6182 84.3155 45.4007 84.4487 45.1315C84.5871 44.8623 84.6794 44.562 84.7307 44.2307C84.7819 43.8993 84.8075 43.5679 84.8075 43.2366H89.2048C89.1433 44.9969 88.5898 46.3534 87.5443 47.3059C87.0318 47.7822 86.3963 48.155 85.6377 48.4242C84.8792 48.6935 83.9875 48.828 82.9625 48.828C81.5685 48.828 80.4513 48.6209 79.6107 48.2068C78.7702 47.7926 78.1296 47.2179 77.6889 46.4828C77.2481 45.7476 76.9611 44.8674 76.8279 43.8423C76.6946 42.8172 76.628 41.6938 76.628 40.4719C76.628 39.3951 76.6895 38.3751 76.8125 37.4122C76.9355 36.4492 77.2123 35.6053 77.6427 34.8805C78.0733 34.1557 78.7088 33.581 79.5493 33.1565C80.3897 32.7319 81.5275 32.5197 82.9625 32.5197C84.4181 32.5197 85.5763 32.7475 86.4373 33.2031C87.2983 33.6587 87.944 34.2799 88.3746 35.0669C88.8051 35.8538 89.0767 36.7857 89.1894 37.8626C89.3022 38.9395 89.338 40.1096 89.297 41.3728H80.9638ZM84.9613 38.9188C84.9613 38.546 84.9559 38.1422 84.9459 37.7073C84.9357 37.2724 84.869 36.8686 84.746 36.4958C84.623 36.1231 84.4181 35.8175 84.1412 35.5794C83.8594 35.3413 83.4648 35.2222 82.9471 35.2222C82.45 35.2222 82.0708 35.3516 81.7991 35.6105C81.5326 35.8694 81.3379 36.1903 81.2098 36.5734C81.0868 36.9566 81.015 37.3604 80.9945 37.7849C80.974 38.2095 80.9638 38.5874 80.9638 38.9188H84.9613ZM67.4389 32.8303H69.1917V30.3452L73.5275 28.3882V32.8303H75.7722V35.5329H73.5275V43.92C73.5275 44.2099 73.5328 44.4791 73.5428 44.7277C73.5531 44.9762 73.5992 45.1833 73.6812 45.3489C73.7632 45.5146 73.9016 45.6441 74.0963 45.7372C74.2911 45.8305 74.5627 45.877 74.9112 45.877C75.0547 45.877 75.188 45.877 75.3109 45.877C75.4544 45.877 75.5775 45.8563 75.6799 45.8149V48.5174C75.393 48.5588 75.0804 48.5951 74.7421 48.6262C74.4038 48.6572 73.9682 48.6727 73.4352 48.6727C72.4922 48.6727 71.7439 48.5381 71.1905 48.2689C70.6369 47.9997 70.2116 47.6787 69.9143 47.3059C69.6171 46.9332 69.4223 46.55 69.3301 46.1566C69.2378 45.7632 69.1917 45.4421 69.1917 45.1936V35.5329H67.4389V32.8303ZM95.1036 26.0895V48.5174H90.7678V26.0895H95.1036ZM14.2845 27.485H18.0526V45.419H14.2845V27.485ZM22.2829 27.485H31.8212V45.419H22.2829V27.485ZM33.9228 27.485H37.6909V37.5817H33.9228V27.485ZM112.09 32.9856C112.09 32.4679 112.064 31.9709 112.013 31.4946C111.962 31.0182 111.839 30.6041 111.644 30.252C111.449 29.9 111.168 29.6152 110.799 29.3978C110.43 29.1803 109.938 29.0716 109.323 29.0716C108.605 29.0716 108.052 29.2994 107.662 29.755C107.273 30.2106 106.986 30.8215 106.801 31.5877C106.617 32.354 106.509 33.2393 106.478 34.2437C106.447 35.2481 106.432 36.2887 106.432 37.3656C106.432 39.1258 106.483 40.5444 106.586 41.6214C106.688 42.6982 106.863 43.5317 107.109 44.1219C107.355 44.7121 107.693 45.1108 108.123 45.3179C108.554 45.5249 109.097 45.6285 109.753 45.6285C110.143 45.6285 110.537 45.5871 110.937 45.5042C111.337 45.4214 111.711 45.3179 112.059 45.1936V40.2234H109.538V36.7754H116.703V48.1447C116.395 48.2068 115.98 48.2793 115.457 48.3621C114.934 48.4449 114.376 48.5278 113.781 48.6106C113.187 48.6935 112.592 48.7608 111.998 48.8126C111.403 48.8643 110.881 48.8901 110.43 48.8901C108.482 48.8901 106.929 48.6779 105.771 48.2534C104.613 47.8289 103.736 47.1454 103.142 46.2032C102.547 45.261 102.163 44.0443 101.989 42.5532C101.814 41.0621 101.727 39.2501 101.727 37.1171C101.727 35.7089 101.784 34.3213 101.896 32.9545C102.009 31.5877 102.317 30.3711 102.819 29.3046C103.321 28.2381 104.1 27.3735 105.156 26.7107C106.212 26.0481 107.693 25.7167 109.599 25.7167C110.727 25.7167 111.747 25.8773 112.659 26.1982C113.571 26.5192 114.34 26.9851 114.965 27.5961C115.59 28.207 116.052 28.9629 116.349 29.8637C116.646 30.7646 116.764 31.8052 116.703 32.9856H112.09ZM123.664 32.8303V34.8494H123.725C124.135 33.9383 124.689 33.3221 125.386 33.0011C126.083 32.6802 126.872 32.5197 127.753 32.5197V36.4337C126.79 36.3716 126.047 36.4492 125.524 36.6667C125.001 36.8841 124.617 37.174 124.371 37.5364C124.125 37.8988 123.981 38.2975 123.94 38.7324C123.899 39.1673 123.879 39.5814 123.879 39.9749V48.5174H119.543V32.8303H123.664ZM134.776 48.828C133.382 48.828 132.265 48.6209 131.424 48.2068C130.584 47.7926 129.943 47.2179 129.502 46.4828C129.061 45.7476 128.774 44.8674 128.641 43.8423C128.508 42.8172 128.441 41.6938 128.441 40.4719C128.441 39.3951 128.503 38.3751 128.626 37.4122C128.749 36.4492 129.026 35.6053 129.456 34.8805C129.887 34.1557 130.522 33.581 131.362 33.1565C132.203 32.7319 133.341 32.5197 134.776 32.5197C136.211 32.5197 137.349 32.7319 138.189 33.1565C139.03 33.581 139.665 34.1557 140.096 34.8805C140.526 35.6053 140.803 36.4492 140.926 37.4122C141.049 38.3751 141.11 39.3951 141.11 40.4719C141.11 41.6938 141.044 42.8172 140.91 43.8423C140.777 44.8674 140.49 45.7476 140.049 46.4828C139.609 47.2179 138.968 47.7926 138.128 48.2068C137.287 48.6209 136.17 48.828 134.776 48.828V48.828ZM134.776 46.0323C135.165 46.0323 135.493 45.9547 135.76 45.7994C136.026 45.6441 136.231 45.3541 136.375 44.9296C136.518 44.5051 136.621 43.9149 136.682 43.159C136.744 42.4031 136.775 41.4246 136.775 40.2234C136.775 39.4158 136.759 38.7013 136.728 38.0801C136.698 37.4588 136.611 36.9462 136.467 36.5424C136.324 36.1386 136.119 35.8331 135.852 35.626C135.586 35.419 135.227 35.3154 134.776 35.3154C134.304 35.3154 133.94 35.419 133.684 35.626C133.428 35.8331 133.228 36.1386 133.085 36.5424C132.941 36.9462 132.854 37.4588 132.823 38.0801C132.792 38.7013 132.777 39.4158 132.777 40.2234C132.777 41.4246 132.808 42.4031 132.869 43.159C132.931 43.9149 133.033 44.5051 133.177 44.9296C133.32 45.3541 133.52 45.6441 133.776 45.7994C134.033 45.9547 134.366 46.0323 134.776 46.0323V46.0323ZM150.808 46.9332H150.746C150.316 47.6373 149.803 48.1291 149.209 48.4087C148.614 48.6882 147.907 48.828 147.087 48.828C146.575 48.828 146.083 48.7504 145.611 48.5951C145.14 48.4398 144.73 48.2171 144.381 47.9272C144.033 47.6373 143.751 47.2801 143.536 46.8555C143.32 46.431 143.213 45.9495 143.213 45.4111V32.8303H147.549V43.7026C147.549 44.4067 147.646 44.9866 147.841 45.4421C148.035 45.8977 148.481 46.1255 149.178 46.1255C149.875 46.1255 150.321 45.8977 150.516 45.4421C150.711 44.9866 150.808 44.4067 150.808 43.7026V32.8303H155.144V45.4111C155.144 45.9288 155.159 46.4465 155.19 46.9643C155.221 47.482 155.257 47.9997 155.298 48.5174H150.808V46.9332ZM163.704 46.1255C164.483 46.1255 164.985 45.6855 165.21 44.8053C165.436 43.9252 165.549 42.5014 165.549 40.5341C165.549 39.7471 165.538 39.0275 165.518 38.3751C165.497 37.7228 165.431 37.1636 165.318 36.6977C165.205 36.2318 165.026 35.8694 164.78 35.6105C164.534 35.3516 164.175 35.2222 163.704 35.2222C163.253 35.2222 162.909 35.3516 162.674 35.6105C162.438 35.8694 162.264 36.2318 162.151 36.6977C162.038 37.1636 161.977 37.7228 161.966 38.3751C161.956 39.0275 161.951 39.7471 161.951 40.5341C161.951 42.5014 162.059 43.9252 162.274 44.8053C162.489 45.6855 162.966 46.1255 163.704 46.1255V46.1255ZM0.271973 30.3589L0.942269 30.3467L25.9099 5.93274L47.1696 26.6751V48.1765H51.7654L51.7675 25.368L25.9099 0.0839844L0.271973 25.1533V30.3589ZM35.5251 6.84978V3.36264L43.1969 3.3125V14.3349L35.5251 6.84978Z" fill="#B21D0C"/>
<path fill-rule="evenodd" clip-rule="evenodd" d="M11.3902 64.3712V64.6115C11.3902 64.9936 11.3578 65.3431 11.3037 65.638C11.2389 65.9328 11.1308 66.1949 10.9686 66.4024C10.8064 66.6099 10.5795 66.7737 10.3091 66.8829C10.039 66.9921 9.68222 67.0467 9.24973 67.0467C8.77407 67.0467 8.38495 66.9921 8.08225 66.872C7.77955 66.7628 7.54175 66.5989 7.37956 66.3806C7.26063 66.2276 7.17421 66.0639 7.10936 65.8783C7.04446 65.7035 7.0012 65.5178 6.96875 65.3212C6.93635 65.1247 6.91472 64.9172 6.9039 64.6988C6.89309 64.4913 6.88232 64.262 6.88232 64.0326V62.198C6.88232 61.7939 6.9039 61.4008 6.94717 61.0185C6.99043 60.6364 7.10936 60.3197 7.29313 60.0575C7.64986 59.5661 8.2876 59.3149 9.1957 59.3149C9.96324 59.3149 10.5146 59.4897 10.8713 59.8501C11.2172 60.1886 11.3902 60.7565 11.3902 61.5427V61.7721H9.87676V61.499C9.87676 61.3352 9.85513 61.1824 9.82273 61.0295C9.79023 60.8766 9.74707 60.7674 9.71462 60.7127C9.58488 60.538 9.4011 60.4507 9.17407 60.4507C9.00111 60.4507 8.8606 60.4944 8.76326 60.5817C8.65515 60.6691 8.57948 60.7892 8.52546 60.9421C8.47137 61.1059 8.42822 61.2916 8.41735 61.499C8.40653 61.7175 8.39571 61.9577 8.39571 62.2089V64.0544C8.39571 64.2947 8.40653 64.5241 8.41735 64.7425C8.42822 64.9718 8.47137 65.1684 8.52546 65.3431C8.57948 65.5178 8.65515 65.6598 8.76326 65.7581C8.8606 65.8564 9.01193 65.911 9.1957 65.911C9.42268 65.911 9.58488 65.8236 9.7038 65.6489C9.82273 65.4851 9.87676 65.212 9.87676 64.8298V64.3712H11.3902ZM13.4766 66.9375V60.5599H11.855V59.4242H16.6116V60.5599H14.99V66.9375H13.4766ZM17.4764 66.9375V59.4242H19.6168C20.0925 59.4242 20.4709 59.4569 20.7628 59.5225C21.0546 59.5989 21.2708 59.6972 21.4222 59.8391C21.8006 60.1995 21.9951 60.7892 21.9951 61.5974C21.9951 61.925 21.9735 62.2198 21.9411 62.471C21.8979 62.7221 21.833 62.9406 21.7465 63.1044C21.6601 63.2792 21.5411 63.4211 21.4006 63.5194C21.2601 63.6286 21.0871 63.716 20.9033 63.7705C20.7195 63.8361 20.5141 63.8797 20.2871 63.9016C20.0601 63.9234 19.8331 63.9343 19.5844 63.9343H18.9899V66.9375H17.4764ZM18.9899 62.7986H19.4763C19.7034 62.7986 19.8871 62.7768 20.0276 62.7331C20.1573 62.6894 20.2547 62.6239 20.3303 62.5256C20.3952 62.4382 20.4385 62.3181 20.4601 62.1761C20.4709 62.0342 20.4817 61.8703 20.4817 61.6738C20.4817 61.5319 20.4709 61.3898 20.4601 61.2479C20.4492 61.1169 20.4061 60.9967 20.352 60.8984C20.298 60.8002 20.2114 60.7127 20.1034 60.6472C19.9844 60.5927 19.8331 60.5599 19.6385 60.5599H18.9899V62.7986ZM27.4652 64.12C27.4652 64.6988 27.422 65.1793 27.3354 65.5615C27.249 65.9438 27.1084 66.2386 26.9246 66.457C26.7408 66.6754 26.503 66.8283 26.2112 66.9157C25.9193 67.003 25.5625 67.0467 25.141 67.0467C24.7193 67.0467 24.3734 67.003 24.0816 66.9157C23.7897 66.8283 23.541 66.6754 23.3572 66.4679C23.1735 66.2604 23.0329 65.9656 22.9465 65.6052C22.86 65.2448 22.8167 64.7752 22.8167 64.2183V61.7066C22.8167 61.237 22.8816 60.8438 23.0113 60.5272C23.1302 60.2214 23.3032 59.9811 23.5086 59.7954C23.714 59.6207 23.9626 59.5006 24.2437 59.4242C24.5248 59.3477 24.8274 59.3149 25.141 59.3149C25.4761 59.3149 25.7787 59.3477 26.0598 59.4242C26.3409 59.5006 26.5895 59.6207 26.7949 59.8064C27.0003 59.992 27.1733 60.2322 27.2922 60.538C27.4111 60.8548 27.4652 61.237 27.4652 61.7066V64.12ZM24.3302 64.7425C24.3302 64.9718 24.3518 65.1684 24.395 65.3103C24.4275 65.4633 24.4815 65.5833 24.5572 65.6707C24.6221 65.7581 24.7085 65.8236 24.8058 65.8564C24.9031 65.8891 25.022 65.911 25.141 65.911C25.2815 65.911 25.4112 65.8891 25.5085 65.8564C25.6058 65.8236 25.6923 65.7581 25.7571 65.6707C25.822 65.5833 25.8761 65.4633 25.9085 65.3103C25.9409 65.1684 25.9517 64.9718 25.9517 64.7425V61.7611C25.9517 61.4772 25.9301 61.2479 25.8976 61.0732C25.8652 60.9093 25.8112 60.7783 25.7463 60.6801C25.6706 60.5817 25.5842 60.5272 25.4868 60.4944C25.3896 60.4616 25.2707 60.4507 25.141 60.4507C25.022 60.4507 24.9139 60.4616 24.8166 60.4944C24.7194 60.5272 24.6329 60.5927 24.5572 60.6801C24.4815 60.7783 24.4275 60.9093 24.395 61.0732C24.3518 61.2479 24.3302 61.4772 24.3302 61.7611V64.7425ZM30.0056 59.4242V64.677L31.9406 59.4242H33.3784V66.9375H32.0812V61.8813L30.2217 66.9375H28.7084V59.4242H30.0056ZM35.8756 66.9375V60.5599H34.2541V59.4242H39.0106V60.5599H37.3891V66.9375H35.8756ZM43.5618 60.5599H41.3889V62.5038H43.378V63.6395H41.3889V65.8017H43.5618V66.9375H39.8755V59.4242H43.5618V60.5599ZM48.9777 59.4242V66.9375H47.4642V60.5599H46.2859V64.8517C46.2859 65.2776 46.2643 65.638 46.2102 65.911C46.1562 66.1949 46.059 66.4243 45.94 66.588C45.8211 66.7519 45.659 66.872 45.4644 66.9484C45.2589 67.0139 45.0103 67.0467 44.7184 67.0467C44.6212 67.0467 44.5023 67.0358 44.3617 67.0139C44.2212 66.9812 44.0914 66.9484 43.9725 66.9157V65.8673C44.0266 65.8783 44.0915 65.8891 44.1455 65.9001C44.1996 65.911 44.2536 65.911 44.3076 65.911C44.4914 65.911 44.6212 65.8236 44.686 65.6489C44.7401 65.4851 44.7725 65.2011 44.7725 64.808V59.4242H48.9777ZM51.8965 59.4242V62.4382H52.5344C52.837 62.4382 53.1289 62.46 53.41 62.5147C53.691 62.5693 53.9288 62.6675 54.1342 62.8313C54.3504 62.9952 54.5126 63.2245 54.6423 63.5194C54.7613 63.8252 54.8261 64.2292 54.8261 64.7206C54.8261 65.1247 54.7828 65.4741 54.6964 65.7471C54.6099 66.0311 54.4801 66.2604 54.2856 66.4351C54.1018 66.6099 53.864 66.7409 53.5721 66.8174C53.291 66.8938 52.9451 66.9375 52.5344 66.9375H50.3831V59.4242H51.8965ZM51.8965 65.8017H52.437C52.7722 65.8017 52.9991 65.7144 53.1289 65.5506C53.2478 65.3868 53.3127 65.081 53.3127 64.6551C53.3127 64.2511 53.2478 63.9671 53.118 63.8033C52.9883 63.6504 52.7613 63.5739 52.437 63.5739H51.8965V65.8017ZM60.1232 64.3712V64.6115C60.1232 64.9936 60.0908 65.3431 60.0367 65.638C59.9718 65.9328 59.8637 66.1949 59.7015 66.4024C59.5394 66.6099 59.3124 66.7737 59.0421 66.8829C58.7719 66.9921 58.4151 67.0467 57.9827 67.0467C57.507 67.0467 57.1179 66.9921 56.8152 66.872C56.5125 66.7628 56.2747 66.5989 56.1125 66.3806C55.9936 66.2276 55.9072 66.0639 55.8423 65.8783C55.7774 65.7035 55.7341 65.5178 55.7017 65.3212C55.6693 65.1247 55.6477 64.9172 55.6369 64.6988C55.626 64.4913 55.6153 64.262 55.6153 64.0326V62.198C55.6153 61.7939 55.6369 61.4008 55.6801 61.0185C55.7234 60.6364 55.8423 60.3197 56.026 60.0575C56.3828 59.5661 57.0206 59.3149 57.9286 59.3149C58.6962 59.3149 59.2475 59.4897 59.6042 59.8501C59.9502 60.1886 60.1232 60.7565 60.1232 61.5427V61.7721H58.6097V61.499C58.6097 61.3352 58.5881 61.1824 58.5557 61.0295C58.5232 60.8766 58.48 60.7674 58.4475 60.7127C58.3178 60.538 58.1341 60.4507 57.907 60.4507C57.7341 60.4507 57.5936 60.4944 57.4962 60.5817C57.3881 60.6691 57.3124 60.7892 57.2584 60.9421C57.2043 61.1059 57.1612 61.2916 57.1503 61.499C57.1395 61.7175 57.1287 61.9577 57.1287 62.2089V64.0544C57.1287 64.2947 57.1395 64.5241 57.1503 64.7425C57.1612 64.9718 57.2043 65.1684 57.2584 65.3431C57.3124 65.5178 57.3881 65.6598 57.4962 65.7581C57.5936 65.8564 57.7448 65.911 57.9286 65.911C58.1556 65.911 58.3178 65.8236 58.4368 65.6489C58.5557 65.4851 58.6097 65.212 58.6097 64.8298V64.3712H60.1232ZM62.2095 66.9375V60.5599H60.588V59.4242H65.3445V60.5599H63.723V66.9375H62.2095ZM68.2633 65.8017C68.6525 65.8017 68.9227 65.7253 69.0633 65.5615C69.2039 65.4086 69.2795 65.1465 69.2795 64.7643C69.2795 64.4258 69.2254 64.1528 69.1173 63.9562C68.9984 63.7597 68.793 63.6613 68.4903 63.6613H67.7228V65.8017H68.2633ZM66.2094 59.4242H68.8254C69.1065 59.4242 69.3659 59.4569 69.6038 59.5115C69.8308 59.577 70.0254 59.6862 70.1876 59.8282C70.3605 59.9811 70.4794 60.1886 70.5659 60.4398C70.6524 60.6909 70.6957 61.0185 70.6957 61.4008C70.6957 61.8267 70.62 62.1761 70.447 62.46C70.2849 62.744 70.0254 62.9297 69.6471 63.017L69.2903 63.1044L69.6578 63.1699C70.0362 63.2355 70.3173 63.4102 70.5119 63.6831C70.6957 63.9562 70.7929 64.3602 70.7929 64.8735C70.7929 65.3103 70.7497 65.6598 70.6632 65.9328C70.5659 66.2058 70.4254 66.4133 70.2308 66.5553C70.0362 66.7081 69.7876 66.8064 69.4741 66.8611C69.1714 66.9157 68.8039 66.9375 68.3714 66.9375H66.2094V59.4242ZM67.7228 62.5256H68.0688C68.2741 62.5256 68.4471 62.5147 68.5876 62.4929C68.7282 62.471 68.8363 62.4273 68.9336 62.3508C69.0201 62.2744 69.0849 62.1761 69.1281 62.056C69.1606 61.9358 69.1822 61.7611 69.1822 61.5537C69.1822 61.2042 69.1173 60.953 68.9768 60.7892C68.8363 60.6364 68.5876 60.5599 68.2525 60.5599H67.7228V62.5256ZM76.3278 64.12C76.3278 64.6988 76.2846 65.1793 76.1981 65.5615C76.1116 65.9438 75.971 66.2386 75.7873 66.457C75.6035 66.6754 75.3657 66.8283 75.0738 66.9157C74.782 67.003 74.4252 67.0467 74.0036 67.0467C73.582 67.0467 73.2361 67.003 72.9442 66.9157C72.6523 66.8283 72.4037 66.6754 72.2199 66.4679C72.0362 66.2604 71.8955 65.9656 71.8091 65.6052C71.7226 65.2448 71.6794 64.7752 71.6794 64.2183V61.7066C71.6794 61.237 71.7443 60.8438 71.874 60.5272C71.9929 60.2214 72.1658 59.9811 72.3712 59.7954C72.5767 59.6207 72.8253 59.5006 73.1064 59.4242C73.3874 59.3477 73.6901 59.3149 74.0036 59.3149C74.3387 59.3149 74.6414 59.3477 74.9225 59.4242C75.2036 59.5006 75.4522 59.6207 75.6576 59.8064C75.863 59.992 76.036 60.2322 76.1549 60.538C76.2738 60.8548 76.3278 61.237 76.3278 61.7066V64.12ZM73.1928 64.7425C73.1928 64.9718 73.2144 65.1684 73.2577 65.3103C73.2902 65.4633 73.3442 65.5833 73.4198 65.6707C73.4847 65.7581 73.5712 65.8236 73.6685 65.8564C73.7658 65.8891 73.8847 65.911 74.0036 65.911C74.1441 65.911 74.2739 65.8891 74.3712 65.8564C74.4684 65.8236 74.5549 65.7581 74.6198 65.6707C74.6847 65.5833 74.7387 65.4633 74.7711 65.3103C74.8035 65.1684 74.8144 64.9718 74.8144 64.7425V61.7611C74.8144 61.4772 74.7928 61.2479 74.7603 61.0732C74.7279 60.9093 74.6739 60.7783 74.609 60.6801C74.5333 60.5817 74.4468 60.5272 74.3495 60.4944C74.2522 60.4616 74.1334 60.4507 74.0036 60.4507C73.8847 60.4507 73.7766 60.4616 73.6793 60.4944C73.582 60.5272 73.4955 60.5927 73.4198 60.6801C73.3442 60.7783 73.2902 60.9093 73.2577 61.0732C73.2144 61.2479 73.1928 61.4772 73.1928 61.7611V64.7425ZM81.8627 62.4382C82.1114 62.4382 82.3059 62.34 82.4248 62.1543C82.5438 61.9687 82.5978 61.7393 82.5978 61.4663C82.5978 61.1059 82.5438 60.8438 82.4464 60.6801C82.3384 60.5272 82.1438 60.4507 81.8627 60.4507C81.6141 60.4507 81.4303 60.538 81.3005 60.7127C81.2681 60.7674 81.2249 60.8766 81.1924 61.0295C81.1493 61.1824 81.1276 61.3352 81.1276 61.499V61.7721H79.6141V61.5427C79.6141 60.7565 79.7871 60.1886 80.1439 59.8501C80.5006 59.4897 81.0627 59.3149 81.8411 59.3149C82.6194 59.3149 83.1924 59.4897 83.5599 59.8501C83.9275 60.2104 84.1112 60.7127 84.1112 61.3789C84.1112 61.5755 84.0788 61.7611 84.0248 61.9468C83.9599 62.1325 83.8734 62.2963 83.7545 62.4382C83.6356 62.5802 83.5059 62.7113 83.3437 62.8205C83.1816 62.9297 82.9978 63.0061 82.8032 63.0498C83.3221 63.148 83.6896 63.3555 83.9166 63.6504C84.1329 63.9453 84.2409 64.3166 84.2409 64.7534C84.2409 65.496 84.0464 66.0639 83.6573 66.457C83.268 66.8501 82.6735 67.0467 81.8735 67.0467C81.4411 67.0467 81.0735 66.9921 80.7708 66.8829C80.4681 66.7846 80.2303 66.6317 80.0466 66.4243C79.8628 66.2167 79.7223 65.9656 79.6466 65.6598C79.5601 65.3541 79.5169 65.0046 79.5169 64.6115V64.3712H81.0303V64.8298C81.0303 65.2557 81.106 65.5397 81.2574 65.6816C81.4087 65.8346 81.6249 65.911 81.8951 65.911C82.187 65.911 82.4033 65.8126 82.533 65.6052C82.6626 65.4086 82.7275 65.1247 82.7275 64.7534C82.7275 64.3057 82.6411 63.9998 82.4573 63.8252C82.2735 63.6613 82.0248 63.5739 81.7221 63.5739H81.2789V62.4382H81.8627ZM86.1112 66.9375H84.6302L86.3057 59.4242H88.1219L89.8083 66.9375H88.3165L88.0138 65.2994H86.4139L86.1112 66.9375ZM87.2138 60.8111L86.6084 64.1637H87.8192L87.2138 60.8111ZM90.5867 59.4242H94.0568V60.5599H92.1001V66.9375H90.5867V59.4242ZM99.2565 64.12C99.2565 64.6988 99.2133 65.1793 99.1268 65.5615C99.0404 65.9438 98.8998 66.2386 98.716 66.457C98.5323 66.6754 98.2944 66.8283 98.0025 66.9157C97.7107 67.003 97.354 67.0467 96.9323 67.0467C96.5108 67.0467 96.1648 67.003 95.8729 66.9157C95.581 66.8283 95.3324 66.6754 95.1486 66.4679C94.9649 66.2604 94.8243 65.9656 94.7378 65.6052C94.6514 65.2448 94.6081 64.7752 94.6081 64.2183V61.7066C94.6081 61.237 94.673 60.8438 94.8027 60.5272C94.9216 60.2214 95.0946 59.9811 95.3 59.7954C95.5054 59.6207 95.754 59.5006 96.0351 59.4242C96.3161 59.3477 96.6188 59.3149 96.9323 59.3149C97.2674 59.3149 97.5701 59.3477 97.8512 59.4242C98.1323 59.5006 98.3809 59.6207 98.5863 59.8064C98.7917 59.992 98.9647 60.2322 99.0836 60.538C99.2026 60.8548 99.2565 61.237 99.2565 61.7066V64.12ZM96.1215 64.7425C96.1215 64.9718 96.1432 65.1684 96.1864 65.3103C96.2189 65.4633 96.2729 65.5833 96.3486 65.6707C96.4134 65.7581 96.4999 65.8236 96.5972 65.8564C96.6945 65.8891 96.8135 65.911 96.9323 65.911C97.0728 65.911 97.2026 65.8891 97.2999 65.8564C97.3972 65.8236 97.4837 65.7581 97.5486 65.6707C97.6134 65.5833 97.6674 65.4633 97.6998 65.3103C97.7323 65.1684 97.7431 64.9718 97.7431 64.7425V61.7611C97.7431 61.4772 97.7215 61.2479 97.6891 61.0732C97.6567 60.9093 97.6026 60.7783 97.5377 60.6801C97.462 60.5817 97.3755 60.5272 97.2782 60.4944C97.181 60.4616 97.0621 60.4507 96.9323 60.4507C96.8135 60.4507 96.7054 60.4616 96.608 60.4944C96.5108 60.5272 96.4242 60.5927 96.3486 60.6801C96.2729 60.7783 96.2189 60.9093 96.1864 61.0732C96.1432 61.2479 96.1215 61.4772 96.1215 61.7611V64.7425ZM100.489 66.9375V59.4242H102.629C103.105 59.4242 103.483 59.4569 103.775 59.5225C104.067 59.5989 104.283 59.6972 104.435 59.8391C104.813 60.1995 105.008 60.7892 105.008 61.5974C105.008 61.925 104.986 62.2198 104.954 62.471C104.91 62.7221 104.845 62.9406 104.759 63.1044C104.673 63.2792 104.554 63.4211 104.413 63.5194C104.273 63.6286 104.1 63.716 103.916 63.7705C103.732 63.8361 103.527 63.8797 103.3 63.9016C103.073 63.9234 102.846 63.9343 102.597 63.9343H102.002V66.9375H100.489ZM102.002 62.7986H102.489C102.716 62.7986 102.9 62.7768 103.04 62.7331C103.17 62.6894 103.267 62.6239 103.343 62.5256C103.408 62.4382 103.451 62.3181 103.473 62.1761C103.483 62.0342 103.494 61.8703 103.494 61.6738C103.494 61.5319 103.483 61.3898 103.473 61.2479C103.462 61.1169 103.419 60.9967 103.364 60.8984C103.31 60.8002 103.224 60.7127 103.116 60.6472C102.997 60.5927 102.846 60.5599 102.651 60.5599H102.002V62.7986ZM110.478 64.12C110.478 64.6988 110.434 65.1793 110.348 65.5615C110.261 65.9438 110.121 66.2386 109.937 66.457C109.753 66.6754 109.516 66.8283 109.224 66.9157C108.932 67.003 108.575 67.0467 108.153 67.0467C107.732 67.0467 107.386 67.003 107.094 66.9157C106.802 66.8283 106.553 66.6754 106.37 66.4679C106.186 66.2604 106.045 65.9656 105.959 65.6052C105.872 65.2448 105.829 64.7752 105.829 64.2183V61.7066C105.829 61.237 105.894 60.8438 106.024 60.5272C106.143 60.2214 106.316 59.9811 106.521 59.7954C106.726 59.6207 106.975 59.5006 107.256 59.4242C107.537 59.3477 107.84 59.3149 108.153 59.3149C108.489 59.3149 108.791 59.3477 109.072 59.4242C109.353 59.5006 109.602 59.6207 109.807 59.8064C110.013 59.992 110.186 60.2322 110.305 60.538C110.424 60.8548 110.478 61.237 110.478 61.7066V64.12ZM107.343 64.7425C107.343 64.9718 107.364 65.1684 107.408 65.3103C107.44 65.4633 107.494 65.5833 107.57 65.6707C107.635 65.7581 107.721 65.8236 107.818 65.8564C107.916 65.8891 108.035 65.911 108.153 65.911C108.294 65.911 108.424 65.8891 108.521 65.8564C108.618 65.8236 108.705 65.7581 108.77 65.6707C108.834 65.5833 108.889 65.4633 108.921 65.3103C108.953 65.1684 108.964 64.9718 108.964 64.7425V61.7611C108.964 61.4772 108.943 61.2479 108.91 61.0732C108.878 60.9093 108.824 60.7783 108.759 60.6801C108.683 60.5817 108.597 60.5272 108.499 60.4944C108.402 60.4616 108.283 60.4507 108.153 60.4507C108.035 60.4507 107.926 60.4616 107.829 60.4944C107.732 60.5272 107.645 60.5927 107.57 60.6801C107.494 60.7783 107.44 60.9093 107.408 61.0732C107.364 61.2479 107.343 61.4772 107.343 61.7611V64.7425ZM116.369 65.8017H117.104L116.758 68.5756H115.375L115.515 66.9375H112.64L112.78 68.5756H111.396L111.051 65.8017H111.58C111.829 65.1793 111.991 64.5241 112.088 63.8142C112.175 63.1044 112.218 62.329 112.218 61.4663V59.4242H116.369V65.8017ZM114.856 60.5599H113.732V61.5209C113.732 62.4055 113.688 63.2026 113.602 63.8907C113.505 64.5896 113.364 65.223 113.18 65.8017H114.856V60.5599ZM119.385 62.4382H120.877V59.4242H122.391V66.9375H120.877V63.5739H119.385V66.9375H117.872V59.4242H119.385V62.4382ZM125.309 59.4242V62.4382H125.947C126.25 62.4382 126.542 62.46 126.823 62.5147C127.104 62.5693 127.342 62.6675 127.547 62.8313C127.763 62.9952 127.926 63.2245 128.055 63.5194C128.174 63.8252 128.239 64.2292 128.239 64.7206C128.239 65.1247 128.196 65.4741 128.109 65.7471C128.023 66.0311 127.893 66.2604 127.699 66.4351C127.515 66.6099 127.277 66.7409 126.985 66.8174C126.704 66.8938 126.358 66.9375 125.947 66.9375H123.796V59.4242H125.309ZM125.309 65.8017H125.85C126.185 65.8017 126.412 65.7144 126.542 65.5506C126.661 65.3868 126.726 65.081 126.726 64.6551C126.726 64.2511 126.661 63.9671 126.531 63.8033C126.401 63.6504 126.174 63.5739 125.85 63.5739H125.309V65.8017ZM130.336 66.9375H128.823V59.4242H130.336V66.9375ZM133.828 61.8703L134.79 59.4242H136.271L134.671 63.0389L136.358 66.9375H134.823L133.752 64.3057L132.617 66.9375H131.125L132.855 63.0607L131.288 59.4242H132.833L133.828 61.8703ZM144.195 65.8017H144.93L144.584 68.5756H143.201L143.341 66.9375H140.466L140.606 68.5756H139.222L138.876 65.8017H139.406C139.655 65.1793 139.817 64.5241 139.914 63.8142C140.001 63.1044 140.044 62.329 140.044 61.4663V59.4242H144.195V65.8017ZM142.682 60.5599H141.557V61.5209C141.557 62.4055 141.514 63.2026 141.428 63.8907C141.33 64.5896 141.19 65.223 141.006 65.8017H142.682V60.5599ZM150.173 64.12C150.173 64.6988 150.13 65.1793 150.043 65.5615C149.957 65.9438 149.816 66.2386 149.633 66.457C149.449 66.6754 149.211 66.8283 148.919 66.9157C148.627 67.003 148.271 67.0467 147.849 67.0467C147.427 67.0467 147.081 67.003 146.79 66.9157C146.498 66.8283 146.249 66.6754 146.065 66.4679C145.882 66.2604 145.741 65.9656 145.655 65.6052C145.568 65.2448 145.525 64.7752 145.525 64.2183V61.7066C145.525 61.237 145.59 60.8438 145.719 60.5272C145.838 60.2214 146.011 59.9811 146.217 59.7954C146.422 59.6207 146.671 59.5006 146.952 59.4242C147.233 59.3477 147.535 59.3149 147.849 59.3149C148.184 59.3149 148.487 59.3477 148.768 59.4242C149.049 59.5006 149.298 59.6207 149.503 59.8064C149.708 59.992 149.881 60.2322 150 60.538C150.119 60.8548 150.173 61.237 150.173 61.7066V64.12ZM147.038 64.7425C147.038 64.9718 147.06 65.1684 147.103 65.3103C147.136 65.4633 147.19 65.5833 147.265 65.6707C147.33 65.7581 147.417 65.8236 147.514 65.8564C147.611 65.8891 147.73 65.911 147.849 65.911C147.99 65.911 148.119 65.8891 148.217 65.8564C148.314 65.8236 148.4 65.7581 148.465 65.6707C148.53 65.5833 148.584 65.4633 148.617 65.3103C148.649 65.1684 148.66 64.9718 148.66 64.7425V61.7611C148.66 61.4772 148.638 61.2479 148.606 61.0732C148.573 60.9093 148.519 60.7783 148.454 60.6801C148.379 60.5817 148.292 60.5272 148.195 60.4944C148.098 60.4616 147.979 60.4507 147.849 60.4507C147.73 60.4507 147.622 60.4616 147.525 60.4944C147.427 60.5272 147.341 60.5927 147.265 60.6801C147.19 60.7783 147.136 60.9093 147.103 61.0732C147.06 61.2479 147.038 61.4772 147.038 61.7611V64.7425ZM154.757 65.092L155.924 59.4242H158.086V66.9375H156.832V60.4944L155.513 66.9375H154L152.681 60.4944V66.9375H151.427V59.4242H153.578L154.757 65.092ZM163.989 64.12C163.989 64.6988 163.946 65.1793 163.859 65.5615C163.773 65.9438 163.632 66.2386 163.448 66.457C163.264 66.6754 163.027 66.8283 162.735 66.9157C162.443 67.003 162.086 67.0467 161.665 67.0467C161.243 67.0467 160.897 67.003 160.605 66.9157C160.313 66.8283 160.065 66.6754 159.881 66.4679C159.697 66.2604 159.557 65.9656 159.47 65.6052C159.384 65.2448 159.34 64.7752 159.34 64.2183V61.7066C159.34 61.237 159.405 60.8438 159.535 60.5272C159.654 60.2214 159.827 59.9811 160.032 59.7954C160.238 59.6207 160.486 59.5006 160.767 59.4242C161.048 59.3477 161.351 59.3149 161.665 59.3149C162 59.3149 162.302 59.3477 162.583 59.4242C162.865 59.5006 163.113 59.6207 163.319 59.8064C163.524 59.992 163.697 60.2322 163.816 60.538C163.935 60.8548 163.989 61.237 163.989 61.7066V64.12ZM160.854 64.7425C160.854 64.9718 160.875 65.1684 160.919 65.3103C160.951 65.4633 161.005 65.5833 161.081 65.6707C161.146 65.7581 161.232 65.8236 161.329 65.8564C161.427 65.8891 161.546 65.911 161.665 65.911C161.805 65.911 161.935 65.8891 162.032 65.8564C162.129 65.8236 162.216 65.7581 162.281 65.6707C162.346 65.5833 162.4 65.4633 162.432 65.3103C162.465 65.1684 162.475 64.9718 162.475 64.7425V61.7611C162.475 61.4772 162.454 61.2479 162.421 61.0732C162.389 60.9093 162.335 60.7783 162.27 60.6801C162.194 60.5817 162.108 60.5272 162.01 60.4944C161.913 60.4616 161.794 60.4507 161.665 60.4507C161.546 60.4507 161.438 60.4616 161.34 60.4944C161.243 60.5272 161.156 60.5927 161.081 60.6801C161.005 60.7783 160.951 60.9093 160.919 61.0732C160.875 61.2479 160.854 61.4772 160.854 61.7611V64.7425ZM167.275 65.8017C167.664 65.8017 167.935 65.7253 168.075 65.5615C168.216 65.4086 168.291 65.1465 168.291 64.7643C168.291 64.4258 168.237 64.1528 168.129 63.9562C168.01 63.7597 167.805 63.6613 167.502 63.6613H166.735V65.8017H167.275ZM165.221 59.4242H167.837C168.118 59.4242 168.378 59.4569 168.616 59.5115C168.843 59.577 169.037 59.6862 169.199 59.8282C169.372 59.9811 169.491 60.1886 169.578 60.4398C169.664 60.6909 169.707 61.0185 169.707 61.4008C169.707 61.8267 169.632 62.1761 169.459 62.46C169.297 62.744 169.037 62.9297 168.659 63.017L168.302 63.1044L168.67 63.1699C169.048 63.2355 169.329 63.4102 169.524 63.6831C169.707 63.9562 169.805 64.3602 169.805 64.8735C169.805 65.3103 169.761 65.6598 169.675 65.9328C169.578 66.2058 169.437 66.4133 169.243 66.5553C169.048 66.7081 168.799 66.8064 168.486 66.8611C168.183 66.9157 167.816 66.9375 167.383 66.9375H165.221V59.4242ZM166.735 62.5256H167.081C167.286 62.5256 167.459 62.5147 167.599 62.4929C167.74 62.471 167.848 62.4273 167.945 62.3508C168.032 62.2744 168.097 62.1761 168.14 62.056C168.172 61.9358 168.194 61.7611 168.194 61.5537C168.194 61.2042 168.129 60.953 167.989 60.7892C167.848 60.6364 167.599 60.5599 167.264 60.5599H166.735V62.5256Z" fill="#242927"/>
</g>
<defs>
<clipPath id="clip0_532_3555">
<rect width="170" height="69" fill="white"/>
</clipPath>
</defs>
</svg>
