<svg width="40" height="32" viewBox="0 0 40 32" fill="none" xmlns="http://www.w3.org/2000/svg">
<path d="M0 31.3125V22.8125C0 20.1875 0.458333 17.4792 1.375 14.6875C2.33333 11.8542 3.64583 9.16667 5.3125 6.625C7.02083 4.04167 8.95833 1.83333 11.125 0L18.625 4.6875C16.9583 7.3125 15.5833 10.0833 14.5 13C13.4583 15.875 12.9375 19.125 12.9375 22.75V31.3125H0ZM20.5 31.3125V22.8125C20.5 20.1875 20.9583 17.4792 21.875 14.6875C22.8333 11.8542 24.1458 9.16667 25.8125 6.625C27.5208 4.04167 29.4583 1.83333 31.625 0L39.125 4.6875C37.4583 7.3125 36.0833 10.0833 35 13C33.9583 15.875 33.4375 19.125 33.4375 22.75V31.3125H20.5Z" fill="#B21D0C"/>
</svg>
