<svg width="20" height="21" viewBox="0 0 20 21" fill="none" xmlns="http://www.w3.org/2000/svg">
<g clip-path="url(#clip0_1_4)">
<path d="M4.509 14.775C4.37746 14.919 4.20679 15.0215 4.01788 15.07C3.82897 15.1185 3.63002 15.1109 3.44537 15.0481C3.26073 14.9853 3.09841 14.87 2.97828 14.7163C2.85815 14.5627 2.78542 14.3773 2.769 14.183C2.74983 13.9225 2.83469 13.665 3.005 13.467L4.549 11.717H1C0.755 11.717 0.519 11.627 0.336 11.467C0.153003 11.306 0.0358561 11.0831 0.007 10.841L0 10.725C0 10.482 0.09 10.247 0.253 10.065C0.415 9.884 0.64 9.768 0.883 9.74L1 9.733H3.785L2.24 7.996C2.15337 7.89853 2.08689 7.78488 2.0444 7.66159C2.00191 7.5383 1.98425 7.40782 1.99243 7.27767C2.00061 7.14753 2.03447 7.02029 2.09207 6.90329C2.14966 6.7863 2.22985 6.68186 2.328 6.596C2.52718 6.42135 2.78727 6.3324 3.05169 6.3485C3.31612 6.36461 3.56349 6.48446 3.74 6.682L6.451 9.732H8.999V7.202L5.927 4.512C5.74526 4.35256 5.62815 4.13212 5.59775 3.89227C5.56736 3.65242 5.62578 3.40974 5.762 3.21L5.839 3.111C6.00064 2.9292 6.22289 2.81241 6.4643 2.78241C6.70571 2.75242 6.94979 2.81128 7.151 2.948L7.251 3.024L8.999 4.556L9 1.795C9 1.571 9.076 1.354 9.216 1.179C9.35611 1.00342 9.55126 0.880134 9.77 0.829002L9.883 0.809003L10 0.801003C10.245 0.801003 10.481 0.891003 10.664 1.052C10.847 1.21305 10.9641 1.43595 10.993 1.678L11 1.794L10.999 4.57L12.769 3.038C12.9694 2.86634 13.2293 2.7804 13.4926 2.79874C13.7558 2.81708 14.0013 2.93822 14.176 3.136C14.262 3.23351 14.3278 3.34704 14.3698 3.47006C14.4117 3.59309 14.429 3.7232 14.4205 3.85291C14.4121 3.98262 14.3781 4.10939 14.3205 4.22593C14.2629 4.34246 14.1829 4.44648 14.085 4.532L10.999 7.205V9.732H13.547L16.249 6.679C16.4101 6.49657 16.6321 6.37902 16.8735 6.34829C17.115 6.31756 17.3593 6.37575 17.561 6.512L17.66 6.588C17.8422 6.74704 17.9599 6.96728 17.9908 7.20715C18.0218 7.44702 17.9639 7.68992 17.828 7.89L17.751 7.99L16.208 9.732H19C19.245 9.732 19.481 9.821 19.664 9.982C19.847 10.143 19.9641 10.3659 19.993 10.608L20 10.724C20 10.967 19.91 11.201 19.747 11.383C19.5838 11.5649 19.3597 11.6808 19.117 11.709L19 11.716H16.207L17.752 13.466C17.9122 13.6472 18.0003 13.8809 17.9996 14.1228C17.9988 14.3646 17.9093 14.5978 17.748 14.778L17.659 14.866C17.4754 15.0253 17.2403 15.1127 16.9972 15.112C16.7542 15.1112 16.5196 15.0224 16.337 14.862L16.248 14.774L13.546 11.716H10.999V14.244L14.086 16.916C14.269 17.0744 14.3876 17.2943 14.4195 17.5342C14.4514 17.7741 14.3943 18.0173 14.259 18.218L14.182 18.318C14.0213 18.5006 13.7997 18.6186 13.5585 18.6499C13.3173 18.6812 13.0729 18.6236 12.871 18.488L12.771 18.413L11 16.878V19.655C11 19.898 10.91 20.133 10.747 20.315C10.5836 20.4964 10.3596 20.612 10.117 20.64L10 20.647C9.755 20.647 9.519 20.557 9.336 20.397C9.153 20.236 9.03586 20.0131 9.007 19.771L9 19.655L8.999 16.894L7.263 18.414C7.11461 18.5446 6.93086 18.6284 6.73491 18.6548C6.53897 18.6811 6.33962 18.6488 6.162 18.562C5.92432 18.4465 5.74204 18.2415 5.655 17.992C5.59066 17.8062 5.58343 17.6053 5.63422 17.4153C5.68501 17.2254 5.79151 17.0549 5.94 16.926L8.999 14.247V11.717H7.21L4.509 14.775Z" fill="white"/>
</g>
<defs>
<clipPath id="clip0_1_4">
<rect width="20" height="21" fill="white"/>
</clipPath>
</defs>
</svg>
