<svg width="40" height="40" viewBox="0 0 40 40" fill="none" xmlns="http://www.w3.org/2000/svg">
<path d="M20 0C8.955 0 0 8.95375 0 20C0 31.0462 8.955 40 20 40C31.045 40 40 31.0462 40 20C40 8.95375 31.045 0 20 0ZM29.4825 26.98H26.8575C26 26.98 25.8938 26.355 24.3225 24.8563C22.9963 23.5488 22.4287 23.445 22.1087 23.445C21.8225 23.445 21.6262 23.66 21.6262 24.16V26.16C21.6262 26.7488 21.2875 26.98 19.895 26.98C17.61 26.98 15.075 25.57 13.1475 22.9638C10.2712 19.0888 9.53999 16.1963 9.53999 15.5713C9.53999 15.2325 9.78999 15 10.13 15H12.4687C13.075 15 13.3075 15.18 13.5213 15.8225C14.5925 18.965 16.5038 21.7313 17.3063 21.7313C17.61 21.7313 17.645 21.4825 17.645 20.8387V17.6425C17.645 16.0938 16.77 15.9637 16.77 15.3925C16.77 15.165 16.9487 15 17.2337 15H20.9837C21.4837 15 21.555 15.18 21.555 15.7862V20.125C21.555 20.62 21.6563 20.8038 21.8763 20.8038C22.1488 20.8038 22.4 20.6375 22.8938 20.09C24.4313 18.3925 25.6963 15.6975 25.6963 15.6975C25.8563 15.3588 26.0537 15.1263 26.5887 15.1263C27.375 15.1263 28.9275 15.1263 28.9275 15.1263C29.3912 15.1263 29.5887 15.3762 29.4987 15.8237C29.2312 17.0725 26.535 20.875 26.535 20.875C26.2862 21.2675 26.1787 21.4825 26.535 21.8575C26.785 22.1787 27.57 22.8737 28.0537 23.5175C29.2312 24.7675 30 25.8213 30 26.4088C30 26.855 29.75 26.98 29.4825 26.98Z" fill="#4D75A2"/>
</svg>
